<?xml version="1.0" standalone="no"?><!DOCTYPE svg PUBLIC "-//W3C//DTD SVG 1.1//EN" "http://www.w3.org/Graphics/SVG/1.1/DTD/svg11.dtd"><svg t="1668260245463" class="icon" viewBox="0 0 1024 1024" version="1.1" xmlns="http://www.w3.org/2000/svg" p-id="14178" xmlns:xlink="http://www.w3.org/1999/xlink" width="200" height="200"><path d="M904 1024H120c-66.168 0-120-53.832-120-120V120C0 53.832 53.832 0 120 0h784c66.168 0 120 53.832 120 120v784c0 66.168-53.832 120-120 120zM120 4C56.038 4 4 56.038 4 120v784c0 63.962 52.038 116 116 116h784c63.962 0 116-52.038 116-116V120c0-63.962-52.038-116-116-116H120z" fill="#D8DDE3" p-id="14179"></path><path d="M285.002 832c-51.164 0-92.838-41.622-92.89-92.826v-94.316c0.052-51.232 41.73-92.858 92.92-92.858h89.122c16.568 0 30 13.432 30 30s-13.432 30-30 30h-89.09c-18.168 0-32.932 14.746-32.952 32.888v94.254c0.018 18.11 14.786 32.858 32.92 32.858h455.896c16.568 0 30 13.432 30 30s-13.432 30-30 30H285.002z" fill="#20263B" p-id="14180"></path><path d="M739.128 832H284c-16.568 0-30-13.432-30-30s13.432-30 30-30H739.122c18.128 0 32.876-14.74 32.878-32.864v-94.28c-0.004-18.116-14.752-32.858-32.874-32.858H650.2c-16.568 0-30-13.432-30-30s13.432-30 30-30h88.936c24.792 0 48.108 9.654 65.648 27.188 17.544 17.538 27.21 40.856 27.216 65.664v94.292c-0.006 24.814-9.672 48.132-27.216 65.67-17.542 17.534-40.858 27.188-65.656 27.188z" fill="#20263B" p-id="14181"></path><path d="M512 650c-16.568 0-30-13.432-30-30V230c0-16.568 13.432-30 30-30s30 13.432 30 30v390c0 16.568-13.432 30-30 30z" fill="#FF4B07" p-id="14182"></path><path d="M350.78 412.61a29.892 29.892 0 0 1-21.212-8.788c-11.716-11.716-11.716-30.71 0-42.426l161.22-161.22c11.714-11.716 30.71-11.716 42.426 0 11.716 11.716 11.716 30.71 0 42.426l-161.22 161.22a29.904 29.904 0 0 1-21.214 8.788z" fill="#FF4B07" p-id="14183"></path><path d="M673.218 412.61a29.892 29.892 0 0 1-21.212-8.788l-161.218-161.22c-11.716-11.716-11.716-30.71 0-42.426 11.714-11.716 30.71-11.716 42.426 0l161.218 161.22c11.716 11.716 11.716 30.71 0 42.426a29.912 29.912 0 0 1-21.214 8.788z" fill="#FF4B07" p-id="14184"></path></svg>