<?xml version="1.0" standalone="no"?><!DOCTYPE svg PUBLIC "-//W3C//DTD SVG 1.1//EN" "http://www.w3.org/Graphics/SVG/1.1/DTD/svg11.dtd"><svg t="1668260222260" class="icon" viewBox="0 0 1024 1024" version="1.1" xmlns="http://www.w3.org/2000/svg" p-id="13429" xmlns:xlink="http://www.w3.org/1999/xlink" width="200" height="200"><path d="M904 1024H120c-66.168 0-120-53.832-120-120V120C0 53.832 53.832 0 120 0h784c66.168 0 120 53.832 120 120v784c0 66.168-53.832 120-120 120zM120 4C56.038 4 4 56.038 4 120v784c0 63.962 52.038 116 116 116h784c63.962 0 116-52.038 116-116V120c0-63.962-52.038-116-116-116H120z" fill="#D8DDE3" p-id="13430"></path><path d="M512 832c-176.448 0-320-143.55-320-320 0-176.448 143.552-320 320-320 176.45 0 320 143.552 320 320 0 176.45-143.55 320-320 320z m0-580c-143.364 0-260 116.636-260 260 0 143.366 116.636 260 260 260 143.366 0 260-116.634 260-260 0-143.364-116.634-260-260-260z" fill="#20263B" p-id="13431"></path><path d="M512 558c-11.046 0-20-8.956-20-20v-184c0-11.046 8.954-20 20-20 11.044 0 20 8.954 20 20v184c0 11.044-8.956 20-20 20z" fill="#FF4B07" p-id="13432"></path><path d="M512 558a19.94 19.94 0 0 1-14.142-5.858c-7.81-7.81-7.81-20.474 0-28.286l80-80c7.812-7.81 20.472-7.81 28.286 0 7.81 7.81 7.81 20.474 0 28.286l-80 80A19.95 19.95 0 0 1 512 558z" fill="#FF4B07" p-id="13433"></path><path d="M512 558a19.94 19.94 0 0 1-14.142-5.858l-80-80c-7.81-7.81-7.81-20.474 0-28.286 7.81-7.81 20.474-7.81 28.286 0l80 80c7.81 7.81 7.81 20.474 0 28.286A19.95 19.95 0 0 1 512 558zM511.996 692.068c-46.646 0-93.292-17.302-129.638-51.912-8-7.618-8.31-20.278-0.694-28.276 7.616-8 20.276-8.308 28.276-0.694 57.228 54.492 146.882 54.492 204.114 0 8-7.62 20.658-7.306 28.276 0.694 7.618 7.998 7.306 20.658-0.694 28.276-36.348 34.61-82.994 51.912-129.64 51.912z" fill="#FF4B07" p-id="13434"></path></svg>