<?xml version="1.0" standalone="no"?><!DOCTYPE svg PUBLIC "-//W3C//DTD SVG 1.1//EN" "http://www.w3.org/Graphics/SVG/1.1/DTD/svg11.dtd"><svg t="1668260170125" class="icon" viewBox="0 0 1024 1024" version="1.1" xmlns="http://www.w3.org/2000/svg" p-id="12744" xmlns:xlink="http://www.w3.org/1999/xlink" width="200" height="200"><path d="M904 1024H120c-66.168 0-120-53.832-120-120V120C0 53.832 53.832 0 120 0h784c66.168 0 120 53.832 120 120v784c0 66.168-53.832 120-120 120zM120 4C56.038 4 4 56.038 4 120v784c0 63.962 52.038 116 116 116h784c63.962 0 116-52.038 116-116V120c0-63.962-52.038-116-116-116H120z" fill="#D8DDE3" p-id="12745"></path><path d="M412 492h-140c-44.112 0-80-35.888-80-80v-140c0-44.112 35.888-80 80-80h140c44.112 0 80 35.888 80 80v140c0 44.112-35.888 80-80 80z m-140-240c-11.028 0-20 8.972-20 20v140c0 11.028 8.972 20 20 20h140c11.028 0 20-8.972 20-20v-140c0-11.028-8.972-20-20-20h-140z" fill="#20263B" p-id="12746"></path><path d="M752 492h-140c-44.112 0-80-35.888-80-80v-140c0-44.112 35.888-80 80-80h140c44.112 0 80 35.888 80 80v140c0 44.112-35.888 80-80 80z m-140-240c-11.028 0-20 8.972-20 20v140c0 11.028 8.972 20 20 20h140c11.028 0 20-8.972 20-20v-140c0-11.028-8.972-20-20-20h-140z" fill="#20263B" p-id="12747"></path><path d="M412 832h-140c-44.112 0-80-35.888-80-80v-140c0-44.112 35.888-80 80-80h140c44.112 0 80 35.888 80 80v140c0 44.112-35.888 80-80 80z m-140-240c-11.028 0-20 8.972-20 20v140c0 11.028 8.972 20 20 20h140c11.028 0 20-8.972 20-20v-140c0-11.028-8.972-20-20-20h-140z" fill="#20263B" p-id="12748"></path><path d="M588 568h94c11.046 0 20 8.954 20 20v94c0 11.044-8.954 20-20 20h-94c-11.046 0-20-8.956-20-20v-94c0-11.046 8.954-20 20-20zM746 648h66c11.046 0 20 8.956 20 20v144c0 11.044-8.954 20-20 20h-66c-11.046 0-20-8.956-20-20v-144c0-11.044 8.954-20 20-20z" fill="#FF4B07" p-id="12749"></path><path d="M832 746v66c0 11.044-8.954 20-20 20h-144c-11.046 0-20-8.956-20-20v-66c0-11.044 8.954-20 20-20h144c11.046 0 20 8.956 20 20zM548 760h40a16 16 0 0 1 16 16v40a16 16 0 0 1-16 16h-40a16 16 0 0 1-16-16v-40a16 16 0 0 1 16-16zM776 532h40a16 16 0 0 1 16 16v40a16 16 0 0 1-16 16h-40a16 16 0 0 1-16-16v-40a16 16 0 0 1 16-16zM548 532h54a16 16 0 0 1 16 16v54a16 16 0 0 1-16 16h-54a16 16 0 0 1-16-16v-54a16 16 0 0 1 16-16z" fill="#FF4B07" p-id="12750"></path></svg>