<?xml version="1.0" standalone="no"?><!DOCTYPE svg PUBLIC "-//W3C//DTD SVG 1.1//EN" "http://www.w3.org/Graphics/SVG/1.1/DTD/svg11.dtd"><svg t="1668260231099" class="icon" viewBox="0 0 1024 1024" version="1.1" xmlns="http://www.w3.org/2000/svg" p-id="13732" xmlns:xlink="http://www.w3.org/1999/xlink" width="200" height="200"><path d="M904 1024H120c-66.168 0-120-53.832-120-120V120C0 53.832 53.832 0 120 0h784c66.168 0 120 53.832 120 120v784c0 66.168-53.832 120-120 120zM120 4C56.038 4 4 56.038 4 120v784c0 63.962 52.038 116 116 116h784c63.962 0 116-52.038 116-116V120c0-63.962-52.038-116-116-116H120z" fill="#D8DDE3" p-id="13733"></path><path d="M740.002 718c17.644 0 32-14.356 32-32v-35.998c0-17.646-14.356-32-32-32h-21.806a60.004 60.004 0 0 1-59.142-70.116 207.472 207.472 0 0 0 2.948-34.886c0-113.038-91.962-205-205-205s-205 91.962-205 205 91.962 205 206 205h282m0 60h-282l-0.334-0.002-0.666 0.002c-146.36 0-265-118.642-265-265 0-146.354 118.64-265 265-265 146.354 0 265 118.646 265 265 0 15.336-1.304 30.378-3.806 45.002h21.806c50.808 0 92 41.19 92 92V686c0 50.808-41.192 92-92 92z" fill="#20263B" p-id="13734"></path><path d="M457.788 658h-0.032c-16.568-0.018-29.986-13.462-29.968-30.032L428 423.534c0.018-16.558 13.446-29.968 30-29.968h0.032c16.568 0.018 29.986 13.462 29.968 30.032l-0.214 204.436c-0.018 16.554-13.446 29.966-29.998 29.966z" fill="#FF4B07" p-id="13735"></path><path d="M457.996 657.448c-7.616 0-15.232-2.88-21.078-8.654l-87.524-86.426c-11.79-11.64-11.91-30.634-0.268-42.424 11.642-11.792 30.636-11.91 42.426-0.268l87.524 86.426c11.79 11.64 11.91 30.634 0.268 42.424a29.916 29.916 0 0 1-21.348 8.922z" fill="#FF4B07" p-id="13736"></path><path d="M458 657.454a29.898 29.898 0 0 1-21.346-8.92c-11.642-11.79-11.522-30.786 0.266-42.426l87.52-86.428c11.792-11.646 30.788-11.522 42.426 0.266 11.642 11.79 11.524 30.786-0.266 42.426L479.078 648.8A29.904 29.904 0 0 1 458 657.454z" fill="#FF4B07" p-id="13737"></path></svg>