<?xml version="1.0" standalone="no"?><!DOCTYPE svg PUBLIC "-//W3C//DTD SVG 1.1//EN" "http://www.w3.org/Graphics/SVG/1.1/DTD/svg11.dtd"><svg t="1668260335350" class="icon" viewBox="0 0 1024 1024" version="1.1" xmlns="http://www.w3.org/2000/svg" p-id="16435" xmlns:xlink="http://www.w3.org/1999/xlink" width="200" height="200"><path d="M904 1024H120c-66.168 0-120-53.832-120-120V120C0 53.832 53.832 0 120 0h784c66.168 0 120 53.832 120 120v784c0 66.168-53.832 120-120 120zM120 4C56.038 4 4 56.038 4 120v784c0 63.962 52.038 116 116 116h784c63.962 0 116-52.038 116-116V120c0-63.962-52.038-116-116-116H120z" fill="#D8DDE3" p-id="16436"></path><path d="M576 832H300c-33.084 0-60-26.916-60-60V272c0-44.112 35.888-80 80-80h236c44.112 0 80 35.888 80 80v500c0 33.084-26.916 60-60 60zM320 252c-11.028 0-20 8.972-20 20v500h276a0.26 0.26 0 0 0 0.038-0.002L576 272c0-11.028-8.972-20-20-20H320z" fill="#20263B" p-id="16437"></path><path d="M720 832h-84c-33.084 0-60-26.916-60-60V446c0-37.496 30.504-68 68-68h68c37.496 0 68 30.504 68 68v326c0 33.084-26.916 60-60 60z m-76-394c-4.412 0-8 3.588-8 8v326h84a0.26 0.26 0 0 0 0.038-0.002L720 446c0-4.412-3.588-8-8-8h-68z" fill="#20263B" p-id="16438"></path><path d="M342 338h192v52h-192zM342 430h192v52h-192z" fill="#FF4B07" p-id="16439"></path><path d="M492 832h-108c-28.672 0-52-23.326-52-52v-190c0-22.056 17.944-40 40-40h132c22.056 0 40 17.944 40 40v190c0 28.674-23.326 52-52 52z m-108-230v178h108a0.23 0.23 0 0 0 0.034-0.002L492.002 602H384z" fill="#FF4B07" p-id="16440"></path><path d="M192 772h640v60H192z" fill="#20263B" p-id="16441"></path></svg>