<?xml version="1.0" standalone="no"?><!DOCTYPE svg PUBLIC "-//W3C//DTD SVG 1.1//EN" "http://www.w3.org/Graphics/SVG/1.1/DTD/svg11.dtd"><svg t="1668260468455" class="icon" viewBox="0 0 1024 1024" version="1.1" xmlns="http://www.w3.org/2000/svg" p-id="20012" xmlns:xlink="http://www.w3.org/1999/xlink" width="200" height="200"><path d="M904 1024H120c-66.168 0-120-53.832-120-120V120C0 53.832 53.832 0 120 0h784c66.168 0 120 53.832 120 120v784c0 66.168-53.832 120-120 120zM120 4C56.038 4 4 56.038 4 120v784c0 63.962 52.038 116 116 116h784c63.962 0 116-52.038 116-116V120c0-63.962-52.038-116-116-116H120z" fill="#D8DDE3" p-id="20013"></path><path d="M786.646 747.792a29.9 29.9 0 0 1-21.212-8.788l-186.218-186.216c-11.716-11.714-11.716-30.71 0-42.426 11.714-11.716 30.71-11.716 42.426 0l186.218 186.216c11.716 11.714 11.716 30.71 0 42.426a29.908 29.908 0 0 1-21.214 8.788zM238.428 747.792a29.896 29.896 0 0 1-21.212-8.788c-11.716-11.714-11.716-30.71 0-42.426l186.218-186.216c11.716-11.716 30.71-11.714 42.426 0s11.716 30.71 0 42.426l-186.218 186.216a29.912 29.912 0 0 1-21.214 8.788z" fill="#20263B" p-id="20014"></path><path d="M792 762H232c-22.056 0-40-17.944-40-40V300c0-22.056 17.944-40 40-40h560c22.056 0 40 17.944 40 40v422c0 22.056-17.944 40-40 40z m-540-60h520V320H252v382z" fill="#20263B" p-id="20015"></path><path d="M513 528c-6.146 0-12.29-1.882-17.524-5.65l-289-208A30 30 0 0 1 224 260h578a30 30 0 0 1 17.524 54.348l-289 208A29.94 29.94 0 0 1 513 528z m-195.96-208l195.96 141.038L708.96 320H317.04z" fill="#FF4B07" p-id="20016"></path></svg>