<?xml version="1.0" standalone="no"?><!DOCTYPE svg PUBLIC "-//W3C//DTD SVG 1.1//EN" "http://www.w3.org/Graphics/SVG/1.1/DTD/svg11.dtd"><svg t="1668260108902" class="icon" viewBox="0 0 1024 1024" version="1.1" xmlns="http://www.w3.org/2000/svg" p-id="10881" xmlns:xlink="http://www.w3.org/1999/xlink" width="200" height="200"><path d="M904 1024H120c-66.168 0-120-53.832-120-120V120C0 53.832 53.832 0 120 0h784c66.168 0 120 53.832 120 120v784c0 66.168-53.832 120-120 120zM120 4C56.038 4 4 56.038 4 120v784c0 63.962 52.038 116 116 116h784c63.962 0 116-52.038 116-116V120c0-63.962-52.038-116-116-116H120z" fill="#D8DDE3" p-id="10882"></path><path d="M366.452 832.002A30 30 0 0 1 336.458 802v-78.136H302c-44.112 0-80-35.888-80-80V272c0-44.112 35.888-80 80-80h420c44.112 0 80 35.888 80 80v371.864c0 44.112-35.888 80-80 80H465.768l-75.696 96.636a30 30 0 0 1-23.62 11.502zM302 252c-11.028 0-20 8.972-20 20v371.864c0 11.028 8.972 20 20 20h64.456c16.568 0 30 13.432 30 30v21.188l31.086-39.688a30 30 0 0 1 23.618-11.5H722c11.028 0 20-8.972 20-20V272c0-11.028-8.972-20-20-20H302z" fill="#20263B" p-id="10883"></path><path d="M341.518 482h340.966v60H341.518z" fill="#FF4B07" p-id="10884"></path></svg>