<?xml version="1.0" standalone="no"?><!DOCTYPE svg PUBLIC "-//W3C//DTD SVG 1.1//EN" "http://www.w3.org/Graphics/SVG/1.1/DTD/svg11.dtd"><svg t="1668260047694" class="icon" viewBox="0 0 1024 1024" version="1.1" xmlns="http://www.w3.org/2000/svg" p-id="9013" xmlns:xlink="http://www.w3.org/1999/xlink" width="200" height="200"><path d="M904 1024H120c-66.168 0-120-53.832-120-120V120C0 53.832 53.832 0 120 0h784c66.168 0 120 53.832 120 120v784c0 66.168-53.832 120-120 120zM120 4C56.038 4 4 56.038 4 120v784c0 63.962 52.038 116 116 116h784c63.962 0 116-52.038 116-116V120c0-63.962-52.038-116-116-116H120z" fill="#D8DDE3" p-id="9014"></path><path d="M729.36 831.836H294.5c-56.504 0-102.476-45.97-102.476-102.476V294.5c0-56.504 45.97-102.476 102.476-102.476h378.214v60H294.5c-23.42 0-42.476 19.054-42.476 42.476v434.86c0 23.422 19.054 42.476 42.476 42.476h434.86c23.422 0 42.476-19.054 42.476-42.476V361.202h60V729.36c0 56.506-45.97 102.476-102.476 102.476z" fill="#20263B" p-id="9015"></path><path d="M789.74 193.9l42.57 42.286L534.284 536.2l-42.57-42.288zM402 602h220v60H402z" fill="#FF4B07" p-id="9016"></path></svg>