<?xml version="1.0" standalone="no"?><!DOCTYPE svg PUBLIC "-//W3C//DTD SVG 1.1//EN" "http://www.w3.org/Graphics/SVG/1.1/DTD/svg11.dtd"><svg t="1668259977661" class="icon" viewBox="0 0 1024 1024" version="1.1" xmlns="http://www.w3.org/2000/svg" p-id="7003" xmlns:xlink="http://www.w3.org/1999/xlink" width="200" height="200"><path d="M904 1024H120c-66.168 0-120-53.832-120-120V120C0 53.832 53.832 0 120 0h784c66.168 0 120 53.832 120 120v784c0 66.168-53.832 120-120 120zM120 4C56.038 4 4 56.038 4 120v784c0 63.962 52.038 116 116 116h784c63.962 0 116-52.038 116-116V120c0-63.962-52.038-116-116-116H120z" fill="#D8DDE3" p-id="7004"></path><path d="M512.622 832.416c-23.094 0-46.344-2.818-69.336-8.518a285.52 285.52 0 0 1-217.198-277.596l60-0.004a225.624 225.624 0 0 0 171.634 219.362c58.598 14.528 119.348 5.366 171.054-25.796 51.708-31.164 88.186-80.598 102.712-139.198s5.366-119.348-25.796-171.054c-31.164-51.708-80.598-88.186-139.198-102.712l14.438-58.236c74.154 18.382 136.712 64.544 176.148 129.978 39.436 65.434 51.03 142.31 32.646 216.464s-64.544 136.712-129.978 176.148c-45.144 27.206-95.738 41.162-147.126 41.162z" fill="#20263B" p-id="7005"></path><path d="M511.552 832.634c-51.392 0.002-101.976-13.954-147.126-41.164-65.434-39.436-111.594-101.992-129.978-176.146-37.95-153.08 55.714-308.492 208.792-346.442l14.438 58.236c-120.966 29.99-194.982 152.802-164.994 273.768 14.528 58.6 51.004 108.034 102.712 139.196 51.708 31.164 112.454 40.328 171.056 25.796a225.62 225.62 0 0 0 171.634-219.362l60 0.004a285.516 285.516 0 0 1-217.198 277.596 287.948 287.948 0 0 1-69.336 8.518z" fill="#20263B" p-id="7006"></path><path d="M482 192h60v354h-60z" fill="#FF4B07" p-id="7007"></path></svg>