<?xml version="1.0" standalone="no"?><!DOCTYPE svg PUBLIC "-//W3C//DTD SVG 1.1//EN" "http://www.w3.org/Graphics/SVG/1.1/DTD/svg11.dtd"><svg t="1668260463967" class="icon" viewBox="0 0 1024 1024" version="1.1" xmlns="http://www.w3.org/2000/svg" p-id="19864" xmlns:xlink="http://www.w3.org/1999/xlink" width="200" height="200"><path d="M904 1024H120c-66.168 0-120-53.832-120-120V120C0 53.832 53.832 0 120 0h784c66.168 0 120 53.832 120 120v784c0 66.168-53.832 120-120 120zM120 4C56.038 4 4 56.038 4 120v784c0 63.962 52.038 116 116 116h784c63.962 0 116-52.038 116-116V120c0-63.962-52.038-116-116-116H120z" fill="#D8DDE3" p-id="19865"></path><path d="M752 832H272c-44.112 0-80-35.888-80-80V452c0-44.112 35.888-80 80-80h480c44.112 0 80 35.888 80 80v300c0 44.112-35.888 80-80 80zM272 432c-11.028 0-20 8.972-20 20v300c0 11.028 8.972 20 20 20h480c11.028 0 20-8.972 20-20V452c0-11.028-8.972-20-20-20H272z" fill="#20263B" p-id="19866"></path><path d="M240.026 444.002a29.966 29.966 0 0 1-24.536-12.702c-9.554-13.536-6.328-32.254 7.208-41.81l272-192c13.54-9.556 32.254-6.326 41.81 7.208 9.554 13.536 6.326 32.254-7.208 41.81l-272 192a29.868 29.868 0 0 1-17.274 5.494z" fill="#20263B" p-id="19867"></path><path d="M783.974 444.002c-5.98 0-12.018-1.784-17.276-5.494l-272-192c-13.536-9.554-16.762-28.274-7.208-41.81 9.554-13.534 28.27-16.764 41.81-7.208l272 192c13.536 9.554 16.764 28.274 7.208 41.81-5.844 8.28-15.116 12.702-24.534 12.702z" fill="#20263B" p-id="19868"></path><path d="M296 585.482h403v40H296zM296 665.482h240.964v40H296zM296 505.482h148.966v40H296z" fill="#FF4B07" p-id="19869"></path></svg>