<?xml version="1.0" standalone="no"?><!DOCTYPE svg PUBLIC "-//W3C//DTD SVG 1.1//EN" "http://www.w3.org/Graphics/SVG/1.1/DTD/svg11.dtd"><svg t="1668260293128" class="icon" viewBox="0 0 1024 1024" version="1.1" xmlns="http://www.w3.org/2000/svg" p-id="15608" xmlns:xlink="http://www.w3.org/1999/xlink" width="200" height="200"><path d="M904 1024H120c-66.168 0-120-53.832-120-120V120C0 53.832 53.832 0 120 0h784c66.168 0 120 53.832 120 120v784c0 66.168-53.832 120-120 120zM120 4C56.038 4 4 56.038 4 120v784c0 63.962 52.038 116 116 116h784c63.962 0 116-52.038 116-116V120c0-63.962-52.038-116-116-116H120z" fill="#D8DDE3" p-id="15609"></path><path d="M312 632C245.832 632 192 578.168 192 512S245.832 392 312 392s120 53.832 120 120-53.832 120-120 120z m0-180c-33.084 0-60 26.916-60 60s26.916 60 60 60 60-26.916 60-60-26.916-60-60-60z" fill="#FF4B07" p-id="15610"></path><path d="M712 832C645.832 832 592 778.168 592 712S645.832 592 712 592s120 53.832 120 120-53.832 120-120 120z m0-180c-33.084 0-60 26.916-60 60s26.916 60 60 60 60-26.916 60-60-26.916-60-60-60z" fill="#20263B" p-id="15611"></path><path d="M393.29 521.75l178.78 83.362-25.356 54.38-178.78-83.364z" fill="#FF4B07" p-id="15612"></path><path d="M712 432C645.832 432 592 378.168 592 312S645.832 192 712 192s120 53.832 120 120-53.832 120-120 120z m0-180c-33.084 0-60 26.916-60 60s26.916 60 60 60 60-26.916 60-60-26.916-60-60-60z" fill="#20263B" p-id="15613"></path><path d="M630.712 321.756l25.356 54.378-178.78 83.362-25.354-54.378z" fill="#20263B" p-id="15614"></path></svg>