<?xml version="1.0" standalone="no"?><!DOCTYPE svg PUBLIC "-//W3C//DTD SVG 1.1//EN" "http://www.w3.org/Graphics/SVG/1.1/DTD/svg11.dtd"><svg t="1668260206164" class="icon" viewBox="0 0 1024 1024" version="1.1" xmlns="http://www.w3.org/2000/svg" p-id="12984" xmlns:xlink="http://www.w3.org/1999/xlink" width="200" height="200"><path d="M904 1024H120c-66.168 0-120-53.832-120-120V120C0 53.832 53.832 0 120 0h784c66.168 0 120 53.832 120 120v784c0 66.168-53.832 120-120 120zM120 4C56.038 4 4 56.038 4 120v784c0 63.962 52.038 116 116 116h784c63.962 0 116-52.038 116-116V120c0-63.962-52.038-116-116-116H120z" fill="#D8DDE3" p-id="12985"></path><path d="M412 492h-140c-44.112 0-80-35.888-80-80v-140c0-44.112 35.888-80 80-80h140c44.112 0 80 35.888 80 80v140c0 44.112-35.888 80-80 80z m-140-240c-11.028 0-20 8.972-20 20v140c0 11.028 8.972 20 20 20h140c11.028 0 20-8.972 20-20v-140c0-11.028-8.972-20-20-20h-140z" fill="#20263B" p-id="12986"></path><path d="M412 832h-140c-44.112 0-80-35.888-80-80v-140c0-44.112 35.888-80 80-80h140c44.112 0 80 35.888 80 80v140c0 44.112-35.888 80-80 80z m-140-240c-11.028 0-20 8.972-20 20v140c0 11.028 8.972 20 20 20h140c11.028 0 20-8.972 20-20v-140c0-11.028-8.972-20-20-20h-140z" fill="#20263B" p-id="12987"></path><path d="M532 312h300v60H532zM532 652h300v60H532z" fill="#FF4B07" p-id="12988"></path></svg>