<?xml version="1.0" standalone="no"?><!DOCTYPE svg PUBLIC "-//W3C//DTD SVG 1.1//EN" "http://www.w3.org/Graphics/SVG/1.1/DTD/svg11.dtd"><svg t="1668260212130" class="icon" viewBox="0 0 1024 1024" version="1.1" xmlns="http://www.w3.org/2000/svg" p-id="13131" xmlns:xlink="http://www.w3.org/1999/xlink" width="200" height="200"><path d="M904 1024H120c-66.168 0-120-53.832-120-120V120C0 53.832 53.832 0 120 0h784c66.168 0 120 53.832 120 120v784c0 66.168-53.832 120-120 120zM120 4C56.038 4 4 56.038 4 120v784c0 63.962 52.038 116 116 116h784c63.962 0 116-52.038 116-116V120c0-63.962-52.038-116-116-116H120z" fill="#D8DDE3" p-id="13132"></path><path d="M428 488h-136c-55.14 0-100-44.86-100-100v-96c0-55.14 44.86-100 100-100h96c55.14 0 100 44.86 100 100v136c0 33.084-26.916 60-60 60z m-136-236c-22.056 0-40 17.944-40 40v96c0 22.056 17.944 40 40 40h136a0.26 0.26 0 0 0 0.038-0.002L428 292c0-22.056-17.944-40-40-40h-96z" fill="#20263B" p-id="13133"></path><path d="M684 488c-81.608 0-148-66.392-148-148s66.392-148 148-148 148 66.392 148 148-66.392 148-148 148z m0-236c-48.524 0-88 39.476-88 88s39.476 88 88 88 88-39.476 88-88-39.476-88-88-88z" fill="#FF4B07" p-id="13134"></path><path d="M732 832h-96c-55.14 0-100-44.86-100-100v-136c0-33.084 26.916-60 60-60h136c55.14 0 100 44.86 100 100v96c0 55.14-44.86 100-100 100z m-136-236v136c0 22.056 17.944 40 40 40h96c22.056 0 40-17.944 40-40v-96c0-22.056-17.944-40-40-40h-136z" fill="#20263B" p-id="13135"></path><path d="M388 832h-96c-55.14 0-100-44.86-100-100v-96c0-55.14 44.86-100 100-100h136c33.084 0 60 26.916 60 60v136c0 55.14-44.86 100-100 100z m-96-236c-22.056 0-40 17.944-40 40v96c0 22.056 17.944 40 40 40h96c22.056 0 40-17.944 40-40v-136h-136z" fill="#20263B" p-id="13136"></path></svg>