<?xml version="1.0" standalone="no"?><!DOCTYPE svg PUBLIC "-//W3C//DTD SVG 1.1//EN" "http://www.w3.org/Graphics/SVG/1.1/DTD/svg11.dtd"><svg t="1668260299997" class="icon" viewBox="0 0 1024 1024" version="1.1" xmlns="http://www.w3.org/2000/svg" p-id="15757" xmlns:xlink="http://www.w3.org/1999/xlink" width="200" height="200"><path d="M904 1024H120c-66.168 0-120-53.832-120-120V120C0 53.832 53.832 0 120 0h784c66.168 0 120 53.832 120 120v784c0 66.168-53.832 120-120 120zM120 4C56.038 4 4 56.038 4 120v784c0 63.962 52.038 116 116 116h784c63.962 0 116-52.038 116-116V120c0-63.962-52.038-116-116-116H120z" fill="#D8DDE3" p-id="15758"></path><path d="M512 400C454.654 400 408 353.346 408 296S454.654 192 512 192s104 46.654 104 104-46.654 104-104 104z m0-148c-24.262 0-44 19.738-44 44s19.738 44 44 44 44-19.738 44-44-19.738-44-44-44z" fill="#20263B" p-id="15759"></path><path d="M512 832C462.374 832 422 791.626 422 742S462.374 652 512 652s90 40.374 90 90-40.374 90-90 90z m0-120c-16.542 0-30 13.458-30 30s13.458 30 30 30 30-13.458 30-30-13.458-30-30-30z" fill="#FF4B07" p-id="15760"></path><path d="M282 832C232.374 832 192 791.626 192 742S232.374 652 282 652s90 40.374 90 90-40.374 90-90 90z m0-120c-16.542 0-30 13.458-30 30s13.458 30 30 30 30-13.458 30-30-13.458-30-30-30z" fill="#20263B" p-id="15761"></path><path d="M742 832C692.374 832 652 791.626 652 742S692.374 652 742 652s90 40.374 90 90-40.374 90-90 90z m0-120c-16.542 0-30 13.458-30 30s13.458 30 30 30 30-13.458 30-30-13.458-30-30-30z" fill="#FF4B07" p-id="15762"></path><path d="M483 423h60v202h-60z" fill="#20263B" p-id="15763"></path><path d="M772 624h-60v-48c0-27.57-22.43-50-50-50H362c-27.57 0-50 22.43-50 50v48h-60v-48c0-60.654 49.346-110 110-110h300c60.654 0 110 49.346 110 110v48z" fill="#20263B" p-id="15764"></path></svg>