<?xml version="1.0" standalone="no"?><!DOCTYPE svg PUBLIC "-//W3C//DTD SVG 1.1//EN" "http://www.w3.org/Graphics/SVG/1.1/DTD/svg11.dtd"><svg t="1668259868981" class="icon" viewBox="0 0 1024 1024" version="1.1" xmlns="http://www.w3.org/2000/svg" p-id="3730" xmlns:xlink="http://www.w3.org/1999/xlink" width="200" height="200"><path d="M904 1024H120c-66.168 0-120-53.832-120-120V120C0 53.832 53.832 0 120 0h784c66.168 0 120 53.832 120 120v784c0 66.168-53.832 120-120 120zM120 4C56.038 4 4 56.038 4 120v784c0 63.962 52.038 116 116 116h784c63.962 0 116-52.038 116-116V120c0-63.962-52.038-116-116-116H120z" fill="#D8DDE3" p-id="3731"></path><path d="M362.076 832.006c-55.81 0-101.516-45.372-101.85-101.422L260 512.034l60-0.06 0.224 218.4c0.136 22.942 18.968 41.632 42.026 41.632l0.246-0.002h372.68v60H362.668l-0.592 0.002z" fill="#20263B" p-id="3732"></path><path d="M175.47400008 554.14l109.96-109.96 42.42599999 42.42599999-109.96 109.96000001z" fill="#20263B" p-id="3733"></path><path d="M242.16800007 486.6l42.426-42.426 109.96 109.96-42.426 42.426z" fill="#20263B" p-id="3734"></path><path d="M706.654 512.682l-0.224-218.4c-0.136-22.942-18.966-41.632-42.024-41.632H291.48v-60h372.504l0.598-0.002c55.806 0 101.514 45.374 101.848 101.422l0.224 218.548-60 0.064z" fill="#FF4B07" p-id="3735"></path><path d="M845.86999993 469.218l-109.96 109.96-42.426-42.426 109.96-109.96000001z" fill="#FF4B07" p-id="3736"></path><path d="M779.17399993 536.752l-42.426 42.426-109.96-109.96 42.426-42.42600001z" fill="#FF4B07" p-id="3737"></path></svg>