<?xml version="1.0" standalone="no"?><!DOCTYPE svg PUBLIC "-//W3C//DTD SVG 1.1//EN" "http://www.w3.org/Graphics/SVG/1.1/DTD/svg11.dtd"><svg t="1668260079917" class="icon" viewBox="0 0 1024 1024" version="1.1" xmlns="http://www.w3.org/2000/svg" p-id="9992" xmlns:xlink="http://www.w3.org/1999/xlink" width="200" height="200"><path d="M904 1024H120c-66.168 0-120-53.832-120-120V120C0 53.832 53.832 0 120 0h784c66.168 0 120 53.832 120 120v784c0 66.168-53.832 120-120 120zM120 4C56.038 4 4 56.038 4 120v784c0 63.962 52.038 116 116 116h784c63.962 0 116-52.038 116-116V120c0-63.962-52.038-116-116-116H120z" fill="#D8DDE3" p-id="9993"></path><path d="M402 192h220v60H402z" fill="#20263B" p-id="9994"></path><path d="M548 454h60v220h-60zM416 454h60v220h-60z" fill="#FF4B07" p-id="9995"></path><path d="M192 312h640v60H192z" fill="#20263B" p-id="9996"></path><path d="M319.666 372l45.902 380.82 0.432 3.576V760c0 6.618 5.382 12 12 12h268c6.618 0 12-5.382 12-12v-3.604l0.432-3.576L704.334 372H319.666M252 312h520l-54 448c0 39.764-32.234 72-72 72H378c-39.764 0-72-32.236-72-72l-54-448z" fill="#20263B" p-id="9997"></path></svg>