<?xml version="1.0" standalone="no"?><!DOCTYPE svg PUBLIC "-//W3C//DTD SVG 1.1//EN" "http://www.w3.org/Graphics/SVG/1.1/DTD/svg11.dtd"><svg t="1668260435613" class="icon" viewBox="0 0 1024 1024" version="1.1" xmlns="http://www.w3.org/2000/svg" p-id="18968" xmlns:xlink="http://www.w3.org/1999/xlink" width="200" height="200"><path d="M622 358H402c-33.084 0-60-26.916-60-60v-46c0-33.084 26.916-60 60-60h220c33.084 0 60 26.916 60 60v46c0 33.084-26.916 60-60 60z m-220-106v46h220a0.26 0.26 0 0 0 0.038-0.002L622 252H402z" fill="#FF4B07" p-id="18969"></path><path d="M904 1024H120c-66.168 0-120-53.832-120-120V120C0 53.832 53.832 0 120 0h784c66.168 0 120 53.832 120 120v784c0 66.168-53.832 120-120 120zM120 4C56.038 4 4 56.038 4 120v784c0 63.962 52.038 116 116 116h784c63.962 0 116-52.038 116-116V120c0-63.962-52.038-116-116-116H120z" fill="#D8DDE3" p-id="18970"></path><path d="M712 832H312c-66.168 0-120-53.832-120-120V378c0-44.112 35.888-80 80-80h500c33.084 0 60 26.916 60 60v354c0 66.168-53.832 120-120 120zM272 358c-11.028 0-20 8.972-20 20v334c0 33.084 26.916 60 60 60h400c33.084 0 60-26.916 60-60V358H272z" fill="#20263B" p-id="18971"></path><path d="M562 612h-100c-33.084 0-60-26.916-60-60v-40c0-33.084 26.916-60 60-60h100c33.084 0 60 26.916 60 60v40c0 33.084-26.916 60-60 60z m-100-100v40h100a0.26 0.26 0 0 0 0.038-0.002L562 512h-100z" fill="#FF4B07" p-id="18972"></path><path d="M712 512H312c-66.168 0-120-53.832-120-120v-14c0-44.112 35.888-80 80-80h500c33.084 0 60 26.916 60 60v34c0 66.168-53.832 120-120 120z m-440-154c-11.028 0-20 8.972-20 20v14c0 33.084 26.916 60 60 60h400c33.084 0 60-26.916 60-60v-34H272z" fill="#20263B" p-id="18973"></path></svg>