<?xml version="1.0" standalone="no"?><!DOCTYPE svg PUBLIC "-//W3C//DTD SVG 1.1//EN" "http://www.w3.org/Graphics/SVG/1.1/DTD/svg11.dtd"><svg t="1668260440147" class="icon" viewBox="0 0 1024 1024" version="1.1" xmlns="http://www.w3.org/2000/svg" p-id="19118" xmlns:xlink="http://www.w3.org/1999/xlink" width="200" height="200"><path d="M622 358H402c-33.084 0-60-26.916-60-60v-46c0-33.084 26.916-60 60-60h220c33.084 0 60 26.916 60 60v46c0 33.084-26.916 60-60 60z m-220-106v46h220a0.26 0.26 0 0 0 0.038-0.002L622 252H402z" fill="#FF4B07" p-id="19119"></path><path d="M904 1024H120c-66.168 0-120-53.832-120-120V120C0 53.832 53.832 0 120 0h784c66.168 0 120 53.832 120 120v784c0 66.168-53.832 120-120 120zM120 4C56.038 4 4 56.038 4 120v784c0 63.962 52.038 116 116 116h784c63.962 0 116-52.038 116-116V120c0-63.962-52.038-116-116-116H120z" fill="#D8DDE3" p-id="19120"></path><path d="M668 832H358c-66.168 0-120-53.832-120-120v-128c0-33.084 26.916-60 60-60h430c33.084 0 60 26.916 60 60v128c0 66.168-53.832 120-120 120zM298 584v128c0 33.084 26.916 60 60 60h310c33.084 0 60-26.916 60-60v-128H298z" fill="#20263B" p-id="19121"></path><path d="M772 584H252c-33.084 0-60-26.916-60-60v-166c0-33.084 26.916-60 60-60h520c33.084 0 60 26.916 60 60v166c0 33.084-26.916 60-60 60zM252 358v166h520a0.26 0.26 0 0 0 0.038-0.002L772 358H252z" fill="#20263B" p-id="19122"></path><path d="M610 732h-196c-16.568 0-30-13.432-30-30s13.432-30 30-30h196c16.568 0 30 13.432 30 30s-13.432 30-30 30zM378 612c-16.568 0-30-13.432-30-30v-69.71c0-16.568 13.432-30 30-30s30 13.432 30 30V582c0 16.568-13.432 30-30 30zM646 612c-16.568 0-30-13.432-30-30v-69.71c0-16.568 13.432-30 30-30s30 13.432 30 30V582c0 16.568-13.432 30-30 30z" fill="#FF4B07" p-id="19123"></path></svg>