<?xml version="1.0" standalone="no"?><!DOCTYPE svg PUBLIC "-//W3C//DTD SVG 1.1//EN" "http://www.w3.org/Graphics/SVG/1.1/DTD/svg11.dtd"><svg t="1668260379870" class="icon" viewBox="0 0 1024 1024" version="1.1" xmlns="http://www.w3.org/2000/svg" p-id="17704" xmlns:xlink="http://www.w3.org/1999/xlink" width="200" height="200"><path d="M904 1024H120c-66.168 0-120-53.832-120-120V120C0 53.832 53.832 0 120 0h784c66.168 0 120 53.832 120 120v784c0 66.168-53.832 120-120 120zM120 4C56.038 4 4 56.038 4 120v784c0 63.962 52.038 116 116 116h784c63.962 0 116-52.038 116-116V120c0-63.962-52.038-116-116-116H120z" fill="#D8DDE3" p-id="17705"></path><path d="M670 350h-60c0-54.038-43.962-98-98-98s-98 43.962-98 98h-60c0-87.122 70.878-158 158-158s158 70.878 158 158zM771.712 755.388l-44.862-263.312-0.85-5.002V482c0-11.028-8.972-20-20-20H320c-11.028 0-20 8.972-20 20v5.292l-0.926 5.21-46.762 263.032c1.674 9.35 9.866 16.466 19.688 16.466h480c9.874 0 18.098-7.192 19.712-16.612M832 752c0 44.184-35.816 80-80 80H272c-44.182 0-80-35.816-80-80l48-270c0-44.182 35.818-80 80-80h386c44.184 0 80 35.818 80 80l46 270z" fill="#20263B" p-id="17706"></path><path d="M399.37 512.628h240v60h-240z" fill="#FF4B07" p-id="17707"></path></svg>