<?xml version="1.0" standalone="no"?><!DOCTYPE svg PUBLIC "-//W3C//DTD SVG 1.1//EN" "http://www.w3.org/Graphics/SVG/1.1/DTD/svg11.dtd"><svg t="1668260306520" class="icon" viewBox="0 0 1024 1024" version="1.1" xmlns="http://www.w3.org/2000/svg" p-id="15994" xmlns:xlink="http://www.w3.org/1999/xlink" width="200" height="200"><path d="M232.876 477.424c-10.986-24.126-12.016-51.124-2.898-76.02l51.722-142.104c9.494-25.618 28.274-45.874 52.942-57.2 24.668-11.328 52.272-12.372 77.722-2.936l351.858 128.066c52.602 18.792 80.192 77.062 61.338 129.83l-56.5-20.188c7.72-21.612-3.58-45.478-25.192-53.2L391.68 255.486c-10.59-3.924-21.896-3.496-31.998 1.142a41.348 41.348 0 0 0-21.66 23.36l-51.682 141.998c-3.68 10.05-3.268 20.888 1.142 30.574l-54.606 24.864z" fill="#20263B" p-id="15995"></path><path d="M904 1024H120c-66.168 0-120-53.832-120-120V120C0 53.832 53.832 0 120 0h784c66.168 0 120 53.832 120 120v784c0 66.168-53.832 120-120 120zM120 4C56.038 4 4 56.038 4 120v784c0 63.962 52.038 116 116 116h784c63.962 0 116-52.038 116-116V120c0-63.962-52.038-116-116-116H120z" fill="#D8DDE3" p-id="15996"></path><path d="M752 832H272c-44.112 0-80-35.888-80-80V492c0-44.112 35.888-80 80-80h480c44.112 0 80 35.888 80 80v260c0 44.112-35.888 80-80 80zM272 472c-11.028 0-20 8.972-20 20v260c0 11.028 8.972 20 20 20h480c11.028 0 20-8.972 20-20V492c0-11.028-8.972-20-20-20H272z" fill="#20263B" p-id="15997"></path><path d="M710 572H314c-16.568 0-30-13.432-30-30s13.432-30 30-30h396c16.568 0 30 13.432 30 30s-13.432 30-30 30z" fill="#FF4B07" p-id="15998"></path></svg>