<?xml version="1.0" standalone="no"?><!DOCTYPE svg PUBLIC "-//W3C//DTD SVG 1.1//EN" "http://www.w3.org/Graphics/SVG/1.1/DTD/svg11.dtd"><svg t="1668260472704" class="icon" viewBox="0 0 1024 1024" version="1.1" xmlns="http://www.w3.org/2000/svg" p-id="20159" xmlns:xlink="http://www.w3.org/1999/xlink" width="200" height="200"><path d="M904 1024H120c-66.168 0-120-53.832-120-120V120C0 53.832 53.832 0 120 0h784c66.168 0 120 53.832 120 120v784c0 66.168-53.832 120-120 120zM120 4C56.038 4 4 56.038 4 120v784c0 63.962 52.038 116 116 116h784c63.962 0 116-52.038 116-116V120c0-63.962-52.038-116-116-116H120z" fill="#D8DDE3" p-id="20160"></path><path d="M672.026 590.006c-10.87 0-21.358-5.924-26.686-16.248-0.322-0.626-32.498-62.908-56.16-103.004l-11.27-19.096 14.948-16.376c40.696-44.586 37.532-113.966-7.054-154.662-21.598-19.714-49.58-29.834-78.792-28.504-29.212 1.334-56.156 13.96-75.87 35.56-38.268 41.926-38.38 105.26-0.258 147.322l14.266 15.74-10.11 18.684c-18.134 33.512-56.546 103.99-56.932 104.7-7.93 14.546-26.154 19.908-40.7 11.984-14.548-7.93-19.914-26.15-11.984-40.7 0.328-0.6 28-51.372 47.428-87.166-19.738-28.348-30.388-62.108-30.328-97.058a169.128 169.128 0 0 1 44.3-113.956c30.518-33.436 72.23-52.986 117.452-55.048 45.24-2.05 88.542 13.61 121.976 44.126 63.408 57.876 72.702 153.232 24.944 221.874 22.324 39.398 46.3 85.81 47.464 88.064 7.598 14.724 1.82 32.818-12.902 40.416a29.858 29.858 0 0 1-13.732 3.348z" fill="#20263B" p-id="20161"></path><path d="M747.58 832.15H276.386c-46.39 0.004-84.188-37.736-84.248-84.174v-133.764h60v133.724c0.018 13.34 10.91 24.212 24.284 24.212H747.544c13.41 0 24.298-10.874 24.316-24.252v-133.686c-0.018-13.34-10.908-24.212-24.284-24.212H672v-60h75.612c46.39 0 84.188 37.736 84.248 84.174v133.764c-0.062 46.474-37.86 84.212-84.28 84.214z" fill="#20263B" p-id="20162"></path><path d="M252 614.252l-60-0.078C192.06 567.74 229.86 530 276.282 530h75.58v60h-75.544c-13.41 0-24.3 10.874-24.318 24.252z" fill="#20263B" p-id="20163"></path><path d="M353 643h320v60h-320z" fill="#FF4B07" p-id="20164"></path></svg>