<?xml version="1.0" standalone="no"?><!DOCTYPE svg PUBLIC "-//W3C//DTD SVG 1.1//EN" "http://www.w3.org/Graphics/SVG/1.1/DTD/svg11.dtd"><svg t="1668260497987" class="icon" viewBox="0 0 1024 1024" version="1.1" xmlns="http://www.w3.org/2000/svg" p-id="20899" xmlns:xlink="http://www.w3.org/1999/xlink" width="200" height="200"><path d="M904 1024H120c-66.168 0-120-53.832-120-120V120C0 53.832 53.832 0 120 0h784c66.168 0 120 53.832 120 120v784c0 66.168-53.832 120-120 120zM120 4C56.038 4 4 56.038 4 120v784c0 63.962 52.038 116 116 116h784c63.962 0 116-52.038 116-116V120c0-63.962-52.038-116-116-116H120z" fill="#D8DDE3" p-id="20900"></path><path d="M722 771.998c11.028 0 20-8.97 20-19.998V338c0-11.028-8.972-20-20-20H608.442l-8.75-49.57c-1.68-9.52-9.96-16.43-19.692-16.43h-136c-9.732 0-18.014 6.91-19.694 16.43L415.556 318H302c-11.028 0-20 8.972-20 20v414c0 11.028 8.972 19.998 20 19.998h420m0 60H302c-44.184 0-80-35.814-80-79.998V338c0-44.182 35.818-80 80-80h63.218c6.62-37.506 39.374-66 78.782-66h136c39.406 0 72.16 28.494 78.78 66H722c44.182 0 80 35.818 80 80v414c0 44.184-35.818 79.998-80 79.998z" fill="#20263B" p-id="20901"></path><path d="M648.3 481.99l0.1 60-272.13 0.462-0.1-60z" fill="#FF4B07" p-id="20902"></path><path d="M580 394h-136c-44.112 0-80-35.888-80-80v-42c0-44.112 35.888-80 80-80h136c44.112 0 80 35.888 80 80v42c0 44.112-35.888 80-80 80z m-136-142c-11.028 0-20 8.972-20 20v42c0 11.028 8.972 20 20 20h136c11.028 0 20-8.972 20-20v-42c0-11.028-8.972-20-20-20h-136z" fill="#20263B" p-id="20903"></path></svg>