<?xml version="1.0" standalone="no"?><!DOCTYPE svg PUBLIC "-//W3C//DTD SVG 1.1//EN" "http://www.w3.org/Graphics/SVG/1.1/DTD/svg11.dtd"><svg t="1668259955333" class="icon" viewBox="0 0 1024 1024" version="1.1" xmlns="http://www.w3.org/2000/svg" p-id="6473" xmlns:xlink="http://www.w3.org/1999/xlink" width="200" height="200"><path d="M904 1024H120c-66.168 0-120-53.832-120-120V120C0 53.832 53.832 0 120 0h784c66.168 0 120 53.832 120 120v784c0 66.168-53.832 120-120 120zM120 4C56.038 4 4 56.038 4 120v784c0 63.962 52.038 116 116 116h784c63.962 0 116-52.038 116-116V120c0-63.962-52.038-116-116-116H120z" fill="#D8DDE3" p-id="6474"></path><path d="M832 512c0 176.45-143.55 320-320 320-176.448 0-320-143.55-320-320S335.552 192 512 192c176.45 0 320 143.55 320 320z m-60 0c0-143.366-116.632-260-260-260-143.364 0-260 116.634-260 260 0 143.364 116.636 260 260 260 143.368 0 260-116.636 260-260z" fill="#20263B" p-id="6475"></path><path d="M614.314 602.988l-143.54-143.54L513.2 417.02l143.54 143.54z" fill="#FF4B07" p-id="6476"></path><path d="M411.21 602.99l-42.426-42.426 143.538-143.54 42.426 42.428z" fill="#FF4B07" p-id="6477"></path></svg>