<?xml version="1.0" standalone="no"?><!DOCTYPE svg PUBLIC "-//W3C//DTD SVG 1.1//EN" "http://www.w3.org/Graphics/SVG/1.1/DTD/svg11.dtd"><svg t="1668259910952" class="icon" viewBox="0 0 1024 1024" version="1.1" xmlns="http://www.w3.org/2000/svg" p-id="5013" xmlns:xlink="http://www.w3.org/1999/xlink" width="200" height="200"><path d="M904 1024H120c-66.168 0-120-53.832-120-120V120C0 53.832 53.832 0 120 0h784c66.168 0 120 53.832 120 120v784c0 66.168-53.832 120-120 120zM120 4C56.038 4 4 56.038 4 120v784c0 63.962 52.038 116 116 116h784c63.962 0 116-52.038 116-116V120c0-63.962-52.038-116-116-116H120z" fill="#D8DDE3" p-id="5014"></path><path d="M192 722h640v60H192z" fill="#20263B" p-id="5015"></path><path d="M482 672h60v160h-60zM772 672h60v160h-60zM192 672h60v160H192z" fill="#20263B" p-id="5016"></path><path d="M318.48 474.958a196.636 196.636 0 0 1 4.182-40.552c13.916-66.196 62.268-121.028 126.188-143.11l19.592 56.71c-44.102 15.236-77.46 53.068-87.06 98.73a136.564 136.564 0 0 0-2.902 28.146l-60 0.076zM705.896 474.954l-60-0.07a136.586 136.586 0 0 0-2.904-28.158 132.482 132.482 0 0 0-5.942-20.188 132.264 132.264 0 0 0-11.396-22.916 132.992 132.992 0 0 0-18.708-23.598 132.9 132.9 0 0 0-25.796-20.236 132.2 132.2 0 0 0-25.19-11.772l19.536-56.73a192.34 192.34 0 0 1 36.602 17.098 192.714 192.714 0 0 1 37.376 29.314 192.89 192.89 0 0 1 27.088 34.168 192.294 192.294 0 0 1 16.53 33.238 192.382 192.382 0 0 1 8.624 29.314 196.738 196.738 0 0 1 4.18 40.536z" fill="#FF4B07" p-id="5017"></path><path d="M220 631.736v-60c54.302 0 98.48-44.178 98.48-98.48h60c0 87.386-71.094 158.48-158.48 158.48zM804.48 631.736c-87.386 0-158.48-71.094-158.48-158.48h60c0 54.302 44.178 98.48 98.48 98.48v60z" fill="#FF4B07" p-id="5018"></path><path d="M513 382C460.618 382 418 339.382 418 287S460.618 192 513 192 608 234.618 608 287 565.382 382 513 382z m0-130C493.702 252 478 267.702 478 287S493.702 322 513 322 548 306.298 548 287 532.298 252 513 252z" fill="#20263B" p-id="5019"></path></svg>