<?xml version="1.0" standalone="no"?><!DOCTYPE svg PUBLIC "-//W3C//DTD SVG 1.1//EN" "http://www.w3.org/Graphics/SVG/1.1/DTD/svg11.dtd"><svg t="1668260104246" class="icon" viewBox="0 0 1024 1024" version="1.1" xmlns="http://www.w3.org/2000/svg" p-id="10733" xmlns:xlink="http://www.w3.org/1999/xlink" width="200" height="200"><path d="M904 1024H120c-66.168 0-120-53.832-120-120V120C0 53.832 53.832 0 120 0h784c66.168 0 120 53.832 120 120v784c0 66.168-53.832 120-120 120zM120 4C56.038 4 4 56.038 4 120v784c0 63.962 52.038 116 116 116h784c63.962 0 116-52.038 116-116V120c0-63.962-52.038-116-116-116H120z" fill="#D8DDE3" p-id="10734"></path><path d="M223.874 772.086c-16.568 0-30-13.432-30-30V512c0-176.448 143.552-320 320-320 85.424 0 165.726 33.25 226.128 93.624 60.376 60.35 93.718 140.678 93.894 226.192v0.136l-0.142 226.718-60-0.04 0.142-226.638C773.636 368.626 657.006 252 513.886 252c-143.376 0-260.012 116.636-260.012 260v230.086c0 16.568-13.432 30-30 30z" fill="#20263B" p-id="10735"></path><path d="M304 832h-16c-51.832 0-94-42.168-94-94v-154c0-33.084 26.916-60 60-60h50c51.832 0 94 42.168 94 94v120c0 51.832-42.168 94-94 94z m-50-248v154c0 18.748 15.252 34 34 34h16c18.748 0 34-15.252 34-34v-120c0-18.748-15.252-34-34-34h-50z" fill="#20263B" p-id="10736"></path><path d="M740 832h-16c-51.832 0-94-42.168-94-94v-120c0-51.832 42.168-94 94-94h50c33.084 0 60 26.916 60 60v154c0 51.832-42.168 94-94 94z m-16-248c-18.748 0-34 15.252-34 34v120c0 18.748 15.252 34 34 34h16c18.748 0 34-15.252 34-34v-154h-50z" fill="#20263B" p-id="10737"></path><path d="M564 770.084c-15.464 0-28-12.536-28-28v-140.17c0-15.464 12.536-28 28-28s28 12.536 28 28v140.17c0 15.464-12.536 28-28 28zM460 741.462c-15.464 0-28-12.536-28-28V630.54c0-15.464 12.536-28 28-28s28 12.536 28 28v82.924c0 15.464-12.536 27.998-28 27.998z" fill="#FF4B07" p-id="10738"></path></svg>