<?xml version="1.0" standalone="no"?><!DOCTYPE svg PUBLIC "-//W3C//DTD SVG 1.1//EN" "http://www.w3.org/Graphics/SVG/1.1/DTD/svg11.dtd"><svg t="1668260520387" class="icon" viewBox="0 0 1024 1024" version="1.1" xmlns="http://www.w3.org/2000/svg" p-id="21636" xmlns:xlink="http://www.w3.org/1999/xlink" width="200" height="200"><path d="M904 1024H120c-66.168 0-120-53.832-120-120V120C0 53.832 53.832 0 120 0h784c66.168 0 120 53.832 120 120v784c0 66.168-53.832 120-120 120zM120 4C56.038 4 4 56.038 4 120v784c0 63.962 52.038 116 116 116h784c63.962 0 116-52.038 116-116V120c0-63.962-52.038-116-116-116H120z" fill="#D8DDE3" p-id="21637"></path><path d="M672 832H352c-16.568 0-30-13.432-30-30s13.432-30 30-30h320c16.568 0 30 13.432 30 30s-13.432 30-30 30zM434.22 342.352a30.16 30.16 0 0 1-5.254-0.462l-208.624-36.854c-16.316-2.882-27.206-18.446-24.324-34.762s18.448-27.2 34.762-24.324l208.624 36.854c16.316 2.882 27.206 18.446 24.324 34.762-2.57 14.55-15.228 24.786-29.508 24.786z" fill="#20263A" p-id="21638"></path><path d="M512 832c-16.568 0-30-13.432-30-30V394.678c0-16.568 13.432-30 30-30s30 13.432 30 30V802c0 16.568-13.432 30-30 30z" fill="#20263A" p-id="21639"></path><path d="M512 422C459.066 422 416 378.934 416 326S459.066 230 512 230c52.936 0 96 43.066 96 96S564.936 422 512 422z m0-132c-19.85 0-36 16.15-36 36s16.15 36 36 36 36-16.15 36-36-16.15-36-36-36z" fill="#20263A" p-id="21640"></path><path d="M798.516 406.588a30.18 30.18 0 0 1-5.254-0.462l-218.918-38.672c-16.316-2.882-27.206-18.446-24.324-34.762 2.882-16.316 18.442-27.204 34.762-24.324L803.7 347.04c16.316 2.882 27.206 18.446 24.324 34.762-2.57 14.55-15.228 24.786-29.508 24.786z" fill="#20263A" p-id="21641"></path><path d="M350.04 586H222a30 30 0 0 1-27.854-41.142l64-160a30 30 0 0 1 55.708 0l63.4 158.5A29.886 29.886 0 0 1 380.04 556c0 16.568-13.432 30-30 30z m-83.73-60h39.378L286 476.778 266.31 526zM802.04 674a0.134 0.134 0 0 0-0.04 0h-128a29.996 29.996 0 0 1-27.854-41.142l64-160a30 30 0 0 1 55.708 0l63.4 158.5A29.886 29.886 0 0 1 832.04 644c0 16.568-13.43 30-30 30z m-83.73-60h39.378L738 564.778 718.31 614z" fill="#FF4B07" p-id="21642"></path></svg>