<?xml version="1.0" standalone="no"?><!DOCTYPE svg PUBLIC "-//W3C//DTD SVG 1.1//EN" "http://www.w3.org/Graphics/SVG/1.1/DTD/svg11.dtd"><svg t="1668260459281" class="icon" viewBox="0 0 1024 1024" version="1.1" xmlns="http://www.w3.org/2000/svg" p-id="19718" xmlns:xlink="http://www.w3.org/1999/xlink" width="200" height="200"><path d="M904 1024H120c-66.168 0-120-53.832-120-120V120C0 53.832 53.832 0 120 0h784c66.168 0 120 53.832 120 120v784c0 66.168-53.832 120-120 120zM120 4C56.038 4 4 56.038 4 120v784c0 63.962 52.038 116 116 116h784c63.962 0 116-52.038 116-116V120c0-63.962-52.038-116-116-116H120z" fill="#D8DDE3" p-id="19719"></path><path d="M691.184 872.608c-5.59 0-11.146-1.396-16.072-4.04v-0.002l-163.93-86.972-164.056 87.042a34.224 34.224 0 0 1-15.92 3.958 33.912 33.912 0 0 1-30.09-18.162 34.142 34.142 0 0 1-3.372-21.898l32.966-180.61-134.084-126.96c-13.614-12.892-14.2-34.454-1.308-48.066a34.104 34.104 0 0 1 20.172-10.32c45.244-6.104 81.46-11.028 109.688-14.908V190c0-22.056 17.944-40 40-40h292c22.056 0 40 17.944 40 40v261.662c28.198 3.876 64.416 8.798 109.72 14.912a33.784 33.784 0 0 1 22.496 13.082 33.764 33.764 0 0 1 6.652 25.178 34.058 34.058 0 0 1-10.332 20.136l-134.058 126.952 32.958 180.572c1.652 8.754-0.244 17.8-5.372 25.302a33.77 33.77 0 0 1-21.768 14.222 33.94 33.94 0 0 1-6.29 0.59zM511.18 718.16c5.548 0 11.07 1.376 15.966 3.982l128.81 68.34-25.852-141.646a33.86 33.86 0 0 1 10.076-30.8l104.846-99.286c-34.132-4.632-61.2-8.344-81.984-11.236l-25.864-3.6V210h-252v293.922l-25.866 3.6a25238.144 25238.144 0 0 1-81.978 11.234l104.856 99.288a33.882 33.882 0 0 1 10.07 30.802l-25.852 141.634 128.834-68.356a34.154 34.154 0 0 1 15.938-3.964z" fill="#20263B" p-id="19720"></path><path d="M805.602 526.844c-1.33 0-2.678-0.09-4.034-0.272-48.476-6.516-200.654-27.662-202.186-27.874-11.308-1.526-21.09-8.662-26.042-19.076l-61.578-129.454-63.586 130.374c-4.83 10.068-14.476 17.152-25.722 18.772l-0.28 0.04-200.488 26.966c-16.408 2.208-31.522-9.312-33.732-25.734-2.208-16.42 9.312-31.522 25.734-33.732l186.656-25.104 81.758-167.632c5.666-11.772 17.236-19.18 30.052-19.122 12.84 0.032 24.338 7.464 30.008 19.396l79.342 166.8c38.96 5.408 148.4 20.584 188.056 25.914 16.422 2.208 27.944 17.308 25.736 33.728-2.024 15.066-14.902 26.01-29.694 26.01zM430.214 529.78l66 66-42.428 42.424-66-66z" fill="#FF4B07" p-id="19721"></path></svg>