<?xml version="1.0" standalone="no"?><!DOCTYPE svg PUBLIC "-//W3C//DTD SVG 1.1//EN" "http://www.w3.org/Graphics/SVG/1.1/DTD/svg11.dtd"><svg t="1668260388916" class="icon" viewBox="0 0 1024 1024" version="1.1" xmlns="http://www.w3.org/2000/svg" p-id="17998" xmlns:xlink="http://www.w3.org/1999/xlink" width="200" height="200"><path d="M512 746.784l130.11-203.068 1.93-5.792 5.696-7.682c22.418-30.246 34.266-66.292 34.266-104.242 0-95.944-77.158-174-172-174-94.84 0-172 78.056-172 174 0 37.952 11.85 73.998 34.266 104.242l5.694 7.682 1.93 5.792L512 746.784m0 83.9c-10.324 0-20.65-4.912-26.944-14.736l-155.492-242.684a32.568 32.568 0 0 1-3.5-7.294C297.132 526.936 280 478.488 280 426.002c0-129.234 103.87-234 232-234s232 104.766 232 234c0 52.486-17.13 100.936-46.062 139.968a32.624 32.624 0 0 1-3.502 7.294l-155.49 242.684c-6.298 9.824-16.622 14.736-26.946 14.736z" fill="#20263B" p-id="17999"></path><path d="M904 1024H120c-66.168 0-120-53.832-120-120V120C0 53.832 53.832 0 120 0h784c66.168 0 120 53.832 120 120v784c0 66.168-53.832 120-120 120zM120 4C56.038 4 4 56.038 4 120v784c0 63.962 52.038 116 116 116h784c63.962 0 116-52.038 116-116V120c0-63.962-52.038-116-116-116H120z" fill="#D8DDE3" p-id="18000"></path><path d="M300 772h424v60H300z" fill="#20263B" p-id="18001"></path><path d="M512 516C461.272 516 420 474.728 420 424S461.272 332 512 332s92 41.272 92 92-41.272 92-92 92z m0-144c-28.672 0-52 23.328-52 52s23.328 52 52 52c28.674 0 52-23.328 52-52S540.674 372 512 372z" fill="#FF4B07" p-id="18002"></path></svg>