<?xml version="1.0" standalone="no"?><!DOCTYPE svg PUBLIC "-//W3C//DTD SVG 1.1//EN" "http://www.w3.org/Graphics/SVG/1.1/DTD/svg11.dtd"><svg t="1668260147202" class="icon" viewBox="0 0 1024 1024" version="1.1" xmlns="http://www.w3.org/2000/svg" p-id="11999" xmlns:xlink="http://www.w3.org/1999/xlink" width="200" height="200"><path d="M904 1024H120c-66.168 0-120-53.832-120-120V120C0 53.832 53.832 0 120 0h784c66.168 0 120 53.832 120 120v784c0 66.168-53.832 120-120 120zM120 4C56.038 4 4 56.038 4 120v784c0 63.962 52.038 116 116 116h784c63.962 0 116-52.038 116-116V120c0-63.962-52.038-116-116-116H120z" fill="#D8DDE3" p-id="12000"></path><path d="M312 494.664h-60v-54.91c0-135.61 116.816-245.938 260.4-245.938 143.586 0 260.4 110.328 260.4 245.938v54.538h-60v-54.538c0-102.526-89.898-185.938-200.4-185.938-110.5 0-200.4 83.412-200.4 185.938v54.91zM292 832h-20c-44.112 0-80-35.888-80-80v-80c0-44.112 35.888-80 80-80h20c44.112 0 80 35.888 80 80v80c0 44.112-35.888 80-80 80z m-20-188c-15.44 0-28 12.56-28 28v80c0 15.44 12.56 28 28 28h20c15.44 0 28-12.56 28-28v-80c0-15.44-12.56-28-28-28h-20zM752 832h-20c-44.114 0-80-35.888-80-80v-80c0-44.112 35.886-80 80-80h20c44.114 0 80 35.888 80 80v80c0 44.112-35.886 80-80 80z m-20-188c-15.44 0-28 12.56-28 28v80c0 15.44 12.56 28 28 28h20c15.44 0 28-12.56 28-28v-80c0-15.44-12.56-28-28-28h-20z" fill="#20263B" p-id="12001"></path><path d="M440 792m-40 0a40 40 0 1 0 80 0 40 40 0 1 0-80 0Z" fill="#FF4B07" p-id="12002"></path><path d="M440 832C417.944 832 400 814.056 400 792S417.944 752 440 752s40 17.944 40 40-17.944 40-40 40z m0-78C419.046 754 402 771.046 402 792s17.046 38 38 38 38-17.046 38-38S460.954 754 440 754z" fill="#FF4B07" p-id="12003"></path></svg>