<?xml version="1.0" standalone="no"?><!DOCTYPE svg PUBLIC "-//W3C//DTD SVG 1.1//EN" "http://www.w3.org/Graphics/SVG/1.1/DTD/svg11.dtd"><svg t="1668260284448" class="icon" viewBox="0 0 1024 1024" version="1.1" xmlns="http://www.w3.org/2000/svg" p-id="15311" xmlns:xlink="http://www.w3.org/1999/xlink" width="200" height="200"><path d="M904 1024H120c-66.168 0-120-53.832-120-120V120C0 53.832 53.832 0 120 0h784c66.168 0 120 53.832 120 120v784c0 66.168-53.832 120-120 120zM120 4C56.038 4 4 56.038 4 120v784c0 63.962 52.038 116 116 116h784c63.962 0 116-52.038 116-116V120c0-63.962-52.038-116-116-116H120z" fill="#D8DDE3" p-id="15312"></path><path d="M682 832H342c-60.654 0-110-49.346-110-110v-163.582h60V722c0 27.57 22.43 50 50 50h340c27.57 0 50-22.43 50-50v-163.582h60V722c0 60.654-49.346 110-110 110zM774.28 436.07L742 305.658V302c0-25.234-29.718-50-60-50H342V192h340c28.69 0 58.224 11.156 81.034 30.604 23.632 20.154 37.648 47.43 38.878 75.38l30.61 123.668-58.242 14.418z" fill="#20263B" p-id="15313"></path><path d="M251.122 436.07l-58.242-14.416 30.61-123.668c1.23-27.952 15.244-55.228 38.876-75.38C285.174 203.156 314.71 192 343.4 192h340v60h-340c-30.28 0-60 24.766-60 50v3.658l-32.278 130.412z" fill="#20263B" p-id="15314"></path><path d="M319.198 547.116l-0.592-0.002c-69.08-0.316-125.534-56.772-125.85-125.85l60-0.274c0.166 36.294 29.828 65.958 66.124 66.124h0.31c17.626 0 34.216-6.826 46.746-19.244 12.604-12.49 19.588-29.138 19.668-46.882l60 0.274c-0.154 33.768-13.448 65.458-37.436 89.228-23.844 23.632-55.422 36.626-88.97 36.626z" fill="#20263B" p-id="15315"></path><path d="M512.046 547.116l-0.592-0.002c-69.08-0.316-125.534-56.772-125.85-125.85l60-0.274c0.166 36.294 29.828 65.958 66.124 66.124h0.31c17.626 0 34.216-6.826 46.748-19.244 12.604-12.49 19.59-29.138 19.67-46.882l60 0.274c-0.154 33.768-13.45 65.458-37.438 89.228-23.844 23.632-55.422 36.626-88.972 36.626z" fill="#20263B" p-id="15316"></path><path d="M704.896 547.116l-0.592-0.002c-69.078-0.316-125.534-56.772-125.848-125.852l60-0.272c0.164 36.294 29.826 65.958 66.122 66.124h0.31c17.626 0 34.216-6.826 46.748-19.244 12.602-12.49 19.588-29.138 19.668-46.882l60 0.274c-0.154 33.768-13.45 65.458-37.436 89.228-23.844 23.632-55.422 36.626-88.972 36.626z" fill="#20263B" p-id="15317"></path><path d="M375 303h276v60h-276z" fill="#FF4B07" p-id="15318"></path></svg>