<?xml version="1.0" standalone="no"?><!DOCTYPE svg PUBLIC "-//W3C//DTD SVG 1.1//EN" "http://www.w3.org/Graphics/SVG/1.1/DTD/svg11.dtd"><svg t="1668259945683" class="icon" viewBox="0 0 1024 1024" version="1.1" xmlns="http://www.w3.org/2000/svg" p-id="6180" xmlns:xlink="http://www.w3.org/1999/xlink" width="200" height="200"><path d="M904 1024H120c-66.168 0-120-53.832-120-120V120C0 53.832 53.832 0 120 0h784c66.168 0 120 53.832 120 120v784c0 66.168-53.832 120-120 120zM120 4C56.038 4 4 56.038 4 120v784c0 63.962 52.038 116 116 116h784c63.962 0 116-52.038 116-116V120c0-63.962-52.038-116-116-116H120z" fill="#D8DDE3" p-id="6181"></path><path d="M512 832C335.552 832 192 688.45 192 512 192 335.552 335.552 192 512 192c176.45 0 320 143.552 320 320 0 176.45-143.55 320-320 320z m0-580C368.636 252 252 368.636 252 512c0 143.366 116.636 260 260 260 143.366 0 260-116.634 260-260 0-143.364-116.634-260-260-260z" fill="#20263B" p-id="6182"></path><path d="M474 575.918v-127.836L584.206 512 474 575.918z" fill="#FF4B07" p-id="6183"></path><path d="M524.41 512L504 500.162v23.676L524.41 512m99.726 0c0 6.722-3.32 13.448-9.964 17.3l-140.138 81.28c-13.334 7.732-30.034-1.886-30.034-17.3v-162.56c0-15.414 16.702-25.034 30.034-17.3l140.138 81.28c6.644 3.852 9.964 10.576 9.964 17.3z" fill="#FF4B07" p-id="6184"></path></svg>