<?xml version="1.0" standalone="no"?><!DOCTYPE svg PUBLIC "-//W3C//DTD SVG 1.1//EN" "http://www.w3.org/Graphics/SVG/1.1/DTD/svg11.dtd"><svg t="1668260090021" class="icon" viewBox="0 0 1024 1024" version="1.1" xmlns="http://www.w3.org/2000/svg" p-id="10286" xmlns:xlink="http://www.w3.org/1999/xlink" width="200" height="200"><path d="M904 1024H120c-66.168 0-120-53.832-120-120V120C0 53.832 53.832 0 120 0h784c66.168 0 120 53.832 120 120v784c0 66.168-53.832 120-120 120zM120 4C56.038 4 4 56.038 4 120v784c0 63.962 52.038 116 116 116h784c63.962 0 116-52.038 116-116V120c0-63.962-52.038-116-116-116H120z" fill="#D8DDE3" p-id="10287"></path><path d="M252 192h60v580h-60z" fill="#20263B" p-id="10288"></path><path d="M252 712h580v60H252z" fill="#20263B" p-id="10289"></path><path d="M712 252h60v580h-60z" fill="#20263B" p-id="10290"></path><path d="M192 252h580v60H192z" fill="#20263B" p-id="10291"></path><path d="M790.784 190.782l42.426 42.426-538.996 538.996-42.426-42.426z" fill="#FF4B07" p-id="10292"></path></svg>