<?xml version="1.0" standalone="no"?><!DOCTYPE svg PUBLIC "-//W3C//DTD SVG 1.1//EN" "http://www.w3.org/Graphics/SVG/1.1/DTD/svg11.dtd"><svg t="1668260252055" class="icon" viewBox="0 0 1024 1024" version="1.1" xmlns="http://www.w3.org/2000/svg" p-id="14418" xmlns:xlink="http://www.w3.org/1999/xlink" width="200" height="200"><path d="M904 1024H120c-66.168 0-120-53.832-120-120V120C0 53.832 53.832 0 120 0h784c66.168 0 120 53.832 120 120v784c0 66.168-53.832 120-120 120zM120 4C56.038 4 4 56.038 4 120v784c0 63.962 52.038 116 116 116h784c63.962 0 116-52.038 116-116V120c0-63.962-52.038-116-116-116H120z" fill="#D8DDE3" p-id="14419"></path><path d="M192 776h640v56H192z" fill="#20263B" p-id="14420"></path><path d="M542 832h-60V275.936l-180 114.508V832h-60V373.972a30 30 0 0 1 13.898-25.312l240-152.676A30.004 30.004 0 0 1 542 221.296V832zM752 833.542c-16.568 0-30-13.432-30-30V524.426l-151.212-151.212c-11.716-11.716-11.716-30.71 0-42.426 11.714-11.716 30.71-11.716 42.426 0l160 160A29.998 29.998 0 0 1 782 512v291.542c0 16.57-13.432 30-30 30z" fill="#20263B" p-id="14421"></path><path d="M443.092 406.56l31.8 50.88-128 80-31.8-50.88zM443.086 522.556l31.8 50.88-128 80-31.8-50.88z" fill="#FF4B07" p-id="14422"></path></svg>