<?xml version="1.0" standalone="no"?><!DOCTYPE svg PUBLIC "-//W3C//DTD SVG 1.1//EN" "http://www.w3.org/Graphics/SVG/1.1/DTD/svg11.dtd"><svg t="1668259845003" class="icon" viewBox="0 0 1024 1024" version="1.1" xmlns="http://www.w3.org/2000/svg" p-id="2970" xmlns:xlink="http://www.w3.org/1999/xlink" width="200" height="200"><path d="M904 1024H120c-66.168 0-120-53.832-120-120V120C0 53.832 53.832 0 120 0h784c66.168 0 120 53.832 120 120v784c0 66.168-53.832 120-120 120zM120 4C56.038 4 4 56.038 4 120v784c0 63.962 52.038 116 116 116h784c63.962 0 116-52.038 116-116V120c0-63.962-52.038-116-116-116H120z" fill="#D8DDE3" p-id="2971"></path><path d="M752.102 646H642c-16.568 0-30-13.432-30-30v-52c-0.006-5.494-4.506-9.994-10.032-10H422c-5.492 0.006-9.994 4.508-10 10.036V616c0 16.568-13.432 30-30 30h-110c-10.82 0-21.272-2.12-31.154-6.3a79.462 79.462 0 0 1-25.444-17.162 79.37 79.37 0 0 1-17.108-25.402A79.214 79.214 0 0 1 192 565.948V392a79.214 79.214 0 0 1 6.298-31.15 79.462 79.462 0 0 1 17.16-25.448 79.374 79.374 0 0 1 25.402-17.11A79.256 79.256 0 0 1 271.9 312H752a79.38 79.38 0 0 1 31.154 6.302 79.414 79.414 0 0 1 25.448 17.166 79.42 79.42 0 0 1 17.102 25.39A79.24 79.24 0 0 1 832 392.052V566a79.25 79.25 0 0 1-6.296 31.146 79.448 79.448 0 0 1-17.162 25.448 79.37 79.37 0 0 1-25.402 17.112A79.256 79.256 0 0 1 752.102 646zM672 586h80l0.102 30v-30a19.606 19.606 0 0 0 7.674-1.558 19.782 19.782 0 0 0 6.336-4.27 19.912 19.912 0 0 0 4.326-6.384 19.68 19.68 0 0 0 1.562-7.734V392a19.832 19.832 0 0 0-5.832-14.114 19.85 19.85 0 0 0-14.074-5.888H272a19.724 19.724 0 0 0-7.774 1.556 19.77 19.77 0 0 0-6.338 4.27A19.85 19.85 0 0 0 252 391.94V566a19.69 19.69 0 0 0 1.558 7.768 19.76 19.76 0 0 0 4.274 6.346 19.858 19.858 0 0 0 14.082 5.886H352v-22c0.044-38.568 31.43-69.956 69.966-70H602c38.572 0.042 69.958 31.428 70 69.968V586z" fill="#20263B" p-id="2972"></path><path d="M612 372H412c-33.084 0-60-26.916-60-60v-60c0-33.084 26.916-60 60-60h200c33.084 0 60 26.916 60 60v60c0 33.084-26.916 60-60 60z m-200-120v60h200a0.26 0.26 0 0 0 0.038-0.002L612 252H412zM390.862 831.562c-55.114-0.324-99.546-45.284-99.222-100.222v-91.426h60v91.6c-0.128 22.034 17.546 39.92 39.4 40.048h242.098c21.676-0.128 39.35-18.014 39.222-39.868V639.92h60v91.6c0.318 54.762-44.114 99.716-99.046 100.042H390.862z" fill="#20263B" p-id="2973"></path><path d="M604 726h-182c-16.568 0-30-13.432-30-30s13.432-30 30-30h182c16.568 0 30 13.432 30 30s-13.432 30-30 30zM728 458h-32c-16.568 0-30-13.432-30-30s13.432-30 30-30h32c16.568 0 30 13.432 30 30s-13.432 30-30 30z" fill="#FF4B07" p-id="2974"></path></svg>