<?xml version="1.0" standalone="no"?><!DOCTYPE svg PUBLIC "-//W3C//DTD SVG 1.1//EN" "http://www.w3.org/Graphics/SVG/1.1/DTD/svg11.dtd"><svg t="1668259824401" class="icon" viewBox="0 0 1024 1024" version="1.1" xmlns="http://www.w3.org/2000/svg" p-id="2621" xmlns:xlink="http://www.w3.org/1999/xlink" width="200" height="200"><path d="M674 400H350c-33.084 0-60-26.916-60-60v-68c0-44.112 35.888-80 80-80h284c44.112 0 80 35.888 80 80v68c0 33.084-26.916 60-60 60z m-304-148c-11.028 0-20 8.972-20 20v68h324a0.26 0.26 0 0 0 0.038-0.002L674 272c0-11.028-8.972-20-20-20H370z" fill="#20263B" p-id="2622"></path><path d="M904 1024H120c-66.168 0-120-53.832-120-120V120C0 53.832 53.832 0 120 0h784c66.168 0 120 53.832 120 120v784c0 66.168-53.832 120-120 120zM120 4C56.038 4 4 56.038 4 120v784c0 63.962 52.038 116 116 116h784c63.962 0 116-52.038 116-116V120c0-63.962-52.038-116-116-116H120z" fill="#D8DDE3" p-id="2623"></path><path d="M294.34 671.8c-71.344 0.006-97.972-59.884-102.09-91.582l-0.25-1.924v-142.648c0-52.628 45.976-95.446 102.488-95.446h434.934c56.512 0 102.488 42.818 102.488 95.446v140.708c0 52.628-45.976 95.448-102.488 95.448h-35.92v-60h35.92c23.428 0 42.488-15.902 42.488-35.448v-140.708c0-19.544-19.06-35.446-42.488-35.446H294.488c-23.428 0-42.488 15.902-42.488 35.446v138.078c0.738 3.504 3.042 12.484 8.572 20.868 7.748 11.738 18.482 17.208 33.772 17.208h0.098l33.448-0.044c0.23 0.016 0.55 0.004 0.822 0.008l0.48-0.002v0.014c22.044 0.672 30.334 18.566 30.354 29.926 0.024 11.718-8.056 29.026-30.242 30.024v0.034l-0.936-0.002c-0.314 0.008-0.628 0.012-0.948 0.014l-12.032 0.032v-0.032l-20.854 0.032c-0.06-0.004-0.132-0.004-0.194-0.004z" fill="#FF4B07" p-id="2624"></path><path d="M650 832H374c-39.702 0-72-32.298-72-72v-160c0-39.702 32.298-72 72-72h276c39.702 0 72 32.298 72 72v160c0 39.702-32.298 72-72 72zM374 588c-6.618 0-12 5.382-12 12v160c0 6.618 5.382 12 12 12h276c6.618 0 12-5.382 12-12v-160c0-6.618-5.382-12-12-12H374z" fill="#20263B" p-id="2625"></path><path d="M290 432h164v60h-164z" fill="#FF4B07" p-id="2626"></path></svg>