<?xml version="1.0" standalone="no"?><!DOCTYPE svg PUBLIC "-//W3C//DTD SVG 1.1//EN" "http://www.w3.org/Graphics/SVG/1.1/DTD/svg11.dtd"><svg t="1668259849378" class="icon" viewBox="0 0 1024 1024" version="1.1" xmlns="http://www.w3.org/2000/svg" p-id="3117" xmlns:xlink="http://www.w3.org/1999/xlink" width="200" height="200"><path d="M904 1024H120c-66.168 0-120-53.832-120-120V120C0 53.832 53.832 0 120 0h784c66.168 0 120 53.832 120 120v784c0 66.168-53.832 120-120 120zM120 4C56.038 4 4 56.038 4 120v784c0 63.962 52.038 116 116 116h784c63.962 0 116-52.038 116-116V120c0-63.962-52.038-116-116-116H120z" fill="#D8DDE3" p-id="3118"></path><path d="M600 490h-176c-39.702 0-72-32.298-72-72v-154c0-39.702 32.298-72 72-72h176c39.702 0 72 32.298 72 72v154c0 39.702-32.298 72-72 72z m-176-238c-6.618 0-12 5.382-12 12v154c0 6.618 5.382 12 12 12h176c6.618 0 12-5.382 12-12v-154c0-6.618-5.382-12-12-12h-176z" fill="#20263B" p-id="3119"></path><path d="M294.67 672.082c-38.134 0.002-69.068-16.73-87.132-47.138-12.896-21.708-14.844-43.266-15.024-45.652l-0.084-2.252v-130.084c0-52.406 45.97-95.042 102.476-95.042h82.276v60h-82.276c-23.422 0-42.476 15.72-42.476 35.042v128.35c0.412 2.79 2.098 11.898 7.49 20.282 4.57 7.106 13.1 16.578 34.916 16.494 15.124-0.036 24.622-0.054 30.338-0.064l6.016-0.006c0.352 0 0.702 0.004 1.046 0.014l0.062-0.002v0.002c22.16 0.582 30.524 18.504 30.57 29.87 0.06 14.506-10.884 29.998-31.284 30.136l-3.214 0.02-3.12 0.02v0.012c-0.708 0-1.404-0.02-2.09-0.06l-28.182 0.06-0.308-0.002zM693.02 675.632l-8.032-59.46c2.872-0.386 28.486-3.794 43.974-4.084l0.63-0.006h0.18c17.036 0 28.328-5.654 35.536-17.786 4.81-8.098 6.344-16.546 6.692-18.88v-128.46c0-19.322-19.054-35.042-42.476-35.042h-82.274v-60h82.274c56.506 0 102.476 42.636 102.476 95.042v131.21l-0.084 1.126c-0.18 2.386-2.126 23.946-15.024 45.652-18.056 30.39-48.974 47.122-87.078 47.138-10.304 0.228-30.012 2.634-36.794 3.55z" fill="#20263B" p-id="3120"></path><path d="M735.266 861.994h-446.04a30.006 30.006 0 0 1-23.848-11.798 30.008 30.008 0 0 1-5.088-26.118l68.774-251.4A29.998 29.998 0 0 1 358 550.594h320a30 30 0 0 1 29.25 23.338l57.266 251.4a30.004 30.004 0 0 1-5.798 25.372 30.01 30.01 0 0 1-23.452 11.29z m-406.73-60h369.128l-43.6-191.4H380.896l-52.36 191.4z" fill="#FF4B07" p-id="3121"></path><path d="M587 761h-150c-16.568 0-30-13.432-30-30s13.432-30 30-30h150c16.568 0 30 13.432 30 30s-13.432 30-30 30z" fill="#FF4B07" p-id="3122"></path></svg>