<?xml version="1.0" standalone="no"?><!DOCTYPE svg PUBLIC "-//W3C//DTD SVG 1.1//EN" "http://www.w3.org/Graphics/SVG/1.1/DTD/svg11.dtd"><svg t="1668260256854" class="icon" viewBox="0 0 1024 1024" version="1.1" xmlns="http://www.w3.org/2000/svg" p-id="14565" xmlns:xlink="http://www.w3.org/1999/xlink" width="200" height="200"><path d="M904 1024H120c-66.168 0-120-53.832-120-120V120C0 53.832 53.832 0 120 0h784c66.168 0 120 53.832 120 120v784c0 66.168-53.832 120-120 120zM120 4C56.038 4 4 56.038 4 120v784c0 63.962 52.038 116 116 116h784c63.962 0 116-52.038 116-116V120c0-63.962-52.038-116-116-116H120z" fill="#D8DDE3" p-id="14566"></path><path d="M660.604 831.682H221.714a29.998 29.998 0 0 1-29.144-37.106l76.368-313.152c11.032-49.626 54.702-85.604 103.978-85.604l362.22-0.308c52.946 0 95.998 41.584 95.998 92.696 0 2.428-0.294 4.846-0.876 7.202L768.18 746.436c-11.348 48.614-57.546 85.246-107.576 85.246z m-400.694-60h400.694c22.53 0 44.126-17.126 49.168-38.986l0.11-0.458 61.098-247.064c-1.688-16.614-17.108-29.664-35.818-29.664l-362.22 0.308c-21.096 0-40.634 16.68-45.472 38.798-0.052 0.232-0.106 0.466-0.162 0.698l-67.398 276.368z" fill="#20263B" p-id="14567"></path><path d="M632 572h-196c-16.568 0-30-13.432-30-30s13.432-30 30-30h196c16.568 0 30 13.432 30 30s-13.432 30-30 30z" fill="#FF4B07" p-id="14568"></path><path d="M223.256 831.364c-16.568 0-30-13.432-30-30V286.42c0-52.596 41.472-95.388 92.45-95.388h156.124c50.978 0 92.452 42.792 92.452 95.388v3.228h160.598c16.568 0 30 13.432 30 30v105.544c0 16.568-13.432 30-30 30s-30-13.432-30-30v-75.544h-160.6c-16.568 0-30-13.432-30-30V286.42c0-19.512-14.556-35.388-32.45-35.388h-156.124c-17.894 0-32.45 15.876-32.45 35.388v514.944c0 16.568-13.432 30-30 30z" fill="#20263B" p-id="14569"></path></svg>