<?xml version="1.0" standalone="no"?><!DOCTYPE svg PUBLIC "-//W3C//DTD SVG 1.1//EN" "http://www.w3.org/Graphics/SVG/1.1/DTD/svg11.dtd"><svg t="1668259837498" class="icon" viewBox="0 0 1024 1024" version="1.1" xmlns="http://www.w3.org/2000/svg" p-id="2823" xmlns:xlink="http://www.w3.org/1999/xlink" width="200" height="200"><path d="M904 1024H120c-66.168 0-120-53.832-120-120V120C0 53.832 53.832 0 120 0h784c66.168 0 120 53.832 120 120v784c0 66.168-53.832 120-120 120zM120 4C56.038 4 4 56.038 4 120v784c0 63.962 52.038 116 116 116h784c63.962 0 116-52.038 116-116V120c0-63.962-52.038-116-116-116H120z" fill="#D8DDE3" p-id="2824"></path><path d="M612 512H412c-33.084 0-60-26.916-60-60v-180c0-44.112 35.888-80 80-80h160c44.112 0 80 35.888 80 80v180c0 33.084-26.916 60-60 60z m-180-260c-11.028 0-20 8.972-20 20v180h200a0.26 0.26 0 0 0 0.038-0.002L612 272c0-11.028-8.972-20-20-20h-160z" fill="#20263B" p-id="2825"></path><path d="M294.67 772.084c-38.134 0.002-69.066-16.73-87.132-47.136-12.896-21.708-14.844-43.266-15.024-45.652l-0.084-2.252v-130.086c0-52.406 45.97-95.042 102.476-95.042h434.86c26.768 0 52.084 9.49 71.286 26.722 20.116 18.05 31.192 42.314 31.19 68.32v130.084c0 52.406-45.97 95.042-102.476 95.042h-107.38v-60h107.38c23.422 0 42.476-15.718 42.476-35.042v-130.086c0-8.742-4-17.144-11.264-23.664-8.176-7.336-19.26-11.376-31.21-11.376h-434.86c-23.422 0-42.476 15.718-42.476 35.042v128.354c0.412 2.792 2.1 11.898 7.49 20.28 4.556 7.086 13.116 16.494 34.742 16.494h0.174c66.994-0.158 82.058-0.004 82.668 0.002l-0.644 59.996c-0.144 0-15.61-0.152-81.882 0.002l-0.31-0.002z" fill="#20263B" p-id="2826"></path><path d="M592 832h-160c-44.112 0-80-35.888-80-80v-16c0-44.112 35.888-80 80-80h160c44.112 0 80 35.888 80 80v16c0 44.112-35.888 80-80 80z m-160-116c-11.028 0-20 8.972-20 20v16c0 11.028 8.972 20 20 20h160c11.028 0 20-8.972 20-20v-16c0-11.028-8.972-20-20-20h-160zM457.612 362.614h108.774v60h-108.774zM457.612 282.614h108.774v60h-108.774z" fill="#FF4B07" p-id="2827"></path></svg>