<?xml version="1.0" standalone="no"?><!DOCTYPE svg PUBLIC "-//W3C//DTD SVG 1.1//EN" "http://www.w3.org/Graphics/SVG/1.1/DTD/svg11.dtd"><svg t="1668260311213" class="icon" viewBox="0 0 1024 1024" version="1.1" xmlns="http://www.w3.org/2000/svg" p-id="16141" xmlns:xlink="http://www.w3.org/1999/xlink" width="200" height="200"><path d="M904 1024H120c-66.168 0-120-53.832-120-120V120C0 53.832 53.832 0 120 0h784c66.168 0 120 53.832 120 120v784c0 66.168-53.832 120-120 120zM120 4C56.038 4 4 56.038 4 120v784c0 63.962 52.038 116 116 116h784c63.962 0 116-52.038 116-116V120c0-63.962-52.038-116-116-116H120z" fill="#D8DDE3" p-id="16142"></path><path d="M801.878 461.836c-16.568 0-30-13.432-30-30V252.12h-173.2c-16.568 0-30-13.432-30-30s13.432-30 30-30h203.2c16.568 0 30 13.432 30 30v209.716c0 16.568-13.43 30-30 30zM425.202 832H222c-16.568 0-30-13.432-30-30V592.286c0-16.568 13.432-30 30-30s30 13.432 30 30V772h173.202c16.568 0 30 13.432 30 30s-13.432 30-30 30z" fill="#20263B" p-id="16143"></path><path d="M576.428 476.572c-7.7 0-15.398-2.946-21.26-8.834-11.69-11.742-11.648-30.738 0.094-42.426L779.834 201.74c11.74-11.688 30.736-11.65 42.426 0.094 11.69 11.742 11.648 30.738-0.094 42.426L597.594 467.834a29.912 29.912 0 0 1-21.166 8.738zM223 831a29.9 29.9 0 0 1-21.212-8.788c-11.716-11.714-11.716-30.71 0-42.426l224-224c11.714-11.714 30.71-11.714 42.426 0 11.716 11.714 11.716 30.71 0 42.426l-224 224A29.908 29.908 0 0 1 223 831z" fill="#20263B" p-id="16144"></path><path d="M762 792h-123.878c-16.568 0-30-13.432-30-30s13.432-30 30-30H732v-93.88c0-16.568 13.432-30 30-30s30 13.432 30 30V762c0 16.568-13.432 30-30 30zM262 415.88c-16.568 0-30-13.432-30-30V262c0-16.568 13.432-30 30-30h123.88c16.568 0 30 13.432 30 30s-13.432 30-30 30H292v93.88c0 16.568-13.432 30-30 30z" fill="#FF4B07" p-id="16145"></path></svg>