<?xml version="1.0" standalone="no"?><!DOCTYPE svg PUBLIC "-//W3C//DTD SVG 1.1//EN" "http://www.w3.org/Graphics/SVG/1.1/DTD/svg11.dtd"><svg t="1668260062011" class="icon" viewBox="0 0 1024 1024" version="1.1" xmlns="http://www.w3.org/2000/svg" p-id="9454" xmlns:xlink="http://www.w3.org/1999/xlink" width="200" height="200"><path d="M904 1024H120c-66.168 0-120-53.832-120-120V120C0 53.832 53.832 0 120 0h784c66.168 0 120 53.832 120 120v784c0 66.168-53.832 120-120 120zM120 4C56.038 4 4 56.038 4 120v784c0 63.962 52.038 116 116 116h784c63.962 0 116-52.038 116-116V120c0-63.962-52.038-116-116-116H120z" fill="#D8DDE3" p-id="9455"></path><path d="M252 420H192v-98c0-71.682 58.318-130 130-130h98v60h-98c-38.598 0-70 31.402-70 70v98zM420 832h-98c-71.682 0-130-58.318-130-130v-98h60v98c0 38.598 31.402 70 70 70h98v60zM832 420h-60v-98c0-38.598-31.402-70-70-70h-98V192h98c71.682 0 130 58.318 130 130v98zM702 832h-98v-60h98c38.598 0 70-31.402 70-70v-98h60v98c0 71.682-58.318 130-130 130z" fill="#20263B" p-id="9456"></path><path d="M577 705h-142c-35.29 0-64-28.71-64-64v-258c0-35.29 28.71-64 64-64h142c35.29 0 64 28.71 64 64v258c0 35.29-28.71 64-64 64z m-142-326c-2.206 0-4 1.794-4 4v258c0 2.206 1.794 4 4 4h142c2.206 0 4-1.794 4-4v-258c0-2.206-1.794-4-4-4h-142z" fill="#FF4B07" p-id="9457"></path><path d="M308 482h408v60H308z" fill="#FF4B07" p-id="9458"></path></svg>