<?xml version="1.0" standalone="no"?><!DOCTYPE svg PUBLIC "-//W3C//DTD SVG 1.1//EN" "http://www.w3.org/Graphics/SVG/1.1/DTD/svg11.dtd"><svg t="1668260565373" class="icon" viewBox="0 0 1024 1024" version="1.1" xmlns="http://www.w3.org/2000/svg" p-id="22962" xmlns:xlink="http://www.w3.org/1999/xlink" width="200" height="200"><path d="M904 1024H120c-66.168 0-120-53.832-120-120V120C0 53.832 53.832 0 120 0h784c66.168 0 120 53.832 120 120v784c0 66.168-53.832 120-120 120zM120 4C56.038 4 4 56.038 4 120v784c0 63.962 52.038 116 116 116h784c63.962 0 116-52.038 116-116V120c0-63.962-52.038-116-116-116H120z" fill="#D8DDE3" p-id="22963"></path><path d="M352 512h-36c-16.568 0-30-13.432-30-30s13.432-30 30-30h36c16.568 0 30 13.432 30 30s-13.432 30-30 30z" fill="#FF4B07" p-id="22964"></path><path d="M740.804 752.004h-105.36v-60h105.36c17.206 0 31.202-13.996 31.202-31.2V443.228c0-17.204-13.996-31.2-31.202-31.2h-37.93v-60h37.93c50.29 0 91.202 40.912 91.202 91.2v217.576c0 50.288-40.912 91.2-91.202 91.2z" fill="#20263B" p-id="22965"></path><path d="M704.804 751.976H283.246c-50.288 0-91.2-40.912-91.2-91.202V443.2c0-50.288 40.912-91.2 91.2-91.2h225.2v60h-225.2c-17.204 0-31.2 13.996-31.2 31.2v217.576c0 17.206 13.996 31.202 31.2 31.202h421.558v59.998z" fill="#20263B" p-id="22966"></path><path d="M598 512c-81.608 0-148-66.392-148-148S516.392 216 598 216s148 66.392 148 148-66.392 148-148 148z m0-236c-48.524 0-88 39.476-88 88s39.476 88 88 88 88-39.476 88-88-39.476-88-88-88z" fill="#FF4B07" p-id="22967"></path><path d="M322 832c-16.568 0-30-13.432-30-30v-80c0-16.568 13.432-30 30-30s30 13.432 30 30v80c0 16.568-13.432 30-30 30zM702 832c-16.568 0-30-13.432-30-30v-80c0-16.568 13.432-30 30-30s30 13.432 30 30v80c0 16.568-13.432 30-30 30z" fill="#20263B" p-id="22968"></path></svg>