<?xml version="1.0" standalone="no"?><!DOCTYPE svg PUBLIC "-//W3C//DTD SVG 1.1//EN" "http://www.w3.org/Graphics/SVG/1.1/DTD/svg11.dtd"><svg t="1668259915502" class="icon" viewBox="0 0 1024 1024" version="1.1" xmlns="http://www.w3.org/2000/svg" p-id="5164" xmlns:xlink="http://www.w3.org/1999/xlink" width="200" height="200"><path d="M904 1024H120c-66.168 0-120-53.832-120-120V120C0 53.832 53.832 0 120 0h784c66.168 0 120 53.832 120 120v784c0 66.168-53.832 120-120 120zM120 4C56.038 4 4 56.038 4 120v784c0 63.962 52.038 116 116 116h784c63.962 0 116-52.038 116-116V120c0-63.962-52.038-116-116-116H120z" fill="#D8DDE3" p-id="5165"></path><path d="M758 832c-16.568 0-30-13.432-30-30V418c0-16.568 13.432-30 30-30s30 13.432 30 30v384c0 16.568-13.432 30-30 30zM594 832c-16.568 0-30-13.432-30-30V600c0-16.568 13.432-30 30-30s30 13.432 30 30v202c0 16.568-13.432 30-30 30zM430 832c-16.568 0-30-13.432-30-30V528c0-16.568 13.432-30 30-30s30 13.432 30 30v274c0 16.568-13.432 30-30 30zM266 832c-16.568 0-30-13.432-30-30v-174c0-16.568 13.432-30 30-30s30 13.432 30 30v174c0 16.568-13.432 30-30 30z" fill="#20263B" p-id="5166"></path><path d="M222.008 532.844c-9.382 0-18.622-4.386-24.472-12.614-9.602-13.502-6.442-32.234 7.06-41.836l251.8-179.09c12.404-8.822 29.45-6.958 39.652 4.34l57.286 63.436 157.58-114.976h-71.824c-16.568 0-30-13.432-30-30s13.432-30 30-30h163.838a30 30 0 0 1 17.682 54.236l-253.744 185.14c-12.41 9.054-29.652 7.27-39.948-4.128l-57.504-63.678-230.042 163.616a29.868 29.868 0 0 1-17.364 5.554z" fill="#FF4B07" p-id="5167"></path></svg>