<?xml version="1.0" standalone="no"?><!DOCTYPE svg PUBLIC "-//W3C//DTD SVG 1.1//EN" "http://www.w3.org/Graphics/SVG/1.1/DTD/svg11.dtd"><svg t="1668259920333" class="icon" viewBox="0 0 1024 1024" version="1.1" xmlns="http://www.w3.org/2000/svg" p-id="5312" xmlns:xlink="http://www.w3.org/1999/xlink" width="200" height="200"><path d="M448 704C306.84 704 192 589.158 192 448 192 306.84 306.84 192 448 192c141.158 0 256 114.84 256 256 0 141.158-114.842 256-256 256z m0-452c-108.076 0-196 87.924-196 196 0 108.074 87.924 196 196 196 108.074 0 196-87.926 196-196 0-108.076-87.926-196-196-196z" fill="#20263B" p-id="5313"></path><path d="M702.006 659.57l128.206 128.206-42.426 42.426-128.206-128.206z" fill="#FF4B07" p-id="5314"></path><path d="M904 1024H120c-66.168 0-120-53.832-120-120V120C0 53.832 53.832 0 120 0h784c66.168 0 120 53.832 120 120v784c0 66.168-53.832 120-120 120zM120 4C56.038 4 4 56.038 4 120v784c0 63.962 52.038 116 116 116h784c63.962 0 116-52.038 116-116V120c0-63.962-52.038-116-116-116H120z" fill="#D8DDE3" p-id="5315"></path></svg>