<?xml version="1.0" standalone="no"?><!DOCTYPE svg PUBLIC "-//W3C//DTD SVG 1.1//EN" "http://www.w3.org/Graphics/SVG/1.1/DTD/svg11.dtd"><svg t="1668260142447" class="icon" viewBox="0 0 1024 1024" version="1.1" xmlns="http://www.w3.org/2000/svg" p-id="11852" xmlns:xlink="http://www.w3.org/1999/xlink" width="200" height="200"><path d="M904 1024H120c-66.168 0-120-53.832-120-120V120C0 53.832 53.832 0 120 0h784c66.168 0 120 53.832 120 120v784c0 66.168-53.832 120-120 120zM120 4C56.038 4 4 56.038 4 120v784c0 63.962 52.038 116 116 116h784c63.962 0 116-52.038 116-116V120c0-63.962-52.038-116-116-116H120z" fill="#D8DDE3" p-id="11853"></path><path d="M466 740c-151.084 0-274-122.916-274-274S314.916 192 466 192s274 122.916 274 274-122.916 274-274 274z m0-488c-118 0-214 96-214 214s96 214 214 214 214-96 214-214-96-214-214-214z" fill="#20263B" p-id="11854"></path><path d="M787.786 830.21l-128.204-128.204 42.426-42.426 128.204 128.204zM357 436h220v60h-220z" fill="#FF4B07" p-id="11855"></path><path d="M436 356h60v220h-60z" fill="#FF4B07" p-id="11856"></path></svg>