<?xml version="1.0" standalone="no"?><!DOCTYPE svg PUBLIC "-//W3C//DTD SVG 1.1//EN" "http://www.w3.org/Graphics/SVG/1.1/DTD/svg11.dtd"><svg t="1668260545210" class="icon" viewBox="0 0 1024 1024" version="1.1" xmlns="http://www.w3.org/2000/svg" p-id="22373" xmlns:xlink="http://www.w3.org/1999/xlink" width="200" height="200"><path d="M904 1024H120c-66.168 0-120-53.832-120-120V120C0 53.832 53.832 0 120 0h784c66.168 0 120 53.832 120 120v784c0 66.168-53.832 120-120 120zM120 4C56.038 4 4 56.038 4 120v784c0 63.962 52.038 116 116 116h784c63.962 0 116-52.038 116-116V120c0-63.962-52.038-116-116-116H120z" fill="#D8DDE3" p-id="22374"></path><path d="M612 676H272c-44.112 0-80-35.888-80-80V272c0-44.112 35.888-80 80-80h340c44.112 0 80 35.888 80 80v324c0 44.112-35.888 80-80 80zM272 252c-11.028 0-20 8.972-20 20v324c0 11.028 8.972 20 20 20h340c11.028 0 20-8.972 20-20V272c0-11.028-8.972-20-20-20H272z" fill="#20263B" p-id="22375"></path><path d="M801.674 587.546a29.96 29.96 0 0 1-9.956-1.702l-139.352-49.03a29.998 29.998 0 0 1-20.042-28.298v-107.14a30 30 0 0 1 21.93-28.894l139.352-38.924a30 30 0 0 1 38.072 28.894v195.092a30.004 30.004 0 0 1-30.004 30.002z m-109.35-100.276l79.352 27.918V401.98l-79.352 22.164v63.126zM222.972 831.004a29.86 29.86 0 0 1-16.614-5.042c-13.786-9.19-17.512-27.816-8.322-41.602l100-150c9.194-13.788 27.82-17.51 41.602-8.32 13.786 9.19 17.512 27.816 8.322 41.602l-100 150c-5.78 8.67-15.294 13.362-24.988 13.362zM685.028 831.004c-9.696 0-19.208-4.692-24.988-13.364l-100-150c-9.192-13.786-5.466-32.412 8.32-41.602 13.784-9.19 32.412-5.466 41.602 8.32l100 150c9.192 13.786 5.466 32.412-8.32 41.602a29.846 29.846 0 0 1-16.614 5.044z" fill="#20263B" p-id="22376"></path><path d="M465.068 521.948l0.21 60-160 0.56-0.21-60z" fill="#FF4B07" p-id="22377"></path></svg>