<?xml version="1.0" standalone="no"?><!DOCTYPE svg PUBLIC "-//W3C//DTD SVG 1.1//EN" "http://www.w3.org/Graphics/SVG/1.1/DTD/svg11.dtd"><svg t="1668260052829" class="icon" viewBox="0 0 1024 1024" version="1.1" xmlns="http://www.w3.org/2000/svg" p-id="9159" xmlns:xlink="http://www.w3.org/1999/xlink" width="200" height="200"><path d="M904 1024H120c-66.168 0-120-53.832-120-120V120C0 53.832 53.832 0 120 0h784c66.168 0 120 53.832 120 120v784c0 66.168-53.832 120-120 120zM120 4C56.038 4 4 56.038 4 120v784c0 63.962 52.038 116 116 116h784c63.962 0 116-52.038 116-116V120c0-63.962-52.038-116-116-116H120z" fill="#D8DDE3" p-id="9160"></path><path d="M710.682 647.908c-14.108 0-83.486-0.018-160.856-0.038a1740073.6 1740073.6 0 0 0-235.944-0.054h-0.122c-32.49 0-63.066-12.648-86.086-35.624-23.048-23.004-35.758-53.606-35.79-86.168-0.032-32.564 12.62-63.19 35.624-86.238 23.004-23.046 53.606-35.756 86.168-35.788h108.552c16.568 0 30 13.432 30 30s-13.432 30-30 30h-108.524c-16.508 0.016-32.048 6.47-43.73 18.174-11.682 11.704-18.106 27.256-18.09 43.792 0.016 16.538 6.47 32.078 18.174 43.76 11.69 11.666 27.218 18.09 43.732 18.09h0.06c28.272 0 138.476 0.03 235.99 0.054 77.362 0.02 146.734 0.038 160.84 0.038 16.568 0 30 13.432 30 30s-13.43 30.002-29.998 30.002z" fill="#20263B" p-id="9161"></path><path d="M269.402 833.226c-16.562 0-29.992-13.422-30-29.984-0.008-16.568 13.416-30.008 29.986-30.016 34.752-0.018 138.246-0.504 238.33-0.974 91.714-0.432 178.34-0.838 202.684-0.838 33.568-0.156 61.122-27.708 61.278-61.42 0.078-16.482-6.268-32.008-17.87-43.716-11.6-11.708-27.066-18.202-43.548-18.278-16.568-0.078-29.936-13.572-29.86-30.14 0.078-16.52 13.496-29.86 29.996-29.86h0.144c32.508 0.152 63.014 12.956 85.892 36.048 22.88 23.096 35.396 53.716 35.244 86.226-0.31 66.486-54.652 120.828-121.136 121.138-24.344 0-110.902 0.406-202.542 0.838-100.146 0.47-203.704 0.958-238.584 0.974l-0.014 0.002z" fill="#20263B" p-id="9162"></path><path d="M591.594 512.324a72.82 72.82 0 0 1-6.43-0.286H542a29.996 29.996 0 0 1-30-30.048l0.068-44.138a72.454 72.454 0 0 1 0.018-10.726v-2.482c0-4.43 0.974-8.7 2.756-12.562a71.422 71.422 0 0 1 18.154-30.43l168.564-168.564c13.6-13.6 31.68-21.09 50.914-21.09 19.228 0 37.308 7.488 50.908 21.084l0.034 0.034 7.694 7.694c28.074 28.072 28.076 73.75 0.006 101.824l-168.606 168.604a71.346 71.346 0 0 1-30.734 18.218 29.958 29.958 0 0 1-12.174 2.58h-1.558a72.412 72.412 0 0 1-6.45 0.288z m-19.548-60.286h14.626c1.162 0 2.322 0.068 3.474 0.202 0.958 0.112 1.94 0.11 2.876 0l0.416-0.046 0.372-0.07a11.736 11.736 0 0 0 6.236-3.278l168.638-168.636a12.014 12.014 0 0 0 0-16.972l-7.722-7.722-0.006-0.004a11.94 11.94 0 0 0-8.482-3.514c-1.858 0-5.428 0.458-8.488 3.516l-168.6 168.6a11.786 11.786 0 0 0-3.318 6.304l-0.08 0.428-0.05 0.56c-0.078 0.78-0.08 1.578-0.004 2.374 0.092 0.966 0.138 1.936 0.136 2.906l-0.024 15.352z" fill="#FF4B07" p-id="9163"></path></svg>