<?xml version="1.0" standalone="no"?><!DOCTYPE svg PUBLIC "-//W3C//DTD SVG 1.1//EN" "http://www.w3.org/Graphics/SVG/1.1/DTD/svg11.dtd"><svg t="1668259997929" class="icon" viewBox="0 0 1024 1024" version="1.1" xmlns="http://www.w3.org/2000/svg" p-id="7593" xmlns:xlink="http://www.w3.org/1999/xlink" width="200" height="200"><path d="M904 1024H120c-66.168 0-120-53.832-120-120V120C0 53.832 53.832 0 120 0h784c66.168 0 120 53.832 120 120v784c0 66.168-53.832 120-120 120zM120 4C56.038 4 4 56.038 4 120v784c0 63.962 52.038 116 116 116h784c63.962 0 116-52.038 116-116V120c0-63.962-52.038-116-116-116H120z" fill="#D8DDE3" p-id="7594"></path><path d="M671.998 764H368.714v-60h303.284c46.824 0 84.918-38.094 84.918-84.918s-38.094-84.918-84.918-84.918c-63.47 0-335.73-0.212-335.73-0.212l0.046-60s272.22 0.212 335.682 0.212c79.908 0 144.918 65.01 144.918 144.918S751.906 764 671.998 764z" fill="#20263B" p-id="7595"></path><path d="M336.918 534C257.01 534 192 468.99 192 389.082s65.01-144.918 144.918-144.918H512v60h-175.082c-46.824 0-84.918 38.094-84.918 84.918S290.094 474 336.918 474v60z" fill="#20263B" p-id="7596"></path><path d="M733 390C678.412 390 634 345.588 634 291S678.412 192 733 192 832 236.412 832 291 787.588 390 733 390z m0-138C711.496 252 694 269.496 694 291S711.496 330 733 330 772 312.504 772 291 754.504 252 733 252z" fill="#FF4B07" p-id="7597"></path><path d="M291 832C236.412 832 192 787.588 192 733S236.412 634 291 634 390 678.412 390 733 345.588 832 291 832z m0-138C269.496 694 252 711.496 252 733S269.496 772 291 772 330 754.504 330 733 312.504 694 291 694z" fill="#FF4B07" p-id="7598"></path><path d="M546 304.912a29.906 29.906 0 0 1-21.214-8.788l-50.91-50.912c-11.716-11.714-11.716-30.71 0-42.426 11.716-11.716 30.71-11.714 42.426 0l50.912 50.912c11.716 11.716 11.716 30.71 0 42.426a29.906 29.906 0 0 1-21.216 8.788z" fill="#20263B" p-id="7599"></path><path d="M495.086 355.822a29.906 29.906 0 0 1-21.21-8.786c-11.716-11.716-11.718-30.71 0-42.426l50.91-50.912c11.714-11.716 30.71-11.716 42.428 0 11.716 11.716 11.716 30.71 0 42.426l-50.912 50.912a29.906 29.906 0 0 1-21.216 8.786z" fill="#20263B" p-id="7600"></path></svg>