<?xml version="1.0" standalone="no"?><!DOCTYPE svg PUBLIC "-//W3C//DTD SVG 1.1//EN" "http://www.w3.org/Graphics/SVG/1.1/DTD/svg11.dtd"><svg t="1668260240343" class="icon" viewBox="0 0 1024 1024" version="1.1" xmlns="http://www.w3.org/2000/svg" p-id="14028" xmlns:xlink="http://www.w3.org/1999/xlink" width="200" height="200"><path d="M904 1024H120c-66.168 0-120-53.832-120-120V120C0 53.832 53.832 0 120 0h784c66.168 0 120 53.832 120 120v784c0 66.168-53.832 120-120 120zM120 4C56.038 4 4 56.038 4 120v784c0 63.962 52.038 116 116 116h784c63.962 0 116-52.038 116-116V120c0-63.962-52.038-116-116-116H120z" fill="#D8DDE3" p-id="14029"></path><path d="M293.918 831.934c-55.892 0.002-101.628-45.446-101.916-101.552v-117.694l0.07-1.016c0.17-2.498 2.016-25.068 14.408-48.048 17.944-33.28 49.182-51.614 87.958-51.624h0.008c16.566 0 29.996 13.426 30 29.992 0.004 16.568-13.424 30.004-29.992 30.008-16.826 0.004-27.67 6.204-35.164 20.098-5.392 10.002-6.966 20.424-7.29 23.028v115.102c0.12 22.972 18.974 41.706 42.074 41.706h435.254c23.254 0 42.106-18.732 42.224-41.86v-116.366C771.436 590.734 752.58 572 729.48 572h-0.376c-16.496 0-29.912-13.33-29.996-29.848-0.084-16.568 13.28-30.068 29.848-30.152h0.53c56.04 0 101.776 45.444 102.068 101.552v116.676c-0.29 56.258-46.032 101.704-102.068 101.706H293.918z" fill="#20263B" p-id="14030"></path><path d="M630 684H394c-33.084 0-60-26.916-60-60V272c0-44.112 35.888-80 80-80h196c44.112 0 80 35.888 80 80v352c0 33.084-26.916 60-60 60zM414 252c-11.028 0-20 8.972-20 20v352h236a0.26 0.26 0 0 0 0.038-0.002L630 272c0-11.028-8.972-20-20-20h-196z" fill="#20263B" p-id="14031"></path><path d="M512 562c-11.046 0-20-8.956-20-20v-184c0-11.046 8.954-20 20-20 11.044 0 20 8.954 20 20v184c0 11.044-8.956 20-20 20z" fill="#FF4B07" p-id="14032"></path><path d="M592 458a19.932 19.932 0 0 1-14.142-5.858l-80-80c-7.81-7.81-7.81-20.474 0-28.286 7.812-7.81 20.474-7.81 28.286 0l80 80c7.81 7.81 7.81 20.474 0 28.286A19.94 19.94 0 0 1 592 458z" fill="#FF4B07" p-id="14033"></path><path d="M432 458a19.932 19.932 0 0 1-14.142-5.858c-7.81-7.81-7.81-20.474 0-28.286l80-80c7.812-7.81 20.474-7.81 28.286 0 7.81 7.81 7.81 20.474 0 28.286l-80 80A19.94 19.94 0 0 1 432 458z" fill="#FF4B07" p-id="14034"></path><path d="M717 685h-410c-16.568 0-30-13.432-30-30s13.432-30 30-30h410c16.568 0 30 13.432 30 30s-13.432 30-30 30z" fill="#20263B" p-id="14035"></path></svg>