<?xml version="1.0" standalone="no"?><!DOCTYPE svg PUBLIC "-//W3C//DTD SVG 1.1//EN" "http://www.w3.org/Graphics/SVG/1.1/DTD/svg11.dtd"><svg t="1668259897494" class="icon" viewBox="0 0 1024 1024" version="1.1" xmlns="http://www.w3.org/2000/svg" p-id="4564" xmlns:xlink="http://www.w3.org/1999/xlink" width="200" height="200"><path d="M904 1024H120c-66.168 0-120-53.832-120-120V120C0 53.832 53.832 0 120 0h784c66.168 0 120 53.832 120 120v784c0 66.168-53.832 120-120 120zM120 4C56.038 4 4 56.038 4 120v784c0 63.962 52.038 116 116 116h784c63.962 0 116-52.038 116-116V120c0-63.962-52.038-116-116-116H120z" fill="#D8DDE3" p-id="4565"></path><path d="M336.248 282.792l157.994 102.006-32.544 50.406-157.994-102.006z" fill="#FF4B07" p-id="4566"></path><path d="M336.24 602.78l157.992 102.004-32.546 50.408-157.992-102.006z" fill="#20263B" p-id="4567"></path><path d="M693.748 282.78l32.544 50.406-157.992 102.006-32.544-50.406z" fill="#FF4B07" p-id="4568"></path><path d="M693.774 602.79L726.32 653.2l-157.992 102.006-32.546-50.408z" fill="#20263B" p-id="4569"></path><path d="M272 352C227.888 352 192 316.112 192 272S227.888 192 272 192s80 35.888 80 80-35.888 80-80 80z m0-100c-11.028 0-20 8.972-20 20s8.972 20 20 20 20-8.972 20-20-8.972-20-20-20z" fill="#FF4B07" p-id="4570"></path><path d="M272 672C227.888 672 192 636.112 192 592S227.888 512 272 512s80 35.888 80 80-35.888 80-80 80z m0-100c-11.028 0-20 8.972-20 20s8.972 20 20 20 20-8.972 20-20-8.972-20-20-20z" fill="#20263B" p-id="4571"></path><path d="M512 512C467.888 512 432 476.112 432 432S467.888 352 512 352s80 35.888 80 80-35.888 80-80 80z m0-100c-11.028 0-20 8.972-20 20s8.972 20 20 20 20-8.972 20-20-8.972-20-20-20z" fill="#FF4B07" p-id="4572"></path><path d="M512 832C467.888 832 432 796.112 432 752S467.888 672 512 672s80 35.888 80 80-35.888 80-80 80z m0-100c-11.028 0-20 8.972-20 20s8.972 20 20 20 20-8.972 20-20-8.972-20-20-20z" fill="#20263B" p-id="4573"></path><path d="M752 352C707.888 352 672 316.112 672 272S707.888 192 752 192s80 35.888 80 80-35.888 80-80 80z m0-100c-11.028 0-20 8.972-20 20s8.972 20 20 20 20-8.972 20-20-8.972-20-20-20z" fill="#FF4B07" p-id="4574"></path><path d="M752 672C707.888 672 672 636.112 672 592S707.888 512 752 512s80 35.888 80 80-35.888 80-80 80z m0-100c-11.028 0-20 8.972-20 20s8.972 20 20 20 20-8.972 20-20-8.972-20-20-20z" fill="#20263B" p-id="4575"></path></svg>