<?xml version="1.0" standalone="no"?><!DOCTYPE svg PUBLIC "-//W3C//DTD SVG 1.1//EN" "http://www.w3.org/Graphics/SVG/1.1/DTD/svg11.dtd"><svg t="1668259901921" class="icon" viewBox="0 0 1024 1024" version="1.1" xmlns="http://www.w3.org/2000/svg" p-id="4718" xmlns:xlink="http://www.w3.org/1999/xlink" width="200" height="200"><path d="M904 1024H120c-66.168 0-120-53.832-120-120V120C0 53.832 53.832 0 120 0h784c66.168 0 120 53.832 120 120v784c0 66.168-53.832 120-120 120zM120 4C56.038 4 4 56.038 4 120v784c0 63.962 52.038 116 116 116h784c63.962 0 116-52.038 116-116V120c0-63.962-52.038-116-116-116H120z" fill="#D8DDE3" p-id="4719"></path><path d="M802 832H222c-16.568 0-30-13.432-30-30s13.432-30 30-30h580c16.568 0 30 13.432 30 30s-13.432 30-30 30zM802.236 756c-16.568 0-30-13.432-30-30V319.022c0-5.928-1.872-9.648-3.026-11.236h-52.422c-1.154 1.588-3.026 5.308-3.026 11.236V726c0 16.568-13.432 30-30 30s-30-13.432-30-30V319.022c0-39.946 26.626-71.236 60.616-71.236h57.238c33.992 0 60.62 31.29 60.62 71.236V726c0 16.568-13.432 30-30 30zM572.236 755.802c-16.568 0-30-13.432-30-30V457.05c0-6.704-1.996-11.38-3.468-13.462h-51.536c-1.472 2.084-3.468 6.758-3.468 13.462v268.752c0 16.568-13.432 30-30 30s-30-13.432-30-30V457.05c0-41.194 26.626-73.462 60.616-73.462h57.238c33.992 0 60.62 32.268 60.62 73.462v268.752c-0.002 16.57-13.434 30-30.002 30zM221.966 755.8h-0.006c-16.568-0.004-29.998-13.44-29.994-30.008L192 580.714c0-41.186 26.626-73.454 60.616-73.454h57.238c33.992 0 60.618 32.268 60.618 73.46v145.08c0 16.568-13.432 30-30 30s-30-13.432-30-30v-145.078c0-6.704-1.996-11.378-3.468-13.46h-51.538c-1.472 2.082-3.466 6.758-3.466 13.46l-0.034 145.086c-0.004 16.566-13.436 29.99-30 29.992z" fill="#20263B" p-id="4720"></path><path d="M292.022 456.8H222c-16.568 0-30-13.432-30-30s13.432-30 30-30h61.18l224.212-144.734H476.4c-16.568 0-30-13.432-30-30s13.432-30 30-30h132.782a30 30 0 0 1 16.27 55.204l-317.16 204.734a30.008 30.008 0 0 1-16.27 4.796z" fill="#FF4B07" p-id="4721"></path></svg>