<?xml version="1.0" standalone="no"?><!DOCTYPE svg PUBLIC "-//W3C//DTD SVG 1.1//EN" "http://www.w3.org/Graphics/SVG/1.1/DTD/svg11.dtd"><svg t="1668259906237" class="icon" viewBox="0 0 1024 1024" version="1.1" xmlns="http://www.w3.org/2000/svg" p-id="4864" xmlns:xlink="http://www.w3.org/1999/xlink" width="200" height="200"><path d="M904 1024H120c-66.168 0-120-53.832-120-120V120C0 53.832 53.832 0 120 0h784c66.168 0 120 53.832 120 120v784c0 66.168-53.832 120-120 120zM120 4C56.038 4 4 56.038 4 120v784c0 63.962 52.038 116 116 116h784c63.962 0 116-52.038 116-116V120c0-63.962-52.038-116-116-116H120z" fill="#D8DDE3" p-id="4865"></path><path d="M697.67 541.708c-85.85 0-185.688-0.06-185.688-0.06-16.562-0.01-29.982-13.44-29.982-30V221.938c0-16.568 13.432-30 30-30 176.288 0 319.708 143.42 319.708 319.708 0 16.542-13.39 29.962-29.934 30-21.71 0.048-61.16 0.062-104.104 0.062zM542 481.666c52.992 0.026 163.682 0.072 227.99 0.024-13.764-119.3-108.7-214.244-227.99-228.03v228.006z" fill="#FF4B07" p-id="4866"></path><path d="M454.602 831.888c-144.744 0-262.5-117.758-262.5-262.502h60c0 111.66 90.84 202.502 202.5 202.502 111.658 0 202.5-90.842 202.5-202.502h60c0 144.744-117.758 262.502-262.5 262.502z" fill="#20263B" p-id="4867"></path><path d="M252.102 569.89h-60c0-144.744 117.756-262.502 262.5-262.502v60c-111.66 0-202.5 90.844-202.5 202.502z" fill="#20263B" p-id="4868"></path></svg>