<?xml version="1.0" standalone="no"?><!DOCTYPE svg PUBLIC "-//W3C//DTD SVG 1.1//EN" "http://www.w3.org/Graphics/SVG/1.1/DTD/svg11.dtd"><svg t="1668260017800" class="icon" viewBox="0 0 1024 1024" version="1.1" xmlns="http://www.w3.org/2000/svg" p-id="8183" xmlns:xlink="http://www.w3.org/1999/xlink" width="200" height="200"><path d="M904 1024H120c-66.168 0-120-53.832-120-120V120C0 53.832 53.832 0 120 0h784c66.168 0 120 53.832 120 120v784c0 66.168-53.832 120-120 120zM120 4C56.038 4 4 56.038 4 120v784c0 63.962 52.038 116 116 116h784c63.962 0 116-52.038 116-116V120c0-63.962-52.038-116-116-116H120z" fill="#D8DDE3" p-id="8184"></path><path d="M375.208 554.826c-28.416 0-56.834-10.816-78.466-32.45l-68.702-68.704c-20.958-20.958-32.502-48.826-32.502-78.466s11.542-57.506 32.502-78.466l68.702-68.704c43.264-43.264 113.666-43.266 156.932 0l69.456 69.456 0.696 0.802c1.792 2.064 17.734 20.958 26 48.278 11.93 39.434 2.182 77.47-27.448 107.1l-42.426-42.428c13.666-13.666 17.752-28.246 12.856-45.884-3.82-13.756-11.802-24.556-13.92-27.258l-67.638-67.64c-19.874-19.872-52.208-19.87-72.082 0l-68.702 68.702c-9.626 9.626-14.928 22.426-14.928 36.04s5.302 26.414 14.928 36.04l68.702 68.704c19.876 19.874 52.21 19.872 72.082 0l42.426 42.426c-21.634 21.636-50.052 32.452-78.468 32.452zM648.792 828.46c-29.64 0-57.506-11.542-78.464-32.502l-69.456-69.456-0.696-0.802c-1.792-2.064-17.734-20.958-26-48.278-11.93-39.434-2.182-77.468 27.448-107.098l42.426 42.426c-14.012 14.014-17.966 29.042-12.444 47.298 3.96 13.096 11.606 23.416 13.472 25.808l67.674 67.674c19.872 19.872 52.208 19.872 72.078 0l68.704-68.702c19.87-19.872 19.872-52.206 0-72.076l-68.704-68.704c-9.626-9.626-22.426-14.928-36.04-14.928-13.614-0.002-26.412 5.3-36.04 14.926l-42.426-42.426c20.958-20.958 48.824-32.5 78.462-32.5h0.002c29.64 0 57.508 11.544 78.464 32.502l68.704 68.704c43.264 43.264 43.264 113.66 0.002 156.928l-68.706 68.702c-20.956 20.962-48.82 32.504-78.46 32.504z" fill="#20263B" p-id="8185"></path><path d="M592.218 463a29.892 29.892 0 0 1-21.212-8.788c-11.716-11.714-11.716-30.71 0-42.426l114.782-114.782c11.714-11.716 30.71-11.716 42.426 0 11.716 11.714 11.716 30.71 0 42.426l-114.782 114.782a29.9 29.9 0 0 1-21.214 8.788zM706.036 459.564c-11.184 0-21.916-6.28-27.072-17.038-7.164-14.94-0.86-32.858 14.08-40.022l73.212-35.1c14.938-7.16 32.86-0.858 40.02 14.082 7.164 14.94 0.86 32.858-14.08 40.022l-73.212 35.1a29.886 29.886 0 0 1-12.948 2.956zM595.832 348.97a29.9 29.9 0 0 1-12.372-2.686c-15.09-6.842-21.776-24.622-14.934-39.71l33.52-73.922c6.844-15.09 24.624-21.772 39.71-14.934 15.09 6.842 21.776 24.622 14.934 39.71l-33.52 73.922c-5.018 11.072-15.926 17.62-27.338 17.62zM246.034 659.546c-11.184 0-21.918-6.282-27.074-17.042-7.162-14.942-0.856-32.858 14.086-40.02l73.192-35.082c14.944-7.162 32.86-0.856 40.02 14.086 7.162 14.942 0.856 32.858-14.086 40.02l-73.192 35.082a29.87 29.87 0 0 1-12.946 2.956zM395.834 810.966a29.9 29.9 0 0 1-12.372-2.686c-15.09-6.842-21.776-24.622-14.934-39.71l33.518-73.922c6.842-15.09 24.622-21.774 39.71-14.934 15.09 6.842 21.776 24.622 14.934 39.71l-33.518 73.922c-5.018 11.072-15.926 17.62-27.338 17.62zM318.218 737a29.896 29.896 0 0 1-21.212-8.788c-11.716-11.714-11.716-30.71 0-42.426l114.782-114.782c11.716-11.716 30.71-11.716 42.426 0 11.716 11.714 11.716 30.71 0 42.426l-114.782 114.782a29.912 29.912 0 0 1-21.214 8.788z" fill="#FF4B07" p-id="8186"></path></svg>