<?xml version="1.0" standalone="no"?><!DOCTYPE svg PUBLIC "-//W3C//DTD SVG 1.1//EN" "http://www.w3.org/Graphics/SVG/1.1/DTD/svg11.dtd"><svg t="1668260226611" class="icon" viewBox="0 0 1024 1024" version="1.1" xmlns="http://www.w3.org/2000/svg" p-id="13579" xmlns:xlink="http://www.w3.org/1999/xlink" width="200" height="200"><path d="M904 1024H120c-66.168 0-120-53.832-120-120V120C0 53.832 53.832 0 120 0h784c66.168 0 120 53.832 120 120v784c0 66.168-53.832 120-120 120zM120 4C56.038 4 4 56.038 4 120v784c0 63.962 52.038 116 116 116h784c63.962 0 116-52.038 116-116V120c0-63.962-52.038-116-116-116H120z" fill="#D8DDE3" p-id="13580"></path><path d="M752 832H272c-44.112 0-80-35.888-80-80v-160c0-44.112 35.888-80 80-80h480c44.112 0 80 35.888 80 80v160c0 44.112-35.888 80-80 80zM272 572c-11.028 0-20 8.972-20 20v160c0 11.028 8.972 20 20 20h480c11.028 0 20-8.972 20-20v-160c0-11.028-8.972-20-20-20H272z" fill="#20263B" p-id="13581"></path><path d="M715 751h-404c-16.568 0-30-13.432-30-30s13.432-30 30-30h404c16.568 0 30 13.432 30 30s-13.432 30-30 30z" fill="#20263B" p-id="13582"></path><path d="M706 636m-34 0a34 34 0 1 0 68 0 34 34 0 1 0-68 0Z" fill="#FF4B07" p-id="13583"></path><path d="M352 492c-16.568 0-30-13.432-30-30V222c0-16.568 13.432-30 30-30s30 13.432 30 30v240c0 16.568-13.432 30-30 30z" fill="#FF4B07" p-id="13584"></path><path d="M278.46 325.54a29.892 29.892 0 0 1-21.212-8.788c-11.716-11.716-11.716-30.71 0-42.426l73.54-73.54c11.714-11.716 30.71-11.716 42.426 0 11.716 11.716 11.716 30.71 0 42.426l-73.54 73.54a29.908 29.908 0 0 1-21.214 8.788z" fill="#FF4B07" p-id="13585"></path><path d="M425.54 325.54a29.892 29.892 0 0 1-21.212-8.788l-73.54-73.54c-11.716-11.716-11.716-30.71 0-42.426 11.714-11.716 30.71-11.716 42.426 0l73.54 73.54c11.716 11.716 11.716 30.71 0 42.426a29.9 29.9 0 0 1-21.214 8.788z" fill="#FF4B07" p-id="13586"></path><path d="M671.54 492c-16.568 0-30-13.432-30-30V222c0-16.568 13.432-30 30-30s30 13.432 30 30v240c0 16.568-13.432 30-30 30z" fill="#FF4B07" p-id="13587"></path><path d="M671.54 492a29.892 29.892 0 0 1-21.212-8.788l-73.54-73.54c-11.716-11.716-11.716-30.71 0-42.426 11.714-11.716 30.71-11.716 42.426 0l73.54 73.54c11.716 11.716 11.716 30.71 0 42.426A29.916 29.916 0 0 1 671.54 492z" fill="#FF4B07" p-id="13588"></path><path d="M671.54 492a29.892 29.892 0 0 1-21.212-8.788c-11.716-11.716-11.716-30.71 0-42.426l73.54-73.54c11.714-11.716 30.71-11.716 42.426 0 11.716 11.716 11.716 30.71 0 42.426l-73.54 73.54A29.906 29.906 0 0 1 671.54 492z" fill="#FF4B07" p-id="13589"></path></svg>