<?xml version="1.0" standalone="no"?><!DOCTYPE svg PUBLIC "-//W3C//DTD SVG 1.1//EN" "http://www.w3.org/Graphics/SVG/1.1/DTD/svg11.dtd"><svg t="1668260012647" class="icon" viewBox="0 0 1024 1024" version="1.1" xmlns="http://www.w3.org/2000/svg" p-id="8035" xmlns:xlink="http://www.w3.org/1999/xlink" width="200" height="200"><path d="M904 1024H120c-66.168 0-120-53.832-120-120V120C0 53.832 53.832 0 120 0h784c66.168 0 120 53.832 120 120v784c0 66.168-53.832 120-120 120zM120 4C56.038 4 4 56.038 4 120v784c0 63.962 52.038 116 116 116h784c63.962 0 116-52.038 116-116V120c0-63.962-52.038-116-116-116H120z" fill="#D8DDE3" p-id="8036"></path><path d="M375.208 554.826c-28.416 0-56.834-10.816-78.466-32.45l-68.702-68.704c-20.958-20.958-32.502-48.826-32.502-78.466s11.542-57.506 32.502-78.466l68.702-68.704c43.264-43.264 113.666-43.266 156.932 0l69.456 69.456 0.696 0.802c1.792 2.064 17.734 20.958 26 48.278 11.93 39.434 2.182 77.47-27.448 107.1l-42.426-42.428c13.666-13.666 17.752-28.246 12.856-45.884-3.82-13.756-11.802-24.556-13.92-27.258l-67.638-67.64c-19.874-19.872-52.208-19.87-72.082 0l-68.702 68.702c-9.626 9.626-14.928 22.426-14.928 36.04s5.302 26.414 14.928 36.04l68.702 68.704c19.876 19.874 52.21 19.872 72.082 0l42.426 42.426c-21.634 21.636-50.052 32.452-78.468 32.452zM648.792 828.408c-28.418 0-56.834-10.816-78.466-32.448l-69.454-69.458-0.696-0.802c-1.792-2.064-17.734-20.958-26-48.278-11.93-39.434-2.182-77.468 27.448-107.098l42.426 42.426c-14.012 14.014-17.966 29.042-12.444 47.298 3.96 13.096 11.606 23.416 13.472 25.808l67.672 67.674c19.874 19.87 52.208 19.87 72.082 0l68.7-68.702c9.626-9.626 14.928-22.426 14.928-36.04s-5.3-26.41-14.928-36.036l-68.702-68.706c-19.874-19.868-52.208-19.874-72.08-0.002l-42.426-42.426c43.268-43.266 113.668-43.262 156.932 0.002l68.702 68.704c20.958 20.958 32.502 48.822 32.502 78.462s-11.542 57.508-32.502 78.464l-68.7 68.702c-21.632 21.64-50.05 32.456-78.466 32.456z" fill="#20263B" p-id="8037"></path><path d="M441.43 399l182.78 182.78-42.424 42.426-182.78-182.78z" fill="#FF4B07" p-id="8038"></path></svg>