<?xml version="1.0" standalone="no"?><!DOCTYPE svg PUBLIC "-//W3C//DTD SVG 1.1//EN" "http://www.w3.org/Graphics/SVG/1.1/DTD/svg11.dtd"><svg t="1668260216814" class="icon" viewBox="0 0 1024 1024" version="1.1" xmlns="http://www.w3.org/2000/svg" p-id="13279" xmlns:xlink="http://www.w3.org/1999/xlink" width="200" height="200"><path d="M904 1024H120c-66.168 0-120-53.832-120-120V120C0 53.832 53.832 0 120 0h784c66.168 0 120 53.832 120 120v784c0 66.168-53.832 120-120 120zM120 4C56.038 4 4 56.038 4 120v784c0 63.962 52.038 116 116 116h784c63.962 0 116-52.038 116-116V120c0-63.962-52.038-116-116-116H120z" fill="#D8DDE3" p-id="13280"></path><path d="M752 832H272c-44.112 0-80-35.888-80-80V272c0-44.112 35.888-80 80-80h480c44.112 0 80 35.888 80 80v480c0 44.112-35.888 80-80 80zM272 252c-11.028 0-20 8.972-20 20v480c0 11.028 8.972 20 20 20h480c11.028 0 20-8.972 20-20V272c0-11.028-8.972-20-20-20H272z" fill="#20263B" p-id="13281"></path><path d="M512 506c-11.046 0-20-8.954-20-20v-184c0-11.046 8.954-20 20-20 11.044 0 20 8.954 20 20v184c0 11.046-8.956 20-20 20z" fill="#FF4B07" p-id="13282"></path><path d="M512 506a19.932 19.932 0 0 1-14.142-5.858c-7.81-7.81-7.81-20.474 0-28.286l80-80c7.812-7.81 20.472-7.81 28.286 0 7.81 7.81 7.81 20.474 0 28.286l-80 80A19.94 19.94 0 0 1 512 506z" fill="#FF4B07" p-id="13283"></path><path d="M512 506a19.932 19.932 0 0 1-14.142-5.858l-80-80c-7.81-7.81-7.81-20.474 0-28.286 7.81-7.81 20.474-7.81 28.286 0l80 80c7.81 7.81 7.81 20.474 0 28.286A19.94 19.94 0 0 1 512 506z" fill="#FF4B07" p-id="13284"></path><path d="M646 832H378c-33.084 0-60-26.916-60-60v-122c0-44.112 35.888-80 80-80h228c44.112 0 80 35.888 80 80v122c0 33.084-26.916 60-60 60zM398 630c-11.028 0-20 8.972-20 20v122h268a0.26 0.26 0 0 0 0.038-0.002L646 650c0-11.028-8.972-20-20-20H398z" fill="#20263B" p-id="13285"></path><path d="M582 762c-11.044 0-20-8.956-20-20v-80c0-11.044 8.956-20 20-20s20 8.956 20 20v80c0 11.044-8.956 20-20 20zM442 762c-11.046 0-20-8.956-20-20v-80c0-11.044 8.954-20 20-20s20 8.956 20 20v80c0 11.044-8.954 20-20 20z" fill="#FF4B07" p-id="13286"></path></svg>