<?xml version="1.0" standalone="no"?><!DOCTYPE svg PUBLIC "-//W3C//DTD SVG 1.1//EN" "http://www.w3.org/Graphics/SVG/1.1/DTD/svg11.dtd"><svg t="1668259887849" class="icon" viewBox="0 0 1024 1024" version="1.1" xmlns="http://www.w3.org/2000/svg" p-id="4269" xmlns:xlink="http://www.w3.org/1999/xlink" width="200" height="200"><path d="M904 1024H120c-66.168 0-120-53.832-120-120V120C0 53.832 53.832 0 120 0h784c66.168 0 120 53.832 120 120v784c0 66.168-53.832 120-120 120zM120 4C56.038 4 4 56.038 4 120v784c0 63.962 52.038 116 116 116h784c63.962 0 116-52.038 116-116V120c0-63.962-52.038-116-116-116H120z" fill="#D8DDE3" p-id="4270"></path><path d="M513 832c-53.486 0-97-43.514-97-97v-126c0-53.486 43.514-97 97-97s97 43.514 97 97v126c0 53.486-43.514 97-97 97z m0-260c-20.402 0-37 16.598-37 37v126c0 20.402 16.598 37 37 37s37-16.598 37-37v-126c0-20.402-16.598-37-37-37z" fill="#FF4B07" p-id="4271"></path><path d="M289 832c-53.486 0-97-43.514-97-97v-264c0-53.486 43.514-97 97-97s97 43.514 97 97v264c0 53.486-43.514 97-97 97z m0-398c-20.402 0-37 16.598-37 37v264c0 20.402 16.598 37 37 37s37-16.598 37-37v-264c0-20.402-16.598-37-37-37z" fill="#20263B" p-id="4272"></path><path d="M735 832c-53.486 0-97-43.514-97-97v-446c0-53.486 43.514-97 97-97s97 43.514 97 97v446c0 53.486-43.514 97-97 97z m0-580c-20.402 0-37 16.598-37 37v446c0 20.402 16.598 37 37 37s37-16.598 37-37v-446c0-20.402-16.598-37-37-37z" fill="#20263B" p-id="4273"></path></svg>