<?xml version="1.0" standalone="no"?><!DOCTYPE svg PUBLIC "-//W3C//DTD SVG 1.1//EN" "http://www.w3.org/Graphics/SVG/1.1/DTD/svg11.dtd"><svg t="1668259893055" class="icon" viewBox="0 0 1024 1024" version="1.1" xmlns="http://www.w3.org/2000/svg" p-id="4416" xmlns:xlink="http://www.w3.org/1999/xlink" width="200" height="200"><path d="M904 1024H120c-66.168 0-120-53.832-120-120V120C0 53.832 53.832 0 120 0h784c66.168 0 120 53.832 120 120v784c0 66.168-53.832 120-120 120zM120 4C56.038 4 4 56.038 4 120v784c0 63.962 52.038 116 116 116h784c63.962 0 116-52.038 116-116V120c0-63.962-52.038-116-116-116H120z" fill="#D8DDE3" p-id="4417"></path><path d="M802 542H512c-16.568 0-30-13.432-30-30s13.432-30 30-30h290c16.568 0 30 13.432 30 30s-13.432 30-30 30z" fill="#FF4B07" p-id="4418"></path><path d="M716 746a29.9 29.9 0 0 1-21.212-8.788l-204-204c-11.716-11.714-11.716-30.71 0-42.426 11.714-11.716 30.71-11.716 42.426 0l204 204c11.716 11.714 11.716 30.71 0 42.426A29.908 29.908 0 0 1 716 746z" fill="#FF4B07" p-id="4419"></path><path d="M512 542c-16.568 0-30-13.432-30-30V222c0-16.568 13.432-30 30-30s30 13.432 30 30v290c0 16.568-13.432 30-30 30z" fill="#FF4B07" p-id="4420"></path><path d="M512 832C335.552 832 192 688.45 192 512 192 335.552 335.552 192 512 192c176.45 0 320 143.552 320 320 0 176.45-143.55 320-320 320z m0-580C368.636 252 252 368.636 252 512c0 143.366 116.636 260 260 260 143.366 0 260-116.634 260-260 0-143.364-116.634-260-260-260z" fill="#20263B" p-id="4421"></path></svg>