<?xml version="1.0" standalone="no"?><!DOCTYPE svg PUBLIC "-//W3C//DTD SVG 1.1//EN" "http://www.w3.org/Graphics/SVG/1.1/DTD/svg11.dtd"><svg t="1668260340402" class="icon" viewBox="0 0 1024 1024" version="1.1" xmlns="http://www.w3.org/2000/svg" p-id="16584" xmlns:xlink="http://www.w3.org/1999/xlink" width="200" height="200"><path d="M904 1024H120c-66.168 0-120-53.832-120-120V120C0 53.832 53.832 0 120 0h784c66.168 0 120 53.832 120 120v784c0 66.168-53.832 120-120 120zM120 4C56.038 4 4 56.038 4 120v784c0 63.962 52.038 116 116 116h784c63.962 0 116-52.038 116-116V120c0-63.962-52.038-116-116-116H120z" fill="#D8DDE3" p-id="16585"></path><path d="M726 832H298c-58.448 0-106-47.55-106-106V298c0-58.448 47.552-106 106-106h214a30.004 30.004 0 0 1 27.87 18.894l38.78 97.32H726c58.45 0 106 47.552 106 106V726c0 58.45-47.55 106-106 106zM298 252c-25.364 0-46 20.636-46 46v428c0 25.366 20.636 46 46 46h428c25.366 0 46-20.634 46-46V414.214c0-25.364-20.634-46-46-46h-167.692a30.004 30.004 0 0 1-27.87-18.894L491.66 252H298z" fill="#20263B" p-id="16586"></path><path d="M192 424h640v60H192z" fill="#20263B" p-id="16587"></path><path d="M682 562.222h60V671h-60zM582 562.222h60V671h-60zM482 562.222h60V671h-60z" fill="#FF4B07" p-id="16588"></path></svg>