<?xml version="1.0" standalone="no"?><!DOCTYPE svg PUBLIC "-//W3C//DTD SVG 1.1//EN" "http://www.w3.org/Graphics/SVG/1.1/DTD/svg11.dtd"><svg t="1668260235298" class="icon" viewBox="0 0 1024 1024" version="1.1" xmlns="http://www.w3.org/2000/svg" p-id="13880" xmlns:xlink="http://www.w3.org/1999/xlink" width="200" height="200"><path d="M904 1024H120c-66.168 0-120-53.832-120-120V120C0 53.832 53.832 0 120 0h784c66.168 0 120 53.832 120 120v784c0 66.168-53.832 120-120 120zM120 4C56.038 4 4 56.038 4 120v784c0 63.962 52.038 116 116 116h784c63.962 0 116-52.038 116-116V120c0-63.962-52.038-116-116-116H120z" fill="#D8DDE3" p-id="13881"></path><path d="M308.26 832c-31.156 0-60.49-12.128-82.582-34.162-22.126-22.07-34.334-51.436-34.376-82.688V309.738c-0.038-6.09 0.822-51.79 33.648-85.05 20.84-21.118 48.896-31.87 83.388-31.958 83.168-0.212 192.216-0.022 202.88-0.002 8.326-0.378 44.618-0.516 70.626 23.708 11.328 10.552 24.834 29.798 24.834 61.564 0 16.568-13.432 30-30 30s-30-13.432-30-30c0-12.324-4.31-16.338-5.728-17.658-7.908-7.366-23.986-7.89-26.822-7.686-0.726 0.052-1.424 0.08-2.188 0.076-1.156-0.004-116.492-0.222-203.45 0-18.158 0.046-31.514 4.66-40.834 14.104-15.914 16.124-16.358 42.214-16.356 42.47l0.002 0.32v405.486c0.02 15.188 5.968 29.494 16.748 40.248 10.762 10.734 25.054 16.642 40.25 16.642H352c16.568 0 30 13.432 30 30s-13.432 30-30 30h-43.584l-0.156-0.002z" fill="#20263B" p-id="13882"></path><path d="M715.26 831.998h-48.156c-16.568 0-30-13.432-30-30s13.432-30 30-30h48.156c32.688 0 57.112-16.6 57.112-31.444V454.006c-0.362-7.568-5.632-31.542-57.164-31.632-64.978-0.114-200.23-0.06-289.728-0.024-31.838 0.012-58.032 0.024-73.478 0.024-16.568 0-30-13.432-30-30s13.432-30 30-30c15.442 0 41.626-0.01 73.454-0.024 89.524-0.036 224.816-0.09 289.858 0.024 39.844 0.07 70.684 10.924 91.664 32.26 24.292 24.704 25.392 54.11 25.394 59.184v286.736c0 51.278-51.442 91.444-117.112 91.444z" fill="#20263B" p-id="13883"></path><path d="M512 832c-16.568 0-30-13.432-30-30V512c0-16.568 13.432-30 30-30s30 13.432 30 30v290c0 16.568-13.432 30-30 30z" fill="#FF4B07" p-id="13884"></path><path d="M512 832a29.9 29.9 0 0 1-21.212-8.788c-11.716-11.714-11.716-30.71 0-42.426l107.48-107.48c11.714-11.714 30.71-11.714 42.426 0 11.716 11.714 11.716 30.71 0 42.426l-107.48 107.48A29.908 29.908 0 0 1 512 832zM440.916 760.8a29.908 29.908 0 0 1-21.314-8.886c-6.908-6.972-36.454-36.342-36.75-36.636-11.75-11.68-11.808-30.676-0.128-42.426 11.682-11.75 30.676-11.806 42.426-0.128 1.222 1.214 30.006 29.828 37.078 36.964 11.66 11.77 11.572 30.764-0.198 42.426a29.922 29.922 0 0 1-21.114 8.686z" fill="#FF4B07" p-id="13885"></path></svg>