<?xml version="1.0" standalone="no"?><!DOCTYPE svg PUBLIC "-//W3C//DTD SVG 1.1//EN" "http://www.w3.org/Graphics/SVG/1.1/DTD/svg11.dtd"><svg t="1668260363115" class="icon" viewBox="0 0 1024 1024" version="1.1" xmlns="http://www.w3.org/2000/svg" p-id="17173" xmlns:xlink="http://www.w3.org/1999/xlink" width="200" height="200"><path d="M904 1024H120c-66.168 0-120-53.832-120-120V120C0 53.832 53.832 0 120 0h784c66.168 0 120 53.832 120 120v784c0 66.168-53.832 120-120 120zM120 4C56.038 4 4 56.038 4 120v784c0 63.962 52.038 116 116 116h784c63.962 0 116-52.038 116-116V120c0-63.962-52.038-116-116-116H120z" fill="#D8DDE3" p-id="17174"></path><path d="M737.676 832.034H286.418c-52.086 0.004-94.458-42.364-94.464-94.444V286.448c-0.024-4.026 0.546-41.62 27.55-68.778C231.148 205.958 252.208 192 286.418 192h148.002l136 106.358h166.298c1.124-0.06 2.706-0.118 4.672-0.118 45.078 0 90.62 27.51 90.742 88.968 0.122 61.87 0.012 79.788 0 81.464l-0.004 268.914c-0.004 52.08-42.376 94.448-94.452 94.448zM286.418 252c-16.438 0-22.406 6.002-24.366 7.974-9.43 9.484-10.098 26.142-10.098 26.302v451.31c0.002 18.994 15.458 34.45 34.452 34.448h451.27c18.996 0 34.452-15.456 34.454-34.452l0.004-269.25c0.002-0.168 0.126-17.626 0-81.006-0.02-9.44-0.058-29.086-30.742-29.086-0.582 0-1.03 0.012-1.31 0.024l-1.46 0.158-0.952-0.064h-187.924l-136-106.358h-127.328z" fill="#20263B" p-id="17175"></path><path d="M767.282 267.62h-188.32c-16.568 0-30-13.432-30-30s13.432-30 30-30h188.32c16.568 0 30 13.432 30 30s-13.432 30-30 30z" fill="#20263B" p-id="17176"></path><path d="M482 459h60v187.304h-60z" fill="#FF4B07" p-id="17177"></path><path d="M401.264 521.696H613v60H401.264z" fill="#FF4B07" p-id="17178"></path></svg>