<?xml version="1.0" standalone="no"?><!DOCTYPE svg PUBLIC "-//W3C//DTD SVG 1.1//EN" "http://www.w3.org/Graphics/SVG/1.1/DTD/svg11.dtd"><svg t="1668260427978" class="icon" viewBox="0 0 1024 1024" version="1.1" xmlns="http://www.w3.org/2000/svg" p-id="18732" xmlns:xlink="http://www.w3.org/1999/xlink" width="200" height="200"><path d="M904 1024H120c-66.168 0-120-53.832-120-120V120C0 53.832 53.832 0 120 0h784c66.168 0 120 53.832 120 120v784c0 66.168-53.832 120-120 120zM120 4C56.038 4 4 56.038 4 120v784c0 63.962 52.038 116 116 116h784c63.962 0 116-52.038 116-116V120c0-63.962-52.038-116-116-116H120z" fill="#D8DDE3" p-id="18733"></path><path d="M752 772a19.768 19.768 0 0 0 14.144-5.86 19.714 19.714 0 0 0 4.304-6.366 19.578 19.578 0 0 0 1.548-7.774v-140.002H674v22.004c0 44.112-35.888 79.996-80 79.996h-164c-44.112 0-80-35.884-80-79.996v-22.004h-98.002V752c0 2.766 0.506 5.304 1.546 7.762a19.672 19.672 0 0 0 4.318 6.382 19.692 19.692 0 0 0 6.366 4.304 19.586 19.586 0 0 0 7.774 1.55H752M752 832H272a79.542 79.542 0 0 1-31.14-6.288 79.704 79.704 0 0 1-25.428-17.144 79.7 79.7 0 0 1-17.146-25.428A79.5 79.5 0 0 1 191.998 752V551.998H410v82.004c0 11.026 8.972 19.996 20 19.996h164c11.028 0 20-8.97 20-19.996v-82.004h217.998V752c0 10.8-2.116 21.278-6.288 31.14a79.694 79.694 0 0 1-17.144 25.428 79.662 79.662 0 0 1-25.426 17.144A79.528 79.528 0 0 1 752 832z" fill="#20263B" p-id="18734"></path><path d="M250.934 564.084l-59.03-10.754 48.138-264.274C241.608 235.274 285.846 192 340 192h344c54.154 0 98.392 43.266 99.958 97.048l48.028 263.06-59.024 10.778L724 294.716V292c0-22.056-17.944-40-40-40H340c-22.056 0-40 17.944-40 40v2.71l-49.066 269.374z" fill="#20263B" p-id="18735"></path><path d="M376 286h272v60H376zM354 374h316v60H354zM318 462h388v60H318z" fill="#FF4B07" p-id="18736"></path></svg>