<?xml version="1.0" standalone="no"?><!DOCTYPE svg PUBLIC "-//W3C//DTD SVG 1.1//EN" "http://www.w3.org/Graphics/SVG/1.1/DTD/svg11.dtd"><svg t="1668260511486" class="icon" viewBox="0 0 1024 1024" version="1.1" xmlns="http://www.w3.org/2000/svg" p-id="21341" xmlns:xlink="http://www.w3.org/1999/xlink" width="200" height="200"><path d="M904 1024H120c-66.168 0-120-53.832-120-120V120C0 53.832 53.832 0 120 0h784c66.168 0 120 53.832 120 120v784c0 66.168-53.832 120-120 120zM120 4C56.038 4 4 56.038 4 120v784c0 63.962 52.038 116 116 116h784c63.962 0 116-52.038 116-116V120c0-63.962-52.038-116-116-116H120z" fill="#D8DDE3" p-id="21342"></path><path d="M638.844 831.954H294.494c-56.516 0-102.494-45.98-102.494-102.494V291.952h60V729.46c0 23.43 19.062 42.492 42.494 42.492h344.35c23.432 0 42.494-19.062 42.494-42.492V294.494h60V729.46c0 56.514-45.978 102.494-102.494 102.494z" fill="#20263B" p-id="21343"></path><path d="M252 731.954H192V294.446c0-56.516 45.978-102.494 102.494-102.494h344.348v60H294.494c-23.432 0-42.494 19.062-42.494 42.494v437.508z" fill="#20263B" p-id="21344"></path><path d="M752.258 351.946h-0.02l-136.342-0.056 0.024-60 136.22 0.056c10.976-0.114 19.838-9.114 19.768-20.104-0.068-10.874-8.972-19.778-19.848-19.848h-120.178v-60h120.368c43.732 0.276 79.38 35.924 79.658 79.468 0.278 44.1-35.372 80.202-79.468 80.482l-0.182 0.002z" fill="#20263B" p-id="21345"></path><path d="M637.836 351.946H303.34c-16.532 0-29.948-13.374-30-29.904s13.278-29.99 29.81-30.094c10.876-0.07 19.78-8.974 19.85-19.85 0.034-5.336-2.012-10.366-5.762-14.162s-8.752-5.906-14.088-5.94l0.38-59.998c21.362 0.134 41.392 8.582 56.402 23.782 15.01 15.2 23.202 35.336 23.066 56.698a79.206 79.206 0 0 1-2.546 19.468h257.386v60z" fill="#20263B" p-id="21346"></path><path d="M602 572h-132c-16.568 0-30-13.432-30-30s13.432-30 30-30h132c16.568 0 30 13.432 30 30s-13.432 30-30 30zM602 672H330c-16.568 0-30-13.432-30-30s13.432-30 30-30h272c16.568 0 30 13.432 30 30s-13.432 30-30 30zM602 464h-132c-16.568 0-30-13.432-30-30s13.432-30 30-30h132c16.568 0 30 13.432 30 30s-13.432 30-30 30z" fill="#FF4B07" p-id="21347"></path></svg>