<?xml version="1.0" standalone="no"?><!DOCTYPE svg PUBLIC "-//W3C//DTD SVG 1.1//EN" "http://www.w3.org/Graphics/SVG/1.1/DTD/svg11.dtd"><svg t="1668260529222" class="icon" viewBox="0 0 1024 1024" version="1.1" xmlns="http://www.w3.org/2000/svg" p-id="21933" xmlns:xlink="http://www.w3.org/1999/xlink" width="200" height="200"><path d="M904 1024H120c-66.168 0-120-53.832-120-120V120C0 53.832 53.832 0 120 0h784c66.168 0 120 53.832 120 120v784c0 66.168-53.832 120-120 120zM120 4C56.038 4 4 56.038 4 120v784c0 63.962 52.038 116 116 116h784c63.962 0 116-52.038 116-116V120c0-63.962-52.038-116-116-116H120z" fill="#D8DDE3" p-id="21934"></path><path d="M772.4 442h-86.8c-32.864 0-59.6-26.736-59.6-59.6v-87.4c0-56.794 46.206-103 103-103s103 46.206 103 103v87.4c0 32.864-26.736 59.6-59.6 59.6zM686 382h86v-87c0-23.71-19.29-43-43-43s-43 19.29-43 43V382z" fill="#20263B" p-id="21935"></path><path d="M655.998 832c-3.588 0-7.192-0.642-10.638-1.952l-213.008-80.804-199.204 80.566a29.998 29.998 0 0 1-41.248-27.78c-0.04-36.364-0.032-40.614-0.018-47.15 0.008-4.258 0.018-9.49 0.018-25.282V295.416c-0.326-8.166-0.244-45.64 26.234-73.978 12.522-13.402 35.73-29.412 75.188-29.578 75.386-0.31 432.484 0.136 436.084 0.14l-0.078 60c-3.598-0.006-360.534-0.46-435.754-0.14-14.692 0.06-25.028 3.508-31.596 10.54-10.462 11.196-10.148 30.212-10.136 30.396 0.04 0.636 0.06 1.274 0.06 1.912V729.6c0 15.864-0.01 21.12-0.018 25.396l-0.004 2.52 168.876-68.3a29.976 29.976 0 0 1 21.888-0.238l183.224 69.506c-0.016-8.868-0.026-18.636-0.026-28.882 0.004-3.118 0.296-310.222 0.296-435.6h60c0 125.406-0.292 432.542-0.296 435.628 0 39.46 0.158 71.9 0.16 72.222A30.006 30.006 0 0 1 655.998 832z" fill="#20263B" p-id="21936"></path><path d="M415.768 583.566c-7.58 0-15.166-2.856-21.004-8.582-11.828-11.602-12.012-30.596-0.412-42.424l120.5-122.862c11.602-11.828 30.598-12.014 42.424-0.412 11.83 11.602 12.014 30.596 0.412 42.424l-120.5 122.86a29.904 29.904 0 0 1-21.42 8.996z" fill="#FF4B07" p-id="21937"></path><path d="M415.778 583.546a29.89 29.89 0 0 1-20.608-8.204l-54.052-51.112c-12.038-11.384-12.57-30.372-1.186-42.41 11.382-12.04 30.372-12.57 42.41-1.186l54.052 51.114c12.038 11.382 12.57 30.372 1.186 42.408a29.908 29.908 0 0 1-21.802 9.39z" fill="#FF4B07" p-id="21938"></path></svg>