<?xml version="1.0" standalone="no"?><!DOCTYPE svg PUBLIC "-//W3C//DTD SVG 1.1//EN" "http://www.w3.org/Graphics/SVG/1.1/DTD/svg11.dtd"><svg t="1668259936041" class="icon" viewBox="0 0 1024 1024" version="1.1" xmlns="http://www.w3.org/2000/svg" p-id="5884" xmlns:xlink="http://www.w3.org/1999/xlink" width="200" height="200"><path d="M904 1024H120c-66.168 0-120-53.832-120-120V120C0 53.832 53.832 0 120 0h784c66.168 0 120 53.832 120 120v784c0 66.168-53.832 120-120 120zM120 4C56.038 4 4 56.038 4 120v784c0 63.962 52.038 116 116 116h784c63.962 0 116-52.038 116-116V120c0-63.962-52.038-116-116-116H120z" fill="#D8DDE3" p-id="5885"></path><path d="M512 832C335.552 832 192 688.45 192 512 192 335.552 335.552 192 512 192c176.45 0 320 143.552 320 320 0 176.45-143.55 320-320 320z m0-580C368.636 252 252 368.636 252 512c0 143.366 116.636 260 260 260 143.366 0 260-116.634 260-260 0-143.364-116.634-260-260-260z" fill="#20263B" p-id="5886"></path><path d="M600 464v96c0 22.092-17.908 40-40 40h-96c-22.092 0-40-17.908-40-40v-96c0-22.092 17.908-40 40-40h96c22.092 0 40 17.908 40 40z" fill="#FF4B07" p-id="5887"></path><path d="M560 600h-96c-22.056 0-40-17.944-40-40v-96c0-22.056 17.944-40 40-40h96c22.056 0 40 17.944 40 40v96c0 22.056-17.944 40-40 40z m-76-60h56v-56h-56v56z" fill="#FF4B07" p-id="5888"></path></svg>