<?xml version="1.0" standalone="no"?><!DOCTYPE svg PUBLIC "-//W3C//DTD SVG 1.1//EN" "http://www.w3.org/Graphics/SVG/1.1/DTD/svg11.dtd"><svg t="1668260279970" class="icon" viewBox="0 0 1024 1024" version="1.1" xmlns="http://www.w3.org/2000/svg" p-id="15160" xmlns:xlink="http://www.w3.org/1999/xlink" width="200" height="200"><path d="M904 1024H120c-66.168 0-120-53.832-120-120V120C0 53.832 53.832 0 120 0h784c66.168 0 120 53.832 120 120v784c0 66.168-53.832 120-120 120zM120 4C56.038 4 4 56.038 4 120v784c0 63.962 52.038 116 116 116h784c63.962 0 116-52.038 116-116V120c0-63.962-52.038-116-116-116H120z" fill="#D8DDE3" p-id="15161"></path><path d="M512 832C335.552 832 192 688.45 192 512 192 335.552 335.552 192 512 192c176.45 0 320 143.552 320 320 0 176.45-143.55 320-320 320z m0-580C368.636 252 252 368.636 252 512c0 143.366 116.636 260 260 260 143.366 0 260-116.634 260-260 0-143.364-116.634-260-260-260z" fill="#20263B" p-id="15162"></path><path d="M512 512m-40 0a40 40 0 1 0 80 0 40 40 0 1 0-80 0Z" fill="#FF4B07" p-id="15163"></path><path d="M512 552C489.944 552 472 534.056 472 512S489.944 472 512 472s40 17.944 40 40-17.944 40-40 40z m0-78C491.046 474 474 491.046 474 512s17.046 38 38 38 38-17.046 38-38S532.954 474 512 474z" fill="#FF4B07" p-id="15164"></path><path d="M632 512m-40 0a40 40 0 1 0 80 0 40 40 0 1 0-80 0Z" fill="#FF4B07" p-id="15165"></path><path d="M632 552C609.944 552 592 534.056 592 512S609.944 472 632 472s40 17.944 40 40-17.944 40-40 40z m0-78C611.046 474 594 491.046 594 512s17.046 38 38 38 38-17.046 38-38S652.954 474 632 474z" fill="#FF4B07" p-id="15166"></path><path d="M392 512m-40 0a40 40 0 1 0 80 0 40 40 0 1 0-80 0Z" fill="#FF4B07" p-id="15167"></path><path d="M392 552C369.944 552 352 534.056 352 512S369.944 472 392 472s40 17.944 40 40-17.944 40-40 40z m0-78C371.046 474 354 491.046 354 512s17.046 38 38 38 38-17.046 38-38S412.954 474 392 474z" fill="#FF4B07" p-id="15168"></path></svg>