<?xml version="1.0" standalone="no"?><!DOCTYPE svg PUBLIC "-//W3C//DTD SVG 1.1//EN" "http://www.w3.org/Graphics/SVG/1.1/DTD/svg11.dtd"><svg t="1668259853769" class="icon" viewBox="0 0 1024 1024" version="1.1" xmlns="http://www.w3.org/2000/svg" p-id="3281" xmlns:xlink="http://www.w3.org/1999/xlink" width="200" height="200"><path d="M904 1024H120c-66.168 0-120-53.832-120-120V120C0 53.832 53.832 0 120 0h784c66.168 0 120 53.832 120 120v784c0 66.168-53.832 120-120 120zM120 4C56.038 4 4 56.038 4 120v784c0 63.962 52.038 116 116 116h784c63.962 0 116-52.038 116-116V120c0-63.962-52.038-116-116-116H120z" fill="#D8DDE3" p-id="3282"></path><path d="M629.792 719.838h-117.798c-16.568 0-30-13.432-30-30s13.432-30 30-30h117.798c78.298 0 142-63.702 142-142s-63.702-142-142-142c-16.568 0-30-13.432-30-30s13.432-30 30-30c111.382 0 202 90.618 202 202s-90.616 202-202 202z" fill="#20263B" p-id="3283"></path><path d="M394.162 708c-111.382 0-202-90.618-202-202s90.618-202 202-202h117.8c16.57 0 30 13.432 30 30s-13.432 30-30 30h-117.8c-78.298 0-142 63.702-142 142s63.702 142 142 142c16.568 0 30 13.432 30 30s-13.432 30-30 30z" fill="#FF4B07" p-id="3284"></path><path d="M676.93 796.924c-4.246 0-8.556-0.906-12.658-2.818l-164.95-76.916c-15.016-7.002-21.512-24.852-14.51-39.868 7.002-15.02 24.854-21.514 39.868-14.512l164.95 76.916c15.018 7.002 21.514 24.852 14.512 39.868-5.094 10.916-15.916 17.33-27.212 17.33z" fill="#20263B" p-id="3285"></path><path d="M511.936 363.844c-4.246 0-8.558-0.906-12.66-2.818l-164.948-76.916c-15.016-7.002-21.512-24.852-14.51-39.868 7.002-15.016 24.854-21.508 39.868-14.51l164.948 76.916c15.016 7.002 21.514 24.852 14.51 39.868-5.088 10.916-15.91 17.328-27.208 17.328z" fill="#FF4B07" p-id="3286"></path></svg>