<?xml version="1.0" standalone="no"?><!DOCTYPE svg PUBLIC "-//W3C//DTD SVG 1.1//EN" "http://www.w3.org/Graphics/SVG/1.1/DTD/svg11.dtd"><svg t="1668259858755" class="icon" viewBox="0 0 1024 1024" version="1.1" xmlns="http://www.w3.org/2000/svg" p-id="3431" xmlns:xlink="http://www.w3.org/1999/xlink" width="200" height="200"><path d="M904 1024H120c-66.168 0-120-53.832-120-120V120C0 53.832 53.832 0 120 0h784c66.168 0 120 53.832 120 120v784c0 66.168-53.832 120-120 120zM120 4C56.038 4 4 56.038 4 120v784c0 63.962 52.038 116 116 116h784c63.962 0 116-52.038 116-116V120c0-63.962-52.038-116-116-116H120z" fill="#D8DDE3" p-id="3432"></path><path d="M512.238 831.124a330.2 330.2 0 0 1-5.8-0.052c-71.928-1.38-142.086-27.318-197.588-73.038-55.5-45.716-94.396-109.61-109.522-179.906-3.486-16.198 6.82-32.154 23.018-35.638 16.198-3.496 32.154 6.818 35.64 23.018 25.542 118.708 128.168 203.244 249.57 205.576 31.82 0.546 63.164-4.688 93.092-15.636a263.02 263.02 0 0 0 30.378-13.286 256.104 256.104 0 0 0 74.046-57.352c36.704-41.134 59.19-91.858 65.028-146.68 1.756-16.478 16.532-28.41 33.008-26.656 16.476 1.754 28.41 16.532 26.656 33.006-7.176 67.378-34.812 129.718-79.924 180.278a315.982 315.982 0 0 1-91.338 70.742 323.172 323.172 0 0 1-37.288 16.308 316.12 316.12 0 0 1-108.976 19.316zM223.254 509.828c-1.062 0-2.132-0.056-3.21-0.17-16.476-1.754-28.412-16.532-26.658-33.006a323.054 323.054 0 0 1 7.546-42.96 322.458 322.458 0 0 1 35.446-86.778 322.546 322.546 0 0 1 36.942-50.538 315.98 315.98 0 0 1 91.326-70.734 323.084 323.084 0 0 1 37.284-16.31 321.116 321.116 0 0 1 57.792-15.148 318.416 318.416 0 0 1 56.994-4.114 320.878 320.878 0 0 1 51.858 5.23 322.032 322.032 0 0 1 96.688 34.488 320.736 320.736 0 0 1 63.564 45.882 318.726 318.726 0 0 1 43.802 50.122c24.944 35.442 42.172 74.898 51.206 117.278 3.456 16.204-6.88 32.142-23.086 35.596-16.208 3.458-32.14-6.882-35.594-23.086-7.34-34.422-21.33-66.468-41.588-95.25a258.77 258.77 0 0 0-35.542-40.668 260.79 260.79 0 0 0-51.662-37.292 262.142 262.142 0 0 0-78.678-28.066 260.8 260.8 0 0 0-42.08-4.246 258.052 258.052 0 0 0-46.17 3.334 260.954 260.954 0 0 0-46.956 12.312 263.088 263.088 0 0 0-30.35 13.276 256.126 256.126 0 0 0-74.04 57.348 262.234 262.234 0 0 0-30.05 41.106 262.51 262.51 0 0 0-28.848 70.628 262.574 262.574 0 0 0-6.136 34.936c-1.644 15.398-14.658 26.83-29.8 26.83z" fill="#20263A" p-id="3433"></path><path d="M737.452 606.152c-10.368 0-20.452-5.38-26.008-15.006-8.286-14.35-3.37-32.698 10.98-40.98l62.862-36.292c14.35-8.284 32.696-3.37 40.98 10.98 8.286 14.35 3.37 32.698-10.98 40.98l-62.862 36.292a29.838 29.838 0 0 1-14.972 4.026zM223.452 510.152c-10.37 0-20.452-5.38-26.008-15.004-8.284-14.348-3.368-32.696 10.98-40.98l62.86-36.292c14.348-8.286 32.696-3.37 40.98 10.98 8.284 14.348 3.368 32.696-10.98 40.98l-62.86 36.292a29.876 29.876 0 0 1-14.972 4.024z" fill="#20263A" p-id="3434"></path><path d="M604 482h-182c-16.568 0-30-13.432-30-30s13.432-30 30-30h182c16.568 0 30 13.432 30 30s-13.432 30-30 30zM604 602h-182c-16.568 0-30-13.432-30-30s13.432-30 30-30h182c16.568 0 30 13.432 30 30s-13.432 30-30 30z" fill="#FF4B07" p-id="3435"></path></svg>