<?xml version="1.0" standalone="no"?><!DOCTYPE svg PUBLIC "-//W3C//DTD SVG 1.1//EN" "http://www.w3.org/Graphics/SVG/1.1/DTD/svg11.dtd"><svg t="1668259927827" class="icon" viewBox="0 0 1024 1024" version="1.1" xmlns="http://www.w3.org/2000/svg" p-id="5591" xmlns:xlink="http://www.w3.org/1999/xlink" width="200" height="200"><path d="M904 1024H120c-66.168 0-120-53.832-120-120V120C0 53.832 53.832 0 120 0h784c66.168 0 120 53.832 120 120v784c0 66.168-53.832 120-120 120zM120 4C56.038 4 4 56.038 4 120v784c0 63.962 52.038 116 116 116h784c63.962 0 116-52.038 116-116V120c0-63.962-52.038-116-116-116H120z" fill="#D8DDE3" p-id="5592"></path><path d="M512 831.858H294.604c-56.5 0-102.464-45.964-102.464-102.462V294.604c0-56.5 45.964-102.464 102.464-102.464h434.792c56.5 0 102.464 45.964 102.464 102.464v217.4h-60v-217.4c0-23.416-19.048-42.464-42.464-42.464H294.604c-23.416 0-42.464 19.048-42.464 42.464v434.792c0 23.414 19.048 42.462 42.464 42.462H512v60z" fill="#20263B" p-id="5593"></path><path d="M530 724c-106.972 0-194-87.028-194-194S423.028 336 530 336s194 87.028 194 194-87.028 194-194 194z m0-328c-73.888 0-134 60.112-134 134s60.112 134 134 134 134-60.112 134-134-60.112-134-134-134z" fill="#FF4B07" p-id="5594"></path><path d="M712.212 669.778l120 120-42.426 42.426-120-120z" fill="#20263B" p-id="5595"></path></svg>