<?xml version="1.0" standalone="no"?><!DOCTYPE svg PUBLIC "-//W3C//DTD SVG 1.1//EN" "http://www.w3.org/Graphics/SVG/1.1/DTD/svg11.dtd"><svg t="1668260124971" class="icon" viewBox="0 0 1024 1024" version="1.1" xmlns="http://www.w3.org/2000/svg" p-id="11320" xmlns:xlink="http://www.w3.org/1999/xlink" width="200" height="200"><path d="M904 1024H120c-66.168 0-120-53.832-120-120V120C0 53.832 53.832 0 120 0h784c66.168 0 120 53.832 120 120v784c0 66.168-53.832 120-120 120zM120 4C56.038 4 4 56.038 4 120v784c0 63.962 52.038 116 116 116h784c63.962 0 116-52.038 116-116V120c0-63.962-52.038-116-116-116H120z" fill="#D8DDE3" p-id="11321"></path><path d="M741.814 552.074v-60c16.62 0 30.138-11.968 30.138-26.678v-186.708c0-14.71-13.52-26.678-30.138-26.678H402.212c-16.618 0-30.138 11.968-30.138 26.678v43.4h-60v-43.4c0-47.794 40.436-86.678 90.138-86.678h339.602c49.704 0 90.138 38.884 90.138 86.678v186.708c0.002 47.796-40.434 86.678-90.138 86.678z" fill="#FF4B07" p-id="11322"></path><path d="M329.138 832a30 30 0 0 1-29.994-30v-104.386H290c-54.038 0-98-43.962-98-98V388c0-54.038 43.962-98 98-98h364c54.038 0 98 43.962 98 98v211.618c0 54.038-43.962 98-98 98h-148.906l-157.026 127.66a30.002 30.002 0 0 1-18.93 6.722zM290 350c-20.954 0-38 17.046-38 38v211.614c0 20.954 17.046 38 38 38h39.142c16.568 0 30 13.432 30 30v71.334l116.37-94.608a29.99 29.99 0 0 1 18.924-6.722H654c20.954 0 38-17.046 38-38V388c0-20.954-17.046-38-38-38H290z" fill="#20263B" p-id="11323"></path><path d="M312 522h140v60h-140zM312 420h302.618v60H312z" fill="#FF4B07" p-id="11324"></path></svg>