<?xml version="1.0" standalone="no"?><!DOCTYPE svg PUBLIC "-//W3C//DTD SVG 1.1//EN" "http://www.w3.org/Graphics/SVG/1.1/DTD/svg11.dtd"><svg t="1668260119742" class="icon" viewBox="0 0 1024 1024" version="1.1" xmlns="http://www.w3.org/2000/svg" p-id="11174" xmlns:xlink="http://www.w3.org/1999/xlink" width="200" height="200"><path d="M904 1024H120c-66.168 0-120-53.832-120-120V120C0 53.832 53.832 0 120 0h784c66.168 0 120 53.832 120 120v784c0 66.168-53.832 120-120 120zM120 4C56.038 4 4 56.038 4 120v784c0 63.962 52.038 116 116 116h784c63.962 0 116-52.038 116-116V120c0-63.962-52.038-116-116-116H120z" fill="#D8DDE3" p-id="11175"></path><path d="M432 178h160v60h-160zM517.824 847.838c-14.878 0-30.124-2.386-45.53-7.216-39.11-12.262-65.906-35.676-68.832-38.304L423.514 780l19.952-22.404c0.204 0.18 20.612 17.996 48.34 26.25 33.208 9.89 61.756 1.824 87.272-24.66l43.208 41.628c-29.892 31.024-65.938 47.024-104.462 47.024z" fill="#FF4B07" p-id="11176"></path><path d="M273.616 725.838c-10.49 0-20.348-5.22-25.786-14.192-5.412-8.928-5.922-19.766-1.144-29.036 1.29-2.854 23.314-53.398 23.314-166.756C270 372.57 378.56 256 512 256s242 116.57 242 259.856c0 117.538 0 117.538 22.516 163.698l1.532 3.14a30 30 0 0 1-26.97 43.142l-477.462 0.002zM512 316c-100.356 0-182 89.656-182 199.856 0 69.974-7.652 118.822-15.2 149.982l390.046-0.002c-10.436-29.84-10.846-58.536-10.846-149.98 0-110.2-81.644-199.856-182-199.856z" fill="#20263B" p-id="11177"></path></svg>