<?xml version="1.0" standalone="no"?><!DOCTYPE svg PUBLIC "-//W3C//DTD SVG 1.1//EN" "http://www.w3.org/Graphics/SVG/1.1/DTD/svg11.dtd"><svg t="1668260113588" class="icon" viewBox="0 0 1024 1024" version="1.1" xmlns="http://www.w3.org/2000/svg" p-id="11027" xmlns:xlink="http://www.w3.org/1999/xlink" width="200" height="200"><path d="M904 1024H120c-66.168 0-120-53.832-120-120V120C0 53.832 53.832 0 120 0h784c66.168 0 120 53.832 120 120v784c0 66.168-53.832 120-120 120zM120 4C56.038 4 4 56.038 4 120v784c0 63.962 52.038 116 116 116h784c63.962 0 116-52.038 116-116V120c0-63.962-52.038-116-116-116H120z" fill="#D8DDE3" p-id="11028"></path><path d="M457.948 791.848l-45.01-39.676c12.158-13.804 75.72-82.666 133.298-82.666h183.138c23.416 0 42.466-15.342 42.466-34.2V346.388c0-18.858-19.05-34.2-42.466-34.2h-434.8c-23.416 0-42.468 15.342-42.468 34.2v288.488c0.068 1.198 0.754 10.604 6.052 19.044 2.42 3.854 9.784 15.586 36.462 15.586h94.086v60H294.62c-54.48 0-79.42-29.636-89.436-47.302-12.344-21.768-13.06-42.77-13.078-46.76V346.388c0-51.942 45.966-94.2 102.468-94.2h434.8c56.5 0 102.466 42.258 102.466 94.2v288.918c0 51.942-45.966 94.2-102.466 94.2h-183.138c-22.638 0-66.066 37.2-88.288 62.342z" fill="#20263B" p-id="11029"></path><path d="M596 384h140v60h-140z" fill="#FF4B07" p-id="11030"></path><path d="M288 540h448v60H288z" fill="#20263B" p-id="11031"></path></svg>