<?xml version="1.0" standalone="no"?><!DOCTYPE svg PUBLIC "-//W3C//DTD SVG 1.1//EN" "http://www.w3.org/Graphics/SVG/1.1/DTD/svg11.dtd"><svg t="1668260353780" class="icon" viewBox="0 0 1024 1024" version="1.1" xmlns="http://www.w3.org/2000/svg" p-id="16878" xmlns:xlink="http://www.w3.org/1999/xlink" width="200" height="200"><path d="M904 1024H120c-66.168 0-120-53.832-120-120V120C0 53.832 53.832 0 120 0h784c66.168 0 120 53.832 120 120v784c0 66.168-53.832 120-120 120zM120 4C56.038 4 4 56.038 4 120v784c0 63.962 52.038 116 116 116h784c63.962 0 116-52.038 116-116V120c0-63.962-52.038-116-116-116H120z" fill="#D8DDE3" p-id="16879"></path><path d="M708.024 832.17H307.976c-46.304 0-83.976-41.11-83.976-91.64V283.674c0-50.53 37.67-91.64 83.976-91.64 0.02 0 193.63 0.122 294.024 0.122h10c16.568 0 30 13.432 30 30V342h119.946c16.566 0 29.998 13.428 30 29.996L792 740.526c0 50.534-37.672 91.644-83.976 91.644zM307.958 252.034c-12.978 0-23.958 14.49-23.958 31.64v456.856c0 17.15 10.98 31.64 23.976 31.64h400.048c12.996 0 23.976-14.49 23.976-31.64L731.95 402H612c-16.568 0-30-13.432-30-30v-119.844c-104.02-0.014-274.042-0.122-274.042-0.122z" fill="#20263B" p-id="16880"></path><path d="M759.002 399a29.912 29.912 0 0 1-21.362-8.934l-144-146c-11.634-11.796-11.504-30.792 0.292-42.426 11.794-11.634 30.79-11.504 42.426 0.292l144 146c11.634 11.796 11.504 30.792-0.292 42.426a29.896 29.896 0 0 1-21.064 8.642z" fill="#20263B" p-id="16881"></path><path d="M602 542h-180c-16.568 0-30-13.432-30-30s13.432-30 30-30h180c16.568 0 30 13.432 30 30s-13.432 30-30 30z" fill="#FF4B07" p-id="16882"></path><path d="M512 632c-16.568 0-30-13.432-30-30v-180c0-16.568 13.432-30 30-30s30 13.432 30 30v180c0 16.568-13.432 30-30 30z" fill="#FF4B07" p-id="16883"></path></svg>