<?xml version="1.0" standalone="no"?><!DOCTYPE svg PUBLIC "-//W3C//DTD SVG 1.1//EN" "http://www.w3.org/Graphics/SVG/1.1/DTD/svg11.dtd"><svg t="1668260165163" class="icon" viewBox="0 0 1024 1024" version="1.1" xmlns="http://www.w3.org/2000/svg" p-id="12596" xmlns:xlink="http://www.w3.org/1999/xlink" width="200" height="200"><path d="M904 1024H120c-66.168 0-120-53.832-120-120V120C0 53.832 53.832 0 120 0h784c66.168 0 120 53.832 120 120v784c0 66.168-53.832 120-120 120zM120 4C56.038 4 4 56.038 4 120v784c0 63.962 52.038 116 116 116h784c63.962 0 116-52.038 116-116V120c0-63.962-52.038-116-116-116H120z" fill="#D8DDE3" p-id="12597"></path><path d="M412 472h-160c-33.084 0-60-26.916-60-60v-80c0-77.196 62.804-140 140-140h80c33.084 0 60 26.916 60 60v160c0 33.084-26.916 60-60 60z m-80-220c-44.112 0-80 35.888-80 80v80h160a0.26 0.26 0 0 0 0.038-0.002L412 252h-80z" fill="#FF4B07" p-id="12598"></path><path d="M412 832h-80c-77.196 0-140-62.804-140-140v-80c0-33.084 26.916-60 60-60h160c33.084 0 60 26.916 60 60v160c0 33.084-26.916 60-60 60z m-160-220v80c0 44.112 35.888 80 80 80h80a0.26 0.26 0 0 0 0.038-0.002L412 612h-160z" fill="#20263B" p-id="12599"></path><path d="M772 472h-160c-33.084 0-60-26.916-60-60v-160c0-33.084 26.916-60 60-60h80c77.196 0 140 62.804 140 140v80c0 33.084-26.916 60-60 60z m-160-220v160h160a0.26 0.26 0 0 0 0.038-0.002L772 332c0-44.112-35.888-80-80-80h-80z" fill="#20263B" p-id="12600"></path><path d="M692 832h-80c-33.084 0-60-26.916-60-60v-160c0-33.084 26.916-60 60-60h160c33.084 0 60 26.916 60 60v80c0 77.196-62.804 140-140 140z m-80-220v160h80c44.112 0 80-35.888 80-80v-80h-160z" fill="#20263B" p-id="12601"></path></svg>