<?xml version="1.0" standalone="no"?><!DOCTYPE svg PUBLIC "-//W3C//DTD SVG 1.1//EN" "http://www.w3.org/Graphics/SVG/1.1/DTD/svg11.dtd"><svg t="1668259863444" class="icon" viewBox="0 0 1024 1024" version="1.1" xmlns="http://www.w3.org/2000/svg" p-id="3580" xmlns:xlink="http://www.w3.org/1999/xlink" width="200" height="200"><path d="M904 1024H120c-66.168 0-120-53.832-120-120V120C0 53.832 53.832 0 120 0h784c66.168 0 120 53.832 120 120v784c0 66.168-53.832 120-120 120zM120 4C56.038 4 4 56.038 4 120v784c0 63.962 52.038 116 116 116h784c63.962 0 116-52.038 116-116V120c0-63.962-52.038-116-116-116H120z" fill="#D8DDE3" p-id="3581"></path><path d="M813.708 494h-60c0-133.01-108.436-241.224-241.722-241.224S270.266 360.988 270.266 494h-60c0-166.096 135.352-301.224 301.72-301.224 166.37 0 301.722 135.128 301.722 301.224zM512.004 831.224c-166.37 0-301.72-135.128-301.72-301.224h60c0 133.012 108.434 241.224 241.72 241.224 133.288 0 241.722-108.212 241.722-241.224h60c0 166.096-135.35 301.224-301.722 301.224z" fill="#20263B" p-id="3582"></path><path d="M582 512c0 38.66-31.34 70-70 70s-70-31.34-70-70 31.34-70 70-70 70 31.34 70 70z" fill="#FF4B07" p-id="3583"></path><path d="M512 582c-38.598 0-70-31.402-70-70s31.402-70 70-70 70 31.402 70 70-31.402 70-70 70z m0-80c-5.514 0-10 4.486-10 10s4.486 10 10 10 10-4.486 10-10-4.486-10-10-10z" fill="#FF4B07" p-id="3584"></path><path d="M754 238h60v256h-60zM210 530h60v256h-60z" fill="#20263B" p-id="3585"></path></svg>