<?xml version="1.0" standalone="no"?><!DOCTYPE svg PUBLIC "-//W3C//DTD SVG 1.1//EN" "http://www.w3.org/Graphics/SVG/1.1/DTD/svg11.dtd"><svg t="1668260515899" class="icon" viewBox="0 0 1024 1024" version="1.1" xmlns="http://www.w3.org/2000/svg" p-id="21490" xmlns:xlink="http://www.w3.org/1999/xlink" width="200" height="200"><path d="M904 1024H120c-66.168 0-120-53.832-120-120V120C0 53.832 53.832 0 120 0h784c66.168 0 120 53.832 120 120v784c0 66.168-53.832 120-120 120zM120 4C56.038 4 4 56.038 4 120v784c0 63.962 52.038 116 116 116h784c63.962 0 116-52.038 116-116V120c0-63.962-52.038-116-116-116H120z" fill="#D8DDE3" p-id="21491"></path><path d="M511.972 831.632c-5.466 0-10.996-1.492-15.962-4.622-14.018-8.83-18.224-27.354-9.394-41.374L556 675.494V438.156c0-6.306 1.986-12.452 5.68-17.564l121.648-168.436H280c-16.568 0-30-13.432-30-30s13.432-30 30-30h462a30 30 0 0 1 24.32 47.564L616 447.856v236.3c0 5.658-1.6 11.202-4.618 15.99l-74 117.472c-5.7 9.054-15.446 14.014-25.41 14.014z" fill="#20263B" p-id="21492"></path><path d="M450.002 715.14c-16.568 0-30-13.432-30-30v-188.28l-90.246-142.51c-8.864-13.998-4.702-32.532 9.294-41.396 13.998-8.864 32.53-4.704 41.396 9.296l94.9 149.858a30.006 30.006 0 0 1 4.654 16.05v196.98c0.002 16.57-13.43 30.002-29.998 30.002z" fill="#FF4B07" p-id="21493"></path></svg>