<?xml version="1.0" standalone="no"?><!DOCTYPE svg PUBLIC "-//W3C//DTD SVG 1.1//EN" "http://www.w3.org/Graphics/SVG/1.1/DTD/svg11.dtd"><svg t="1668260043058" class="icon" viewBox="0 0 1024 1024" version="1.1" xmlns="http://www.w3.org/2000/svg" p-id="8863" xmlns:xlink="http://www.w3.org/1999/xlink" width="200" height="200"><path d="M904 1024H120c-66.168 0-120-53.832-120-120V120C0 53.832 53.832 0 120 0h784c66.168 0 120 53.832 120 120v784c0 66.168-53.832 120-120 120zM120 4C56.038 4 4 56.038 4 120v784c0 63.962 52.038 116 116 116h784c63.962 0 116-52.038 116-116V120c0-63.962-52.038-116-116-116H120z" fill="#D8DDE3" p-id="8864"></path><path d="M729.446 832.016H294.532c-16.568 0-30-13.432-30-30s13.432-30 30-30h434.914c23.428 0 42.486-17.944 42.486-40V452.038c0-22.056-19.058-40-42.486-40H672c-16.568 0-30-13.432-30-30s13.432-30 30-30h57.446c56.512 0 102.486 44.86 102.486 100v279.978c0 55.14-45.974 100-102.486 100z" fill="#20263B" p-id="8865"></path><path d="M729.402 832.016H294.486c-56.51 0-102.486-44.86-102.486-100V452.038c0-55.14 45.976-100 102.486-100H352c16.568 0 30 13.432 30 30s-13.432 30-30 30h-57.514c-23.426 0-42.486 17.944-42.486 40v279.978c0 22.056 19.06 40 42.486 40h434.916c16.568 0 30 13.432 30 30s-13.432 30-30 30z" fill="#20263B" p-id="8866"></path><path d="M672.004 594.296h-0.248c-0.276-0.004-28.03-0.224-68.452-0.296-16.568-0.03-29.974-13.486-29.946-30.054s13.512-30.068 30.054-29.946c40.624 0.074 68.548 0.294 68.826 0.296 16.568 0.134 29.89 13.674 29.756 30.242-0.128 16.486-13.536 29.758-29.99 29.758zM672.002 720.296h-0.056l-164-0.296c-16.568-0.03-29.976-13.486-29.946-30.054 0.03-16.548 13.458-29.946 30-29.946h0.056l164 0.296c16.568 0.03 29.974 13.486 29.946 30.054-0.032 16.55-13.46 29.946-30 29.946z" fill="#20263B" p-id="8867"></path><path d="M351.974 720.006c-4.842 0-9.754-1.176-14.306-3.65-14.554-7.916-19.938-26.132-12.022-40.688l254.322-467.64c7.918-14.554 26.132-19.94 40.688-12.022 14.556 7.916 19.94 26.132 12.024 40.688L378.356 704.332c-5.44 10.004-15.744 15.674-26.382 15.674z" fill="#FF4B07" p-id="8868"></path></svg>