<?xml version="1.0" standalone="no"?><!DOCTYPE svg PUBLIC "-//W3C//DTD SVG 1.1//EN" "http://www.w3.org/Graphics/SVG/1.1/DTD/svg11.dtd"><svg t="1668260037727" class="icon" viewBox="0 0 1024 1024" version="1.1" xmlns="http://www.w3.org/2000/svg" p-id="8716" xmlns:xlink="http://www.w3.org/1999/xlink" width="200" height="200"><path d="M904 1024H120c-66.168 0-120-53.832-120-120V120C0 53.832 53.832 0 120 0h784c66.168 0 120 53.832 120 120v784c0 66.168-53.832 120-120 120zM120 4C56.038 4 4 56.038 4 120v784c0 63.962 52.038 116 116 116h784c63.962 0 116-52.038 116-116V120c0-63.962-52.038-116-116-116H120z" fill="#D8DDE3" p-id="8717"></path><path d="M385.818 832.214a30.116 30.116 0 0 1-3.564-0.214l-160.656-0.626c-16.542-0.064-29.91-13.506-29.882-30.046l0.252-159.878a30.174 30.174 0 0 1 0.518-9.754 30.018 30.018 0 0 1 12.566-19.24l411.67-411.67c11.714-11.716 30.71-11.716 42.426 0l164.056 164.052a30 30 0 0 1 0 42.426L411.072 819.392a30.028 30.028 0 0 1-17.658 11.844c-2.46 0.644-5.014 0.978-7.596 0.978z m-134.056-60.722l121.882 0.476 385.92-385.918-121.628-121.626-385.982 385.984-0.192 121.084z" fill="#20263B" p-id="8718"></path><path d="M704.636 514.24c-7.958 0-15.588-3.16-21.212-8.786l-163.876-163.876c-11.716-11.716-11.716-30.71 0-42.426l97.54-97.542a30 30 0 0 1 42.424 0l163.876 163.876a30 30 0 0 1 0 42.424l-97.542 97.542a29.976 29.976 0 0 1-21.21 8.788z m-121.448-193.874l121.45 121.45 55.116-55.114-121.452-121.45-55.114 55.114z" fill="#20263B" p-id="8719"></path><path d="M377.256 678.744a29.9 29.9 0 0 1-21.212-8.788c-11.716-11.714-11.716-30.71 0-42.426l135.744-135.744c11.714-11.716 30.71-11.716 42.426 0 11.716 11.714 11.716 30.71 0 42.426l-135.744 135.744a29.908 29.908 0 0 1-21.214 8.788z" fill="#FF4B07" p-id="8720"></path></svg>