<?xml version="1.0" standalone="no"?><!DOCTYPE svg PUBLIC "-//W3C//DTD SVG 1.1//EN" "http://www.w3.org/Graphics/SVG/1.1/DTD/svg11.dtd"><svg t="1668259874264" class="icon" viewBox="0 0 1024 1024" version="1.1" xmlns="http://www.w3.org/2000/svg" p-id="3882" xmlns:xlink="http://www.w3.org/1999/xlink" width="200" height="200"><path d="M904 1024H120c-66.168 0-120-53.832-120-120V120C0 53.832 53.832 0 120 0h784c66.168 0 120 53.832 120 120v784c0 66.168-53.832 120-120 120zM120 4C56.038 4 4 56.038 4 120v784c0 63.962 52.038 116 116 116h784c63.962 0 116-52.038 116-116V120c0-63.962-52.038-116-116-116H120z" fill="#D8DDE3" p-id="3883"></path><path d="M740.366 766.056h-0.124l-283.994-0.466c-16.568-0.028-29.978-13.48-29.95-30.048 0.028-16.552 13.454-29.952 30-29.952h0.05l283.982 0.466h0.042c17.352 0 31.486-14.11 31.51-31.472V349.378c-0.024-17.324-14.158-31.436-31.516-31.436h-47.92c-16.568 0-30-13.432-30-30s13.432-30 30-30h47.96c50.37 0 91.412 40.974 91.478 91.396V674.62c-0.072 50.462-41.116 91.436-91.518 91.436z" fill="#20263B" p-id="3884"></path><path d="M457.146 763.502c-9.486 0-18.816-4.486-24.648-12.862-9.466-13.598-6.118-32.294 7.48-41.762 0.486-0.338 48.992-34.128 81.948-58.872 13.248-9.954 32.054-7.272 42.002 5.978 9.95 13.25 7.272 32.054-5.978 42.002-33.824 25.396-81.668 58.726-83.688 60.132a29.844 29.844 0 0 1-17.116 5.384z" fill="#20263B" p-id="3885"></path><path d="M283.54 766.058c-50.376 0.004-91.416-40.974-91.484-91.398V349.378c0.034-24.488 9.584-47.458 26.892-64.718 17.278-17.232 40.222-26.718 64.62-26.718h0.128l283.988 0.466c16.568 0.028 29.978 13.48 29.952 30.048-0.028 16.552-13.454 29.952-29.998 29.952h-0.05l-283.98-0.466h-0.044c-17.35 0-31.482 14.108-31.506 31.472v325.208c0.022 17.324 14.158 31.438 31.518 31.438h47.916c16.568 0 30 13.432 30 30s-13.432 30-30 30h-47.836l-0.116-0.002z" fill="#20263B" p-id="3886"></path><path d="M484.024 380.002c-9.116 0-18.12-4.138-24.014-11.99-9.948-13.25-7.27-32.054 5.98-42.002 33.824-25.398 81.67-58.726 83.69-60.132 13.6-9.47 32.294-6.116 41.762 7.48 9.466 13.598 6.118 32.296-7.48 41.762-0.486 0.338-48.992 34.128-81.95 58.872a29.872 29.872 0 0 1-17.988 6.01z" fill="#20263B" p-id="3887"></path><path d="M512 582C474.504 582 444 551.496 444 514 444 476.504 474.504 446 512 446c37.496 0 68 30.504 68 68 0 37.496-30.504 68-68 68z m0-96c-15.44 0-28 12.56-28 28s12.56 28 28 28 28-12.56 28-28-12.56-28-28-28z" fill="#FF4B07" p-id="3888"></path><path d="M676 512m-42 0a42 42 0 1 0 84 0 42 42 0 1 0-84 0Z" fill="#FF4B07" p-id="3889"></path><path d="M348 512m-42 0a42 42 0 1 0 84 0 42 42 0 1 0-84 0Z" fill="#FF4B07" p-id="3890"></path></svg>