<?xml version="1.0" standalone="no"?><!DOCTYPE svg PUBLIC "-//W3C//DTD SVG 1.1//EN" "http://www.w3.org/Graphics/SVG/1.1/DTD/svg11.dtd"><svg t="1668260410488" class="icon" viewBox="0 0 1024 1024" version="1.1" xmlns="http://www.w3.org/2000/svg" p-id="18145" xmlns:xlink="http://www.w3.org/1999/xlink" width="200" height="200"><path d="M904 1024H120c-66.168 0-120-53.832-120-120V120C0 53.832 53.832 0 120 0h784c66.168 0 120 53.832 120 120v784c0 66.168-53.832 120-120 120zM120 4C56.038 4 4 56.038 4 120v784c0 63.962 52.038 116 116 116h784c63.962 0 116-52.038 116-116V120c0-63.962-52.038-116-116-116H120z" fill="#D8DDE3" p-id="18146"></path><path d="M752 832H272c-44.112 0-80-35.888-80-80V272c0-44.112 35.888-80 80-80h480c44.112 0 80 35.888 80 80v480c0 44.112-35.888 80-80 80zM272 252c-11.028 0-20 8.972-20 20v480c0 11.028 8.972 20 20 20h480c11.028 0 20-8.972 20-20V272c0-11.028-8.972-20-20-20H272z" fill="#20263B" p-id="18147"></path><path d="M382 362h260v60H382zM512 477.566l154.136 154.14-42.426 42.424-154.138-154.138z" fill="#FF4B07" p-id="18148"></path><path d="M511.992 477.566l42.426 42.426-154.136 154.138-42.426-42.426z" fill="#FF4B07" p-id="18149"></path></svg>