<?xml version="1.0" standalone="no"?><!DOCTYPE svg PUBLIC "-//W3C//DTD SVG 1.1//EN" "http://www.w3.org/Graphics/SVG/1.1/DTD/svg11.dtd"><svg t="1668259964766" class="icon" viewBox="0 0 1024 1024" version="1.1" xmlns="http://www.w3.org/2000/svg" p-id="6766" xmlns:xlink="http://www.w3.org/1999/xlink" width="200" height="200"><path d="M904 1024H120c-66.168 0-120-53.832-120-120V120C0 53.832 53.832 0 120 0h784c66.168 0 120 53.832 120 120v784c0 66.168-53.832 120-120 120zM120 4C56.038 4 4 56.038 4 120v784c0 63.962 52.038 116 116 116h784c63.962 0 116-52.038 116-116V120c0-63.962-52.038-116-116-116H120z" fill="#D8DDE3" p-id="6767"></path><path d="M512 832C335.552 832 192 688.45 192 512 192 335.552 335.552 192 512 192c176.45 0 320 143.552 320 320 0 176.45-143.55 320-320 320z m0-580C368.636 252 252 368.636 252 512c0 143.366 116.636 260 260 260 143.366 0 260-116.634 260-260 0-143.364-116.634-260-260-260z" fill="#20263B" p-id="6768"></path><path d="M511.392 454.396L479.428 498.6h63.926l-31.962-44.204m0-85.438c7.328 0 14.658 3.312 19.448 9.936l102.422 141.644c11.476 15.87 0.136 38.062-19.45 38.062h-204.84c-19.584 0-30.924-22.194-19.448-38.062l102.42-141.644c4.79-6.622 12.12-9.936 19.448-9.936zM598 668.276h-172c-16.568 0-30-13.432-30-30s13.432-30 30-30h172c16.568 0 30 13.432 30 30s-13.432 30-30 30z" fill="#FF4B07" p-id="6769"></path></svg>