<?xml version="1.0" standalone="no"?><!DOCTYPE svg PUBLIC "-//W3C//DTD SVG 1.1//EN" "http://www.w3.org/Graphics/SVG/1.1/DTD/svg11.dtd"><svg t="1668260369638" class="icon" viewBox="0 0 1024 1024" version="1.1" xmlns="http://www.w3.org/2000/svg" p-id="17410" xmlns:xlink="http://www.w3.org/1999/xlink" width="200" height="200"><path d="M904 1024H120c-66.168 0-120-53.832-120-120V120C0 53.832 53.832 0 120 0h784c66.168 0 120 53.832 120 120v784c0 66.168-53.832 120-120 120zM120 4C56.038 4 4 56.038 4 120v784c0 63.962 52.038 116 116 116h784c63.962 0 116-52.038 116-116V120c0-63.962-52.038-116-116-116H120z" fill="#D8DDE3" p-id="17411"></path><path d="M732 832H292c-55.14 0-100-44.86-100-100V292c0-55.14 44.86-100 100-100h440c55.14 0 100 44.86 100 100v440c0 55.14-44.86 100-100 100zM292 252c-22.056 0-40 17.944-40 40v440c0 22.056 17.944 40 40 40h440c22.054 0 40-17.944 40-40V292c0-22.056-17.946-40-40-40H292z" fill="#20263B" p-id="17412"></path><path d="M325.6 405.8h151.8v21.298h-127.2V498.8h120v21.298h-120v78.6h132.3V620H325.6V405.8z" fill="#FF4B07" p-id="17413"></path><path d="M525.6 405.8h25.8l121.2 174.298h0.9V405.8h24.6V620h-25.2l-121.8-176.1h-0.9V620h-24.6V405.8z" fill="#FF4B07" p-id="17414"></path></svg>