<?xml version="1.0" standalone="no"?><!DOCTYPE svg PUBLIC "-//W3C//DTD SVG 1.1//EN" "http://www.w3.org/Graphics/SVG/1.1/DTD/svg11.dtd"><svg t="1668260094783" class="icon" viewBox="0 0 1024 1024" version="1.1" xmlns="http://www.w3.org/2000/svg" p-id="10435" xmlns:xlink="http://www.w3.org/1999/xlink" width="200" height="200"><path d="M904 1024H120c-66.168 0-120-53.832-120-120V120C0 53.832 53.832 0 120 0h784c66.168 0 120 53.832 120 120v784c0 66.168-53.832 120-120 120zM120 4C56.038 4 4 56.038 4 120v784c0 63.962 52.038 116 116 116h784c63.962 0 116-52.038 116-116V120c0-63.962-52.038-116-116-116H120z" fill="#D8DDE3" p-id="10436"></path><path d="M651.898 772.098H394.424c-56.528 0-102.522-45.988-102.526-102.518V192h60v477.578c0.002 23.446 19.078 42.52 42.526 42.52h257.474v60z" fill="#20263B" p-id="10437"></path><path d="M731.626 831.994h-60V354.422c0-23.448-19.078-42.526-42.528-42.526l-257.936 0.098-0.024-60 257.948-0.098c56.544 0 102.54 45.994 102.54 102.526v477.572zM192 252h86v60H192z" fill="#FF4B07" p-id="10438"></path><path d="M746 712h86v60h-86z" fill="#20263B" p-id="10439"></path></svg>