<?xml version="1.0" standalone="no"?><!DOCTYPE svg PUBLIC "-//W3C//DTD SVG 1.1//EN" "http://www.w3.org/Graphics/SVG/1.1/DTD/svg11.dtd"><svg t="1668260502507" class="icon" viewBox="0 0 1024 1024" version="1.1" xmlns="http://www.w3.org/2000/svg" p-id="21046" xmlns:xlink="http://www.w3.org/1999/xlink" width="200" height="200"><path d="M904 1024H120c-66.168 0-120-53.832-120-120V120C0 53.832 53.832 0 120 0h784c66.168 0 120 53.832 120 120v784c0 66.168-53.832 120-120 120zM120 4C56.038 4 4 56.038 4 120v784c0 63.962 52.038 116 116 116h784c63.962 0 116-52.038 116-116V120c0-63.962-52.038-116-116-116H120z" fill="#D8DDE3" p-id="21047"></path><path d="M802 832H222c-16.568 0-30-13.432-30-30s13.432-30 30-30h580c16.568 0 30 13.432 30 30s-13.432 30-30 30z" fill="#20263B" p-id="21048"></path><path d="M708.132 832H317.868C284.856 832 258 805.144 258 772.132V447C258 306.392 372.392 192 513 192S768 306.392 768 447v325.132C768 805.144 741.144 832 708.132 832zM318 772h390V447c0-107.524-87.476-195-195-195S318 339.476 318 447V772z" fill="#20263B" p-id="21049"></path><path d="M570 542h-116c-16.568 0-30-13.432-30-30s13.432-30 30-30h116c16.568 0 30 13.432 30 30s-13.432 30-30 30z" fill="#FF4B07" p-id="21050"></path><path d="M454 542a29.9 29.9 0 0 1-21.212-8.788c-11.716-11.714-11.716-30.71 0-42.426l116-116c11.714-11.716 30.71-11.716 42.426 0 11.716 11.716 11.716 30.71 0 42.426l-116 116A29.908 29.908 0 0 1 454 542zM454 658a29.9 29.9 0 0 1-21.212-8.788c-11.716-11.714-11.716-30.71 0-42.426l116-116c11.714-11.716 30.71-11.716 42.426 0 11.716 11.716 11.716 30.71 0 42.426l-116 116A29.908 29.908 0 0 1 454 658z" fill="#FF4B07" p-id="21051"></path></svg>