<?xml version="1.0" standalone="no"?><!DOCTYPE svg PUBLIC "-//W3C//DTD SVG 1.1//EN" "http://www.w3.org/Graphics/SVG/1.1/DTD/svg11.dtd"><svg t="1668259987875" class="icon" viewBox="0 0 1024 1024" version="1.1" xmlns="http://www.w3.org/2000/svg" p-id="7297" xmlns:xlink="http://www.w3.org/1999/xlink" width="200" height="200"><path d="M904 1024H120c-66.168 0-120-53.832-120-120V120C0 53.832 53.832 0 120 0h784c66.168 0 120 53.832 120 120v784c0 66.168-53.832 120-120 120zM120 4C56.038 4 4 56.038 4 120v784c0 63.962 52.038 116 116 116h784c63.962 0 116-52.038 116-116V120c0-63.962-52.038-116-116-116H120z" fill="#D8DDE3" p-id="7298"></path><path d="M512 832C352.094 832 222 701.906 222 542S352.094 252 512 252s290 130.094 290 290-130.094 290-290 290z m0-520C385.178 312 282 415.178 282 542s103.178 230 230 230 230-103.178 230-230S638.822 312 512 312z" fill="#20263B" p-id="7299"></path><path d="M512 592c-16.568 0-30-13.432-30-30v-121.964c0-16.568 13.432-30 30-30s30 13.432 30 30V562c0 16.568-13.432 30-30 30z" fill="#FF4B07" p-id="7300"></path><path d="M317.85 191.714l42.276 42.576L234 359.526l-42.276-42.576zM706.04 191.7l126.126 125.236-42.276 42.576-126.126-125.236z" fill="#20263B" p-id="7301"></path><path d="M571 592H512c-16.568 0-30-13.432-30-30s13.432-30 30-30h59c16.568 0 30 13.432 30 30s-13.432 30-30 30z" fill="#FF4B07" p-id="7302"></path></svg>