<?xml version="1.0" standalone="no"?><!DOCTYPE svg PUBLIC "-//W3C//DTD SVG 1.1//EN" "http://www.w3.org/Graphics/SVG/1.1/DTD/svg11.dtd"><svg t="1668260476630" class="icon" viewBox="0 0 1024 1024" version="1.1" xmlns="http://www.w3.org/2000/svg" p-id="20307" xmlns:xlink="http://www.w3.org/1999/xlink" width="200" height="200"><path d="M904 1024H120c-66.168 0-120-53.832-120-120V120C0 53.832 53.832 0 120 0h784c66.168 0 120 53.832 120 120v784c0 66.168-53.832 120-120 120zM120 4C56.038 4 4 56.038 4 120v784c0 63.962 52.038 116 116 116h784c63.962 0 116-52.038 116-116V120c0-63.962-52.038-116-116-116H120z" fill="#D8DDE3" p-id="20308"></path><path d="M672 725h60v91.866h-60zM538.158 832l-245.066-0.034c-55.75 0-101.112-45.966-101.112-102.468V294.642c0-56.504 45.36-102.476 101.116-102.476h337.8c55.756 0 101.116 45.97 101.116 102.476l-0.016 169.744-60-0.004 0.016-169.744c0-23.418-18.444-42.472-41.116-42.472h-337.8c-22.67 0-41.116 19.054-41.116 42.476v434.856c0 23.418 18.444 42.468 41.116 42.468l245.07 0.034-0.008 60z" fill="#20263B" p-id="20309"></path><path d="M312.73 451.73h238.54v60h-238.54zM585 772h234v60h-234zM312.73 359.73H443v60h-130.27z" fill="#FF4B07" p-id="20310"></path><path d="M702 746c-71.682 0-130-58.318-130-130S630.318 486 702 486s130 58.318 130 130-58.318 130-130 130z m0-200c-38.598 0-70 31.402-70 70s31.402 70 70 70 70-31.402 70-70-31.402-70-70-70z" fill="#20263B" p-id="20311"></path></svg>