<?xml version="1.0" standalone="no"?><!DOCTYPE svg PUBLIC "-//W3C//DTD SVG 1.1//EN" "http://www.w3.org/Graphics/SVG/1.1/DTD/svg11.dtd"><svg t="1668260487240" class="icon" viewBox="0 0 1024 1024" version="1.1" xmlns="http://www.w3.org/2000/svg" p-id="20599" xmlns:xlink="http://www.w3.org/1999/xlink" width="200" height="200"><path d="M904 1024H120c-66.168 0-120-53.832-120-120V120C0 53.832 53.832 0 120 0h784c66.168 0 120 53.832 120 120v784c0 66.168-53.832 120-120 120zM120 4C56.038 4 4 56.038 4 120v784c0 63.962 52.038 116 116 116h784c63.962 0 116-52.038 116-116V120c0-63.962-52.038-116-116-116H120z" fill="#D8DDE3" p-id="20600"></path><path d="M793.334 512h-138.668c-21.32 0-38.666-17.346-38.666-38.666V300c0-59.552 48.45-108 108-108s108 48.448 108 108v173.334c0 21.32-17.346 38.666-38.666 38.666zM676 452h96v-152c0-26.468-21.534-48-48-48s-48 21.532-48 48v152zM320.028 831.998c-70.512 0.008-127.94-57.342-128.028-127.906 0-0.028-0.03-90.036-0.03-122.686h60c0 32.646 0.03 122.638 0.03 122.638 0.046 37.474 30.572 67.954 68.064 67.954h157.208v60h-157.244z" fill="#20263B" p-id="20601"></path><path d="M572.894 832C516.772 832 454 781.29 454 713.422v-131.768h60v131.768C514 744.968 546.382 772 572.894 772v60zM366 511.996h-60v-217.5c0-56.518 45.054-102.5 100.432-102.5h315.23v60H406.432c-22.294 0-40.432 19.066-40.432 42.5v217.5z" fill="#20263B" p-id="20602"></path><path d="M575.468 831.996h-169.038v-60h169.038c22.294 0 40.432-19.064 40.432-42.5l0.146-373.278 60 0.024-0.146 373.266c0 56.508-45.052 102.488-100.432 102.488z" fill="#20263B" p-id="20603"></path><path d="M514 582h-60c0-5.514-4.486-10-10-10h-104.784v-60H444c38.598 0 70 31.402 70 70z" fill="#20263B" p-id="20604"></path><path d="M252 582H192c0-38.598 31.402-70 70-70h104.784v60H262c-5.514 0-10 4.486-10 10z" fill="#20263B" p-id="20605"></path><path d="M477.228 316H588v60h-110.772zM411.922 412H588v60h-176.078z" fill="#FF4B07" p-id="20606"></path></svg>