<?xml version="1.0" standalone="no"?><!DOCTYPE svg PUBLIC "-//W3C//DTD SVG 1.1//EN" "http://www.w3.org/Graphics/SVG/1.1/DTD/svg11.dtd"><svg t="1668260262544" class="icon" viewBox="0 0 1024 1024" version="1.1" xmlns="http://www.w3.org/2000/svg" p-id="14712" xmlns:xlink="http://www.w3.org/1999/xlink" width="200" height="200"><path d="M904 1024H120c-66.168 0-120-53.832-120-120V120C0 53.832 53.832 0 120 0h784c66.168 0 120 53.832 120 120v784c0 66.168-53.832 120-120 120zM120 4C56.038 4 4 56.038 4 120v784c0 63.962 52.038 116 116 116h784c63.962 0 116-52.038 116-116V120c0-63.962-52.038-116-116-116H120z" fill="#D8DDE3" p-id="14713"></path><path d="M744 696c15.44 0 28-12.562 28-28v-146c0-1.102-0.058-2.186-0.18-3.254l-0.012-0.106-0.032-0.254c-1.012-8.016-5.51-15.216-12.342-19.758l-10.866-7.222-6.886-11.084-50.648-81.524-9.034-14.542v-17.12c0-19.046-12.822-35.136-28-35.136H370c-15.178 0-28 16.09-28 35.136v17.12l-9.036 14.542-50.648 81.522-6.888 11.084-10.87 7.224c-6.828 4.538-11.326 11.74-12.336 19.756l-0.006 0.04-0.036 0.324c-0.12 1.068-0.18 2.152-0.18 3.252v146c0 15.438 12.56 28 28 28h464m0 60H280c-48.602 0-88-39.398-88-88v-146c0-3.382 0.19-6.718 0.562-10H192l0.696-1.12c3.274-25.96 17.854-48.398 38.656-62.222L282 367.136C282 314.594 321.4 272 370 272h284c48.602 0 88 42.594 88 95.136l50.648 81.524c20.798 13.824 35.382 36.262 38.656 62.22l0.696 1.12h-0.56a88.76 88.76 0 0 1 0.56 10v146c0 48.602-39.398 88-88 88z" fill="#20263B" p-id="14714"></path><path d="M744 756H280c-48.524 0-88-39.476-88-88v-146c0-48.524 39.476-88 88-88h464c48.524 0 88 39.476 88 88v146c0 48.524-39.476 88-88 88zM280 494c-15.44 0-28 12.56-28 28v146c0 15.44 12.56 28 28 28h464c15.44 0 28-12.56 28-28v-146c0-15.44-12.56-28-28-28H280z" fill="#20263B" p-id="14715"></path><path d="M432 192h160v60h-160zM402 566h220v60H402z" fill="#FF4B07" p-id="14716"></path><path d="M320 596m-38 0a38 38 0 1 0 76 0 38 38 0 1 0-76 0Z" fill="#FF4B07" p-id="14717"></path><path d="M704 596m-38 0a38 38 0 1 0 76 0 38 38 0 1 0-76 0Z" fill="#FF4B07" p-id="14718"></path><path d="M312 832c-16.568 0-30-13.432-30-30v-72c0-16.568 13.432-30 30-30s30 13.432 30 30v72c0 16.568-13.432 30-30 30zM714 832c-16.568 0-30-13.432-30-30v-72c0-16.568 13.432-30 30-30s30 13.432 30 30v72c0 16.568-13.432 30-30 30z" fill="#20263B" p-id="14719"></path></svg>