<?xml version="1.0" standalone="no"?><!DOCTYPE svg PUBLIC "-//W3C//DTD SVG 1.1//EN" "http://www.w3.org/Graphics/SVG/1.1/DTD/svg11.dtd"><svg t="1668260033554" class="icon" viewBox="0 0 1024 1024" version="1.1" xmlns="http://www.w3.org/2000/svg" p-id="8567" xmlns:xlink="http://www.w3.org/1999/xlink" width="200" height="200"><path d="M904 1024H120c-66.168 0-120-53.832-120-120V120C0 53.832 53.832 0 120 0h784c66.168 0 120 53.832 120 120v784c0 66.168-53.832 120-120 120zM120 4C56.038 4 4 56.038 4 120v784c0 63.962 52.038 116 116 116h784c63.962 0 116-52.038 116-116V120c0-63.962-52.038-116-116-116H120z" fill="#D8DDE3" p-id="8568"></path><path d="M512 772h320v60H512z" fill="#FF4B07" p-id="8569"></path><path d="M252.022 771.384l161.148-48.056 277.884-277.884-113.804-112.378L300.08 610.236l-48.056 161.148m-42.426 42.426a60 60 0 0 1-15.072-59.57l48.056-161.148a59.996 59.996 0 0 1 15.072-25.28l277.17-277.17c23.326-23.326 61.112-23.446 84.584-0.266l113.806 112.374 0.27 0.266a60 60 0 0 1 0 84.85L455.596 765.752a60.02 60.02 0 0 1-25.28 15.072l-161.148 48.056a59.992 59.992 0 0 1-59.572-15.07z" fill="#20263B" p-id="8570"></path><path d="M733.21 463.928c-16.03 0-31.096-6.244-42.428-17.576l-113.136-113.134c-11.332-11.332-17.574-26.4-17.574-42.426 0-16.028 6.24-31.096 17.576-42.43l39.596-39.596c11.33-11.334 26.4-17.574 42.424-17.574s31.098 6.24 42.43 17.576l113.134 113.136c11.332 11.33 17.574 26.398 17.574 42.426 0 16.026-6.24 31.094-17.574 42.428l-39.596 39.596c-11.332 11.332-26.4 17.574-42.426 17.574z m-73.54-212.736l-39.598 39.6 113.138 113.136 0.028-0.002 39.57-39.596-113.138-113.138z" fill="#FF4B07" p-id="8571"></path></svg>