<?xml version="1.0" standalone="no"?><!DOCTYPE svg PUBLIC "-//W3C//DTD SVG 1.1//EN" "http://www.w3.org/Graphics/SVG/1.1/DTD/svg11.dtd"><svg t="1668260288612" class="icon" viewBox="0 0 1024 1024" version="1.1" xmlns="http://www.w3.org/2000/svg" p-id="15461" xmlns:xlink="http://www.w3.org/1999/xlink" width="200" height="200"><path d="M904 1024H120c-66.168 0-120-53.832-120-120V120C0 53.832 53.832 0 120 0h784c66.168 0 120 53.832 120 120v784c0 66.168-53.832 120-120 120zM120 4C56.038 4 4 56.038 4 120v784c0 63.962 52.038 116 116 116h784c63.962 0 116-52.038 116-116V120c0-63.962-52.038-116-116-116H120z" fill="#D8DDE3" p-id="15462"></path><path d="M752 192h60v380h-60zM752 760h60v72h-60zM482 482h60v350h-60zM482 192h60v102h-60z" fill="#20263B" p-id="15463"></path><path d="M462 312h100v152h-100zM732 590h100v152h-100zM192 436h100v152H192z" fill="#FF4B07" p-id="15464"></path><path d="M212 192h60v226h-60zM212 606h60v226h-60z" fill="#20263B" p-id="15465"></path></svg>