<?xml version="1.0" standalone="no"?><!DOCTYPE svg PUBLIC "-//W3C//DTD SVG 1.1//EN" "http://www.w3.org/Graphics/SVG/1.1/DTD/svg11.dtd"><svg t="1668260419132" class="icon" viewBox="0 0 1024 1024" version="1.1" xmlns="http://www.w3.org/2000/svg" p-id="18438" xmlns:xlink="http://www.w3.org/1999/xlink" width="200" height="200"><path d="M904 1024H120c-66.168 0-120-53.832-120-120V120C0 53.832 53.832 0 120 0h784c66.168 0 120 53.832 120 120v784c0 66.168-53.832 120-120 120zM120 4C56.038 4 4 56.038 4 120v784c0 63.962 52.038 116 116 116h784c63.962 0 116-52.038 116-116V120c0-63.962-52.038-116-116-116H120z" fill="#D8DDE3" p-id="18439"></path><path d="M752 800H272c-44.112 0-80-35.888-80-80V304c0-44.112 35.888-80 80-80h480c44.112 0 80 35.888 80 80v416c0 44.112-35.888 80-80 80zM272 284c-11.028 0-20 8.972-20 20v416c0 11.028 8.972 20 20 20h480c11.028 0 20-8.972 20-20V304c0-11.028-8.972-20-20-20H272z" fill="#20263B" p-id="18440"></path><path d="M512 542c-6.056 0-12.112-1.828-17.298-5.49l-195.538-138c-13.538-9.554-16.766-28.272-7.212-41.808 9.554-13.54 28.276-16.766 41.808-7.212l178.18 125.75 176.882-125.694c13.502-9.6 32.232-6.43 41.832 7.076 9.598 13.506 6.428 32.236-7.078 41.832l-194.2 138A29.96 29.96 0 0 1 512 542z" fill="#20263B" p-id="18441"></path><path d="M442 570h140v60h-140z" fill="#FF4B07" p-id="18442"></path></svg>