<?xml version="1.0" standalone="no"?><!DOCTYPE svg PUBLIC "-//W3C//DTD SVG 1.1//EN" "http://www.w3.org/Graphics/SVG/1.1/DTD/svg11.dtd"><svg t="1668260315575" class="icon" viewBox="0 0 1024 1024" version="1.1" xmlns="http://www.w3.org/2000/svg" p-id="16288" xmlns:xlink="http://www.w3.org/1999/xlink" width="200" height="200"><path d="M904 1024H120c-66.168 0-120-53.832-120-120V120C0 53.832 53.832 0 120 0h784c66.168 0 120 53.832 120 120v784c0 66.168-53.832 120-120 120zM120 4C56.038 4 4 56.038 4 120v784c0 63.962 52.038 116 116 116h784c63.962 0 116-52.038 116-116V120c0-63.962-52.038-116-116-116H120z" fill="#D8DDE3" p-id="16289"></path><path d="M708.528 811.49h-414.38c-56.126 0.002-101.848-45.654-101.912-101.83V314.374c0.064-56.206 45.79-101.864 101.946-101.864h413.634c7.914-0.28 45.854-0.064 74.098 26.844 13.192 12.568 28.852 35.758 28.55 74.876-0.412 53.266-0.242 70.786-0.108 84.862 0.056 5.874 0.108 11.094 0.108 17.928h-60c0-6.612-0.048-11.666-0.104-17.35-0.138-14.308-0.31-32.116 0.104-85.904 0.112-14.364-3.138-24.496-9.938-30.974-11.042-10.522-30.2-10.34-30.41-10.332l-1.682 0.046H294.266c-23.232-0.03-42.002 18.77-42.03 41.898V709.62c0.026 23.078 18.84 41.866 41.948 41.866h414.302c11.226 0 21.744-4.35 29.664-12.252a41.67 41.67 0 0 0 12.322-29.646V605.96h60v103.666c-0.066 56.21-45.786 101.864-101.944 101.864z" fill="#20263B" p-id="16290"></path><path d="M828 608H616c-26.466 0-48-21.534-48-48v-96c0-26.468 21.534-48 48-48h212c26.466 0 48 21.532 48 48v96c0 26.466-21.534 48-48 48z m-200-60h188v-72h-188v72z" fill="#FF4B07" p-id="16291"></path><path d="M333 349m-35 0a35 35 0 1 0 70 0 35 35 0 1 0-70 0Z" fill="#FF4B07" p-id="16292"></path></svg>