<?xml version="1.0" standalone="no"?><!DOCTYPE svg PUBLIC "-//W3C//DTD SVG 1.1//EN" "http://www.w3.org/Graphics/SVG/1.1/DTD/svg11.dtd"><svg t="1668260002819" class="icon" viewBox="0 0 1024 1024" version="1.1" xmlns="http://www.w3.org/2000/svg" p-id="7743" xmlns:xlink="http://www.w3.org/1999/xlink" width="200" height="200"><path d="M904 1024H120c-66.168 0-120-53.832-120-120V120C0 53.832 53.832 0 120 0h784c66.168 0 120 53.832 120 120v784c0 66.168-53.832 120-120 120zM120 4C56.038 4 4 56.038 4 120v784c0 63.962 52.038 116 116 116h784c63.962 0 116-52.038 116-116V120c0-63.962-52.038-116-116-116H120z" fill="#D8DDE3" p-id="7744"></path><path d="M668.038 599.312l-42.426-42.426c67.2-67.202 107.46-103.42 113.496-108.806 44.454-45.084 44.262-117.926-0.58-162.768l-0.292-0.292c-45.062-44.75-118.126-44.656-163.068 0.286L465 395.452l-42.422-42.43 110.164-110.144c68.43-68.428 179.776-68.428 248.206 0.002l2.18 2.218c66.254 68.596 65.526 178.294-2.174 245.994l-1.318 1.242c-0.404 0.356-41.528 36.906-111.598 106.978zM367.156 832.078c-44.948 0-89.884-17.104-124.104-51.324-68.43-68.43-68.43-179.776 0-248.206l8.786-8.788h0.872c15.33-14.01 51.268-47.446 103.26-99.436l42.426 42.426c-67.202 67.202-107.462 103.422-113.498 108.806-21.45 21.75-33.252 50.514-33.252 81.094 0 30.852 12.014 59.86 33.832 81.676 45.038 45.036 118.316 45.036 163.354 0l110.178-110.142 42.418 42.434-110.172 110.138c-34.212 34.21-79.162 51.322-124.1 51.322z" fill="#20263B" p-id="7745"></path><path d="M751 782.64a29.9 29.9 0 0 1-21.212-8.788l-197.64-197.64c-11.716-11.714-11.716-30.71 0-42.426 11.714-11.714 30.71-11.714 42.426 0l197.64 197.64c11.716 11.714 11.716 30.71 0 42.426a29.908 29.908 0 0 1-21.214 8.788zM475 504.64a29.892 29.892 0 0 1-21.212-8.788l-197.64-197.64c-11.716-11.716-11.716-30.71 0-42.426 11.714-11.716 30.71-11.716 42.426 0l197.64 197.64c11.716 11.716 11.716 30.71 0 42.426a29.908 29.908 0 0 1-21.214 8.788z" fill="#FF4B07" p-id="7746"></path></svg>