<?xml version="1.0" standalone="no"?><!DOCTYPE svg PUBLIC "-//W3C//DTD SVG 1.1//EN" "http://www.w3.org/Graphics/SVG/1.1/DTD/svg11.dtd"><svg t="1668259993186" class="icon" viewBox="0 0 1024 1024" version="1.1" xmlns="http://www.w3.org/2000/svg" p-id="7447" xmlns:xlink="http://www.w3.org/1999/xlink" width="200" height="200"><path d="M904 1024H120c-66.168 0-120-53.832-120-120V120C0 53.832 53.832 0 120 0h784c66.168 0 120 53.832 120 120v784c0 66.168-53.832 120-120 120zM120 4C56.038 4 4 56.038 4 120v784c0 63.962 52.038 116 116 116h784c63.962 0 116-52.038 116-116V120c0-63.962-52.038-116-116-116H120z" fill="#D8DDE3" p-id="7448"></path><path d="M367.42 831.35c-46.88 0-90.954-18.258-124.102-51.406-33.15-33.148-51.406-77.222-51.406-124.104 0-46.878 18.256-90.954 51.406-124.102l0.764-0.738c0.6-0.558 60.804-56.702 131.268-127.164l42.426 42.426c-68.142 68.144-126.85 123.086-132.376 128.248-44.69 45.064-44.578 118.086 0.344 163.008 45.038 45.036 118.316 45.036 163.354 0l130.362-129.794 42.332 42.52-130.314 129.748c-33.104 33.1-77.178 51.358-124.058 51.358zM648.924 618.992l-42.426-42.426c68.14-68.144 126.85-123.088 132.376-128.248 44.69-45.066 44.574-118.084-0.346-163.006l-0.292-0.292c-45.062-44.75-118.126-44.656-163.068 0.286l-130.36 129.794-42.334-42.518 130.312-129.75c68.386-68.386 179.732-68.386 248.162 0.046l2.178 2.216c31.776 32.884 49.234 76.046 49.234 121.892 0 46.88-18.258 90.954-51.406 124.102l-0.764 0.738c-0.6 0.562-60.806 56.704-131.266 127.166z" fill="#20263B" p-id="7449"></path><path d="M413.36 644.64a29.9 29.9 0 0 1-21.212-8.788c-11.716-11.714-11.716-30.71 0-42.426l197.64-197.64c11.714-11.716 30.71-11.716 42.426 0 11.716 11.714 11.716 30.71 0 42.426l-197.64 197.64a29.908 29.908 0 0 1-21.214 8.788z" fill="#FF4B07" p-id="7450"></path></svg>