<?xml version="1.0" standalone="no"?><!DOCTYPE svg PUBLIC "-//W3C//DTD SVG 1.1//EN" "http://www.w3.org/Graphics/SVG/1.1/DTD/svg11.dtd"><svg t="1668260007762" class="icon" viewBox="0 0 1024 1024" version="1.1" xmlns="http://www.w3.org/2000/svg" p-id="7889" xmlns:xlink="http://www.w3.org/1999/xlink" width="200" height="200"><path d="M904 1024H120c-66.168 0-120-53.832-120-120V120C0 53.832 53.832 0 120 0h784c66.168 0 120 53.832 120 120v784c0 66.168-53.832 120-120 120zM120 4C56.038 4 4 56.038 4 120v784c0 63.962 52.038 116 116 116h784c63.962 0 116-52.038 116-116V120c0-63.962-52.038-116-116-116H120z" fill="#D8DDE3" p-id="7890"></path><path d="M634.01 563.126c-16.028 0-31.094-6.24-42.426-17.572l-113.138-113.138c-23.394-23.394-23.394-61.46 0-84.852l56.57-56.57c26.442-26.442 61.6-41.006 98.994-41.006 37.396 0 72.552 14.564 98.996 41.006 54.586 54.586 54.586 143.404 0 197.99l-56.572 56.568c-11.332 11.332-26.396 17.576-42.424 17.574z m0-253.136c-21.37 0-41.46 8.32-56.568 23.432l-56.57 56.568 113.138 113.136h0.028l56.542-56.568c31.192-31.192 31.192-81.946 0-113.138-15.11-15.108-35.2-23.43-56.572-23.43z" fill="#20263B" p-id="7891"></path><path d="M389.99 774.008c-37.396 0.002-72.552-14.56-98.996-41.004-26.442-26.442-41.004-61.6-41.004-98.996s14.564-72.552 41.006-98.992l56.568-56.57c11.332-11.332 26.4-17.574 42.428-17.574 16.024 0 31.092 6.242 42.424 17.574l113.138 113.138c11.332 11.332 17.574 26.4 17.574 42.424s-6.244 31.096-17.576 42.428l-56.568 56.568c-26.44 26.442-61.598 41.006-98.994 41.004z m0-253.134l-56.568 56.568c-15.11 15.11-23.432 35.2-23.432 56.568s8.322 41.46 23.432 56.568c15.11 15.112 35.2 23.432 56.57 23.432 21.366 0 41.456-8.32 56.566-23.432l56.568-56.57-113.136-113.134z" fill="#FF4B07" p-id="7892"></path><path d="M789.784 191.78l42.426 42.426-110 110-42.426-42.426zM509.786 399.78l42.426 42.426-50 50-42.424-42.426zM581.786 471.78l42.426 42.426-50 50-42.424-42.428z" fill="#20263B" p-id="7893"></path><path d="M299.79 679.78l42.426 42.426-110 110-42.426-42.426z" fill="#FF4B07" p-id="7894"></path></svg>