<?xml version="1.0" standalone="no"?><!DOCTYPE svg PUBLIC "-//W3C//DTD SVG 1.1//EN" "http://www.w3.org/Graphics/SVG/1.1/DTD/svg11.dtd"><svg t="1668260549308" class="icon" viewBox="0 0 1024 1024" version="1.1" xmlns="http://www.w3.org/2000/svg" p-id="22520" xmlns:xlink="http://www.w3.org/1999/xlink" width="200" height="200"><path d="M904 1024H120c-66.168 0-120-53.832-120-120V120C0 53.832 53.832 0 120 0h784c66.168 0 120 53.832 120 120v784c0 66.168-53.832 120-120 120zM120 4C56.038 4 4 56.038 4 120v784c0 63.962 52.038 116 116 116h784c63.962 0 116-52.038 116-116V120c0-63.962-52.038-116-116-116H120z" fill="#D8DDE3" p-id="22521"></path><path d="M222 602.2c-16.568 0-30-13.432-30-30v-120.416c0-16.568 13.432-30 30-30s30 13.432 30 30V572.2c0 16.568-13.432 30-30 30z" fill="#20263B" p-id="22522"></path><path d="M670 482h140v60h-140z" fill="#FF4B07" p-id="22523"></path><path d="M710 442h60v140h-60z" fill="#FF4B07" p-id="22524"></path><path d="M596.612 769.908a30 30 0 0 1-12.852-2.892l-290.828-137.908A30 30 0 0 1 275.786 602v-180a29.998 29.998 0 0 1 17.282-27.17l290.826-136.128a30 30 0 0 1 42.718 27.172v454.036a30 30 0 0 1-30 29.998z m-260.826-186.884l230.828 109.458V333.038l-230.828 108.044v141.942z" fill="#20263B" p-id="22525"></path></svg>