<?xml version="1.0" standalone="no"?><!DOCTYPE svg PUBLIC "-//W3C//DTD SVG 1.1//EN" "http://www.w3.org/Graphics/SVG/1.1/DTD/svg11.dtd"><svg t="1668260482987" class="icon" viewBox="0 0 1024 1024" version="1.1" xmlns="http://www.w3.org/2000/svg" p-id="20454" xmlns:xlink="http://www.w3.org/1999/xlink" width="200" height="200"><path d="M712.246 582.084a19.908 19.908 0 0 1-10.632-3.074l-119.298-75.066 21.3-33.856 102.616 64.568 27.118-41.746c-43.91-28.54-159.578-103.72-169.582-110.218l21.79-33.544c12.374 8.038 186.358 121.124 186.358 121.124 9.258 6.018 11.886 18.402 5.872 27.664l-48.748 75.042a20 20 0 0 1-16.794 9.106z" fill="#20263B" p-id="20455"></path><path d="M904 1024H120c-66.168 0-120-53.832-120-120V120C0 53.832 53.832 0 120 0h784c66.168 0 120 53.832 120 120v784c0 66.168-53.832 120-120 120zM120 4C56.038 4 4 56.038 4 120v784c0 63.962 52.038 116 116 116h784c63.962 0 116-52.038 116-116V120c0-63.962-52.038-116-116-116H120z" fill="#D8DDE3" p-id="20456"></path><path d="M511.836 831.364c-7.05 0-14.1-2.474-19.756-7.424l-147.838-129.364a30 30 0 0 1-9.052-30.948l97.706-336.236a30 30 0 0 1 28.808-21.628h100.264a30.006 30.006 0 0 1 29.094 22.672L688.8 663.602a29.996 29.996 0 0 1-9.07 30.996l-148.164 129.364a29.93 29.93 0 0 1-19.73 7.402z m-113.694-169.35l113.716 99.506 113.978-99.516-86.388-296.24h-55.22l-86.086 296.25z" fill="#FF4B07" p-id="20457"></path><path d="M563.446 366h-102.8a30 30 0 0 1-27.348-17.668l-51.4-114A30.004 30.004 0 0 1 409.246 192h205.6a30.004 30.004 0 0 1 27.35 42.33l-51.398 114A30.008 30.008 0 0 1 563.446 366z m-83.42-60h64.036l24.348-54h-112.732l24.348 54z" fill="#20263B" p-id="20458"></path></svg>